%TF.GenerationSoftware,KiCad,Pcbnew,(6.0.11)*%
%TF.CreationDate,2023-09-06T20:25:09+01:00*%
%TF.ProjectId,001-Acorn_Electron_Plus1_V1_1_with_Joystick,3030312d-4163-46f7-926e-5f456c656374,rev?*%
%TF.SameCoordinates,Original*%
%TF.FileFunction,Copper,L1,Top*%
%TF.FilePolarity,Positive*%
%FSLAX46Y46*%
G04 Gerber Fmt 4.6, Leading zero omitted, Abs format (unit mm)*
G04 Created by KiCad (PCBNEW (6.0.11)) date 2023-09-06 20:25:09*
%MOMM*%
%LPD*%
G01*
G04 APERTURE LIST*
G04 Aperture macros list*
%AMRoundRect*
0 Rectangle with rounded corners*
0 $1 Rounding radius*
0 $2 $3 $4 $5 $6 $7 $8 $9 X,Y pos of 4 corners*
0 Add a 4 corners polygon primitive as box body*
4,1,4,$2,$3,$4,$5,$6,$7,$8,$9,$2,$3,0*
0 Add four circle primitives for the rounded corners*
1,1,$1+$1,$2,$3*
1,1,$1+$1,$4,$5*
1,1,$1+$1,$6,$7*
1,1,$1+$1,$8,$9*
0 Add four rect primitives between the rounded corners*
20,1,$1+$1,$2,$3,$4,$5,0*
20,1,$1+$1,$4,$5,$6,$7,0*
20,1,$1+$1,$6,$7,$8,$9,0*
20,1,$1+$1,$8,$9,$2,$3,0*%
G04 Aperture macros list end*
%TA.AperFunction,ComponentPad*%
%ADD10C,1.600000*%
%TD*%
%TA.AperFunction,ComponentPad*%
%ADD11O,1.600000X1.600000*%
%TD*%
%TA.AperFunction,ComponentPad*%
%ADD12R,1.600000X1.600000*%
%TD*%
%TA.AperFunction,ComponentPad*%
%ADD13C,1.524000*%
%TD*%
%TA.AperFunction,ComponentPad*%
%ADD14R,1.700000X1.700000*%
%TD*%
%TA.AperFunction,ComponentPad*%
%ADD15O,1.700000X1.700000*%
%TD*%
%TA.AperFunction,ComponentPad*%
%ADD16C,4.000000*%
%TD*%
%TA.AperFunction,ComponentPad*%
%ADD17R,1.050000X1.500000*%
%TD*%
%TA.AperFunction,ComponentPad*%
%ADD18O,1.050000X1.500000*%
%TD*%
%TA.AperFunction,ComponentPad*%
%ADD19RoundRect,0.250000X0.600000X-0.600000X0.600000X0.600000X-0.600000X0.600000X-0.600000X-0.600000X0*%
%TD*%
%TA.AperFunction,ComponentPad*%
%ADD20C,1.700000*%
%TD*%
%TA.AperFunction,ComponentPad*%
%ADD21R,2.400000X2.400000*%
%TD*%
%TA.AperFunction,ComponentPad*%
%ADD22O,2.400000X2.400000*%
%TD*%
%TA.AperFunction,ViaPad*%
%ADD23C,0.800000*%
%TD*%
%TA.AperFunction,Conductor*%
%ADD24C,0.250000*%
%TD*%
%TA.AperFunction,Conductor*%
%ADD25C,1.000000*%
%TD*%
%TA.AperFunction,Conductor*%
%ADD26C,0.700000*%
%TD*%
G04 APERTURE END LIST*
D10*
%TO.P,R3,1*%
%TO.N,VCC*%
X147028150Y-127712658D03*
D11*
%TO.P,R3,2*%
%TO.N,Net-(IC15-Pad9)*%
X147028150Y-120092658D03*
%TD*%
D12*
%TO.P,IC9,1*%
%TO.N,Net-(IC6-Pad15)*%
X228849000Y-149500000D03*
D11*
%TO.P,IC9,2*%
%TO.N,Net-(IC7-Pad12)*%
X226309000Y-149500000D03*
%TO.P,IC9,3*%
%TO.N,N/C*%
X223769000Y-149500000D03*
%TO.P,IC9,4*%
%TO.N,Net-(IC6-Pad10)*%
X221229000Y-149500000D03*
%TO.P,IC9,5*%
%TO.N,/A15*%
X218689000Y-149500000D03*
%TO.P,IC9,6*%
%TO.N,Net-(IC8-Pad11)*%
X216149000Y-149500000D03*
%TO.P,IC9,7*%
%TO.N,GND*%
X213609000Y-149500000D03*
%TO.P,IC9,8*%
%TO.N,Net-(IC7-Pad1)*%
X213609000Y-157120000D03*
%TO.P,IC9,9*%
%TO.N,/A15*%
X216149000Y-157120000D03*
%TO.P,IC9,10*%
%TO.N,Net-(IC6-Pad11)*%
X218689000Y-157120000D03*
%TO.P,IC9,11*%
%TO.N,N/C*%
X221229000Y-157120000D03*
%TO.P,IC9,12*%
%TO.N,Net-(IC7-Pad12)*%
X223769000Y-157120000D03*
%TO.P,IC9,13*%
%TO.N,Net-(IC6-Pad14)*%
X226309000Y-157120000D03*
%TO.P,IC9,14*%
%TO.N,VCC*%
X228849000Y-157120000D03*
%TD*%
D10*
%TO.P,C7,1*%
%TO.N,VCC*%
X198524324Y-172322327D03*
%TO.P,C7,2*%
%TO.N,GND*%
X198524324Y-167322327D03*
%TD*%
D12*
%TO.P,C4,1*%
%TO.N,VCC*%
X338943863Y-170930276D03*
D10*
%TO.P,C4,2*%
%TO.N,GND*%
X338943863Y-165930276D03*
%TD*%
D13*
%TO.P,SK2,A1,Pin_a1*%
%TO.N,VCC*%
X344784000Y-149138000D03*
%TO.P,SK2,A2,Pin_a2*%
%TO.N,/OE2*%
X342244000Y-149138000D03*
%TO.P,SK2,A3,Pin_a3*%
%TO.N,/RST*%
X339704000Y-149138000D03*
%TO.P,SK2,A4,Pin_a4*%
%TO.N,/R{slash}W*%
X337164000Y-149138000D03*
%TO.P,SK2,A5,Pin_a5*%
%TO.N,/A8*%
X334624000Y-149138000D03*
%TO.P,SK2,A6,Pin_a6*%
%TO.N,/A13*%
X332084000Y-149138000D03*
%TO.P,SK2,A7,Pin_a7*%
%TO.N,/A12*%
X329544000Y-149138000D03*
%TO.P,SK2,A8,Pin_a8*%
%TO.N,/PHI0*%
X327004000Y-149138000D03*
%TO.P,SK2,A9,Pin_a9*%
%TO.N,-5V*%
X324464000Y-149138000D03*
%TO.P,SK2,A10,Pin_a10*%
%TO.N,/NC*%
X321924000Y-149138000D03*
%TO.P,SK2,A11,Pin_a11*%
%TO.N,/NRDY*%
X319384000Y-149138000D03*
%TO.P,SK2,A12,Pin_a12*%
%TO.N,/NMI*%
X316844000Y-149138000D03*
%TO.P,SK2,A13,Pin_a13*%
%TO.N,/IRQ*%
X314304000Y-149138000D03*
%TO.P,SK2,A14,Pin_a14*%
%TO.N,/NPFC*%
X311764000Y-149138000D03*
%TO.P,SK2,A15,Pin_a15*%
%TO.N,/NPFD*%
X309224000Y-149138000D03*
%TO.P,SK2,A16,Pin_a16*%
%TO.N,/ROMQA*%
X306684000Y-149138000D03*
%TO.P,SK2,A17,Pin_a17*%
%TO.N,/16MHZ*%
X304144000Y-149138000D03*
%TO.P,SK2,A18,Pin_a18*%
%TO.N,/ROMSTB*%
X301604000Y-149138000D03*
%TO.P,SK2,A19,Pin_a19*%
%TO.N,/SND0*%
X299064000Y-149138000D03*
%TO.P,SK2,A20,Pin_a20*%
%TO.N,Net-(R4-Pad2)*%
X296524000Y-149138000D03*
%TO.P,SK2,A21,Pin_a21*%
%TO.N,/SOUNDIN*%
X293984000Y-149138000D03*
%TO.P,SK2,A22,Pin_a22*%
%TO.N,GND*%
X291444000Y-149138000D03*
%TO.P,SK2,B1,Pin_b1*%
%TO.N,VCC*%
X344784000Y-153989400D03*
%TO.P,SK2,B2,Pin_b2*%
%TO.N,/A10*%
X342244000Y-153989400D03*
%TO.P,SK2,B3,Pin_b3*%
%TO.N,/D3*%
X339704000Y-153989400D03*
%TO.P,SK2,B4,Pin_b4*%
%TO.N,/A11*%
X337164000Y-153989400D03*
%TO.P,SK2,B5,B5*%
%TO.N,/A9*%
X334624000Y-153989400D03*
%TO.P,SK2,B6,Pin_b6*%
%TO.N,/D7*%
X332084000Y-153989400D03*
%TO.P,SK2,B7,Pin_b7*%
%TO.N,/D6*%
X329544000Y-153989400D03*
%TO.P,SK2,B8,Pin_b8*%
%TO.N,/D5*%
X327004000Y-153989400D03*
%TO.P,SK2,B9,Pin_b9*%
%TO.N,/D4*%
X324464000Y-153989400D03*
%TO.P,SK2,B10,Pin_b10*%
%TO.N,/OE3*%
X321924000Y-153989400D03*
%TO.P,SK2,B11,Pin_b11*%
%TO.N,/A7*%
X319384000Y-153989400D03*
%TO.P,SK2,B12,Pin_b12*%
%TO.N,/A6*%
X316844000Y-153989400D03*
%TO.P,SK2,B13,Pin_b13*%
%TO.N,/A5*%
X314304000Y-153989400D03*
%TO.P,SK2,B14,Pin_b14*%
%TO.N,/A4*%
X311764000Y-153989400D03*
%TO.P,SK2,B15,Pin_b15*%
%TO.N,/A3*%
X309224000Y-153989400D03*
%TO.P,SK2,B16,Pin_b16*%
%TO.N,/A2*%
X306684000Y-153989400D03*
%TO.P,SK2,B17,Pin_b17*%
%TO.N,/A1*%
X304144000Y-153989400D03*
%TO.P,SK2,B18,Pin_b18*%
%TO.N,/A0*%
X301604000Y-153989400D03*
%TO.P,SK2,B19,Pin_b19*%
%TO.N,/D0*%
X299064000Y-153989400D03*
%TO.P,SK2,B20,Pin_b20*%
%TO.N,/D2*%
X296524000Y-153989400D03*
%TO.P,SK2,B21,Pin_b21*%
%TO.N,/D1*%
X293984000Y-153989400D03*
%TO.P,SK2,B22,B22*%
%TO.N,GND*%
X291444000Y-153989400D03*
%TD*%
D14*
%TO.P,LK3,1,Pin_1*%
%TO.N,/ROMOE*%
X353060000Y-170416594D03*
D15*
%TO.P,LK3,2,Pin_2*%
%TO.N,Net-(IC14-Pad23)*%
X350520000Y-170416594D03*
%TD*%
D14*
%TO.P,LK5,1,Pin_1*%
%TO.N,Net-(IC19-Pad10)*%
X62671871Y-128681409D03*
D15*
%TO.P,LK5,2,Pin_2*%
%TO.N,Net-(IC17-Pad4)*%
X65211871Y-128681409D03*
%TO.P,LK5,3,Pin_3*%
%TO.N,/A5*%
X67751871Y-128681409D03*
%TD*%
D10*
%TO.P,C10,1*%
%TO.N,VCC*%
X259650779Y-155934977D03*
%TO.P,C10,2*%
%TO.N,GND*%
X259650779Y-150934977D03*
%TD*%
%TO.P,R1,1*%
%TO.N,Net-(IC12-Pad12)*%
X101954254Y-157078714D03*
D11*
%TO.P,R1,2*%
%TO.N,Net-(Q1-Pad2)*%
X101954254Y-149458714D03*
%TD*%
D12*
%TO.P,IC13,1*%
%TO.N,/WR*%
X123570000Y-166210000D03*
D11*
%TO.P,IC13,2*%
X121030000Y-166210000D03*
%TO.P,IC13,3*%
%TO.N,Net-(IC13-Pad3)*%
X118490000Y-166210000D03*
%TO.P,IC13,4*%
%TO.N,/FC71*%
X115950000Y-166210000D03*
%TO.P,IC13,5*%
%TO.N,/WR*%
X113410000Y-166210000D03*
%TO.P,IC13,6*%
%TO.N,Net-(IC10-Pad13)*%
X110870000Y-166210000D03*
%TO.P,IC13,7*%
%TO.N,GND*%
X108330000Y-166210000D03*
%TO.P,IC13,8*%
%TO.N,/ROMSTB*%
X108330000Y-173830000D03*
%TO.P,IC13,9*%
%TO.N,/WR*%
X110870000Y-173830000D03*
%TO.P,IC13,10*%
%TO.N,/FC73*%
X113410000Y-173830000D03*
%TO.P,IC13,11*%
%TO.N,/STAT*%
X115950000Y-173830000D03*
%TO.P,IC13,12*%
%TO.N,Net-(IC13-Pad12)*%
X118490000Y-173830000D03*
%TO.P,IC13,13*%
%TO.N,/FC72*%
X121030000Y-173830000D03*
%TO.P,IC13,14*%
%TO.N,VCC*%
X123570000Y-173830000D03*
%TD*%
D12*
%TO.P,IC7,1*%
%TO.N,Net-(IC7-Pad1)*%
X91938100Y-166210000D03*
D11*
%TO.P,IC7,2*%
%TO.N,Net-(IC10-Pad10)*%
X89398100Y-166210000D03*
%TO.P,IC7,3*%
%TO.N,/R{slash}W*%
X86858100Y-166210000D03*
%TO.P,IC7,4*%
%TO.N,Net-(IC13-Pad12)*%
X84318100Y-166210000D03*
%TO.P,IC7,5*%
%TO.N,Net-(IC7-Pad5)*%
X81778100Y-166210000D03*
%TO.P,IC7,6*%
%TO.N,Net-(IC3-Pad15)*%
X79238100Y-166210000D03*
%TO.P,IC7,7*%
%TO.N,GND*%
X76698100Y-166210000D03*
%TO.P,IC7,8*%
%TO.N,N/C*%
X76698100Y-173830000D03*
%TO.P,IC7,9*%
X79238100Y-173830000D03*
%TO.P,IC7,10*%
%TO.N,/OE3*%
X81778100Y-173830000D03*
%TO.P,IC7,11*%
%TO.N,Net-(IC7-Pad11)*%
X84318100Y-173830000D03*
%TO.P,IC7,12*%
%TO.N,Net-(IC7-Pad12)*%
X86858100Y-173830000D03*
%TO.P,IC7,13*%
%TO.N,/A14*%
X89398100Y-173830000D03*
%TO.P,IC7,14*%
%TO.N,VCC*%
X91938100Y-173830000D03*
%TD*%
D10*
%TO.P,C23,1*%
%TO.N,VCC*%
X95208982Y-128658635D03*
%TO.P,C23,2*%
%TO.N,GND*%
X95208982Y-123658635D03*
%TD*%
%TO.P,R6,1*%
%TO.N,VCC*%
X151666856Y-127649639D03*
D11*
%TO.P,R6,2*%
%TO.N,Net-(IC15-Pad5)*%
X151666856Y-120029639D03*
%TD*%
D12*
%TO.P,C6,1*%
%TO.N,GND*%
X259923292Y-145153587D03*
D10*
%TO.P,C6,2*%
%TO.N,Net-(C6-Pad2)*%
X254923292Y-145153587D03*
%TD*%
D14*
%TO.P,LK4,1,Pin_1*%
%TO.N,/A11*%
X352992147Y-182042354D03*
D15*
%TO.P,LK4,2,Pin_2*%
%TO.N,Net-(IC14-Pad22)*%
X350452147Y-182042354D03*
%TD*%
D12*
%TO.P,IC6,1,~{Mr}*%
%TO.N,/RST*%
X256165000Y-116250000D03*
D11*
%TO.P,IC6,2,Q0*%
%TO.N,/ROMQA*%
X253625000Y-116250000D03*
%TO.P,IC6,3,~{Q0}*%
%TO.N,Net-(IC6-Pad3)*%
X251085000Y-116250000D03*
%TO.P,IC6,4,D0*%
%TO.N,/D0*%
X248545000Y-116250000D03*
%TO.P,IC6,5,D1*%
%TO.N,/D1*%
X246005000Y-116250000D03*
%TO.P,IC6,6,~{Q1}*%
%TO.N,Net-(IC10-Pad4)*%
X243465000Y-116250000D03*
%TO.P,IC6,7,Q1*%
%TO.N,Net-(IC10-Pad9)*%
X240925000Y-116250000D03*
%TO.P,IC6,8,GND*%
%TO.N,GND*%
X238385000Y-116250000D03*
%TO.P,IC6,9,Cp*%
%TO.N,Net-(IC5-Pad12)*%
X238385000Y-123870000D03*
%TO.P,IC6,10,Q2*%
%TO.N,Net-(IC6-Pad10)*%
X240925000Y-123870000D03*
%TO.P,IC6,11,~{Q2}*%
%TO.N,Net-(IC6-Pad11)*%
X243465000Y-123870000D03*
%TO.P,IC6,12,D2*%
%TO.N,/D2*%
X246005000Y-123870000D03*
%TO.P,IC6,13,D3*%
%TO.N,/D3*%
X248545000Y-123870000D03*
%TO.P,IC6,14,~{Q3}*%
%TO.N,Net-(IC6-Pad14)*%
X251085000Y-123870000D03*
%TO.P,IC6,15,Q3*%
%TO.N,Net-(IC6-Pad15)*%
X253625000Y-123870000D03*
%TO.P,IC6,16,VCC*%
%TO.N,VCC*%
X256165000Y-123870000D03*
%TD*%
D10*
%TO.P,R5,1*%
%TO.N,Net-(C5-Pad1)*%
X216689981Y-120196242D03*
D11*
%TO.P,R5,2*%
%TO.N,VCC*%
X216689981Y-127816242D03*
%TD*%
D12*
%TO.P,IC15,1*%
%TO.N,/STAT*%
X155650000Y-133360000D03*
D11*
%TO.P,IC15,2*%
%TO.N,Net-(IC11-Pad18)*%
X153110000Y-133360000D03*
%TO.P,IC15,3*%
%TO.N,/D6*%
X150570000Y-133360000D03*
%TO.P,IC15,4*%
%TO.N,/STAT*%
X148030000Y-133360000D03*
%TO.P,IC15,5*%
%TO.N,Net-(IC15-Pad5)*%
X145490000Y-133360000D03*
%TO.P,IC15,6*%
%TO.N,/D4*%
X142950000Y-133360000D03*
%TO.P,IC15,7*%
%TO.N,GND*%
X140410000Y-133360000D03*
%TO.P,IC15,8*%
%TO.N,/D5*%
X140410000Y-140980000D03*
%TO.P,IC15,9*%
%TO.N,Net-(IC15-Pad9)*%
X142950000Y-140980000D03*
%TO.P,IC15,10*%
%TO.N,/STAT*%
X145490000Y-140980000D03*
%TO.P,IC15,11*%
%TO.N,/D7*%
X148030000Y-140980000D03*
%TO.P,IC15,12*%
%TO.N,Net-(IC10-Pad11)*%
X150570000Y-140980000D03*
%TO.P,IC15,13*%
%TO.N,/STAT*%
X153110000Y-140980000D03*
%TO.P,IC15,14*%
%TO.N,VCC*%
X155650000Y-140980000D03*
%TD*%
D12*
%TO.P,IC2,1*%
%TO.N,Net-(IC2-Pad1)*%
X256165000Y-149500000D03*
D11*
%TO.P,IC2,2*%
%TO.N,/R{slash}W*%
X253625000Y-149500000D03*
%TO.P,IC2,3*%
%TO.N,/ROMOE*%
X251085000Y-149500000D03*
%TO.P,IC2,4*%
%TO.N,/R{slash}W*%
X248545000Y-149500000D03*
%TO.P,IC2,5*%
%TO.N,/PHI0*%
X246005000Y-149500000D03*
%TO.P,IC2,6*%
%TO.N,/RD*%
X243465000Y-149500000D03*
%TO.P,IC2,7*%
%TO.N,GND*%
X240925000Y-149500000D03*
%TO.P,IC2,8*%
%TO.N,/WR*%
X240925000Y-157120000D03*
%TO.P,IC2,9*%
%TO.N,/PHI0*%
X243465000Y-157120000D03*
%TO.P,IC2,10*%
%TO.N,Net-(IC13-Pad12)*%
X246005000Y-157120000D03*
%TO.P,IC2,11*%
%TO.N,Net-(IC2-Pad11)*%
X248545000Y-157120000D03*
%TO.P,IC2,12*%
%TO.N,/A2*%
X251085000Y-157120000D03*
%TO.P,IC2,13*%
%TO.N,/A0*%
X253625000Y-157120000D03*
%TO.P,IC2,14*%
%TO.N,VCC*%
X256165000Y-157120000D03*
%TD*%
D14*
%TO.P,LK1,1,Pin_1*%
%TO.N,/A11*%
X353060000Y-174012369D03*
D15*
%TO.P,LK1,2,Pin_2*%
%TO.N,Net-(IC14-Pad23)*%
X350520000Y-174012369D03*
%TD*%
D12*
%TO.P,IC11,1,RD*%
%TO.N,/RD*%
X195075537Y-133360000D03*
D11*
%TO.P,IC11,2,CS*%
%TO.N,/FC70*%
X192535537Y-133360000D03*
%TO.P,IC11,3,CH1*%
%TO.N,Net-(IC11-Pad3)*%
X189995537Y-133360000D03*
%TO.P,IC11,4,CH2*%
%TO.N,Net-(IC11-Pad4)*%
X187455537Y-133360000D03*
%TO.P,IC11,5,CH3*%
%TO.N,Net-(IC11-Pad5)*%
X184915537Y-133360000D03*
%TO.P,IC11,6,CH4*%
%TO.N,Net-(IC11-Pad6)*%
X182375537Y-133360000D03*
%TO.P,IC11,7,AGND*%
%TO.N,GND*%
X179835537Y-133360000D03*
%TO.P,IC11,8,VReF*%
%TO.N,Net-(C5-Pad1)*%
X177295537Y-133360000D03*
%TO.P,IC11,9,D7*%
%TO.N,/D7*%
X174755537Y-133360000D03*
%TO.P,IC11,10,GND*%
%TO.N,GND*%
X172215537Y-133360000D03*
%TO.P,IC11,11,D6*%
%TO.N,/D6*%
X172215537Y-140980000D03*
%TO.P,IC11,12,D5*%
%TO.N,/D5*%
X174755537Y-140980000D03*
%TO.P,IC11,13,D4/MA4*%
%TO.N,/D4*%
X177295537Y-140980000D03*
%TO.P,IC11,14,D3/MA3*%
%TO.N,/D3*%
X179835537Y-140980000D03*
%TO.P,IC11,15,D2/MA2*%
%TO.N,/D2*%
X182375537Y-140980000D03*
%TO.P,IC11,16,D1/MA1*%
%TO.N,/D1*%
X184915537Y-140980000D03*
%TO.P,IC11,17,D0/MA0*%
%TO.N,/D0*%
X187455537Y-140980000D03*
%TO.P,IC11,18,INTR*%
%TO.N,Net-(IC11-Pad18)*%
X189995537Y-140980000D03*
%TO.P,IC11,19,WR*%
%TO.N,/WR*%
X192535537Y-140980000D03*
%TO.P,IC11,20,VCC*%
%TO.N,VCC*%
X195075537Y-140980000D03*
%TD*%
D10*
%TO.P,C1,1*%
%TO.N,VCC*%
X95373014Y-172824680D03*
%TO.P,C1,2*%
%TO.N,GND*%
X95373014Y-167824680D03*
%TD*%
D12*
%TO.P,IC19,1*%
%TO.N,/NPFC*%
X91938100Y-132890000D03*
D11*
%TO.P,IC19,2*%
%TO.N,Net-(IC17-Pad1)*%
X89398100Y-132890000D03*
%TO.P,IC19,3*%
%TO.N,N/C*%
X86858100Y-132890000D03*
%TO.P,IC19,4*%
X84318100Y-132890000D03*
%TO.P,IC19,5*%
X81778100Y-132890000D03*
%TO.P,IC19,6*%
X79238100Y-132890000D03*
%TO.P,IC19,7*%
%TO.N,GND*%
X76698100Y-132890000D03*
%TO.P,IC19,8*%
%TO.N,Net-(IC19-Pad8)*%
X76698100Y-140510000D03*
%TO.P,IC19,9*%
%TO.N,/A4*%
X79238100Y-140510000D03*
%TO.P,IC19,10*%
%TO.N,Net-(IC19-Pad10)*%
X81778100Y-140510000D03*
%TO.P,IC19,11*%
%TO.N,/A5*%
X84318100Y-140510000D03*
%TO.P,IC19,12*%
%TO.N,N/C*%
X86858100Y-140510000D03*
%TO.P,IC19,13*%
X89398100Y-140510000D03*
%TO.P,IC19,14*%
%TO.N,VCC*%
X91938100Y-140510000D03*
%TD*%
D14*
%TO.P,LK2,1,Pin_1*%
%TO.N,/ROMOE*%
X352989952Y-178448715D03*
D15*
%TO.P,LK2,2,Pin_2*%
%TO.N,Net-(IC14-Pad22)*%
X350449952Y-178448715D03*
%TD*%
D10*
%TO.P,C21,1*%
%TO.N,VCC*%
X127264699Y-172695233D03*
%TO.P,C21,2*%
%TO.N,GND*%
X127264699Y-167695233D03*
%TD*%
D12*
%TO.P,IC14,1,VPP*%
%TO.N,VCC*%
X312205600Y-165095000D03*
D11*
%TO.P,IC14,2,A12*%
%TO.N,/A12*%
X309665600Y-165095000D03*
%TO.P,IC14,3,A7*%
%TO.N,/A7*%
X307125600Y-165095000D03*
%TO.P,IC14,4,A6*%
%TO.N,/A6*%
X304585600Y-165095000D03*
%TO.P,IC14,5,A5*%
%TO.N,/A5*%
X302045600Y-165095000D03*
%TO.P,IC14,6,A4*%
%TO.N,/A4*%
X299505600Y-165095000D03*
%TO.P,IC14,7,A3*%
%TO.N,/A3*%
X296965600Y-165095000D03*
%TO.P,IC14,8,A2*%
%TO.N,/A2*%
X294425600Y-165095000D03*
%TO.P,IC14,9,A1*%
%TO.N,/A1*%
X291885600Y-165095000D03*
%TO.P,IC14,10,A0*%
%TO.N,/A0*%
X289345600Y-165095000D03*
%TO.P,IC14,11,D0*%
%TO.N,/D0*%
X286805600Y-165095000D03*
%TO.P,IC14,12,D1*%
%TO.N,/D1*%
X284265600Y-165095000D03*
%TO.P,IC14,13,D2*%
%TO.N,/D2*%
X281725600Y-165095000D03*
%TO.P,IC14,14,GND*%
%TO.N,GND*%
X279185600Y-165095000D03*
%TO.P,IC14,15,D3*%
%TO.N,/D3*%
X279185600Y-180335000D03*
%TO.P,IC14,16,D4*%
%TO.N,/D4*%
X281725600Y-180335000D03*
%TO.P,IC14,17,D5*%
%TO.N,/D5*%
X284265600Y-180335000D03*
%TO.P,IC14,18,D6*%
%TO.N,/D6*%
X286805600Y-180335000D03*
%TO.P,IC14,19,D7*%
%TO.N,/D7*%
X289345600Y-180335000D03*
%TO.P,IC14,20,~{CE}*%
%TO.N,GND*%
X291885600Y-180335000D03*
%TO.P,IC14,21,A10*%
%TO.N,/A10*%
X294425600Y-180335000D03*
%TO.P,IC14,22,~{OE}*%
%TO.N,Net-(IC14-Pad22)*%
X296965600Y-180335000D03*
%TO.P,IC14,23,A11*%
%TO.N,Net-(IC14-Pad23)*%
X299505600Y-180335000D03*
%TO.P,IC14,24,A9*%
%TO.N,/A9*%
X302045600Y-180335000D03*
%TO.P,IC14,25,A8*%
%TO.N,/A8*%
X304585600Y-180335000D03*
%TO.P,IC14,26,NC*%
%TO.N,VCC*%
X307125600Y-180335000D03*
%TO.P,IC14,27,~{PGM}*%
X309665600Y-180335000D03*
%TO.P,IC14,28,VCC*%
X312205600Y-180335000D03*
%TD*%
D12*
%TO.P,IC18,1,OEa*%
%TO.N,Net-(IC17-Pad8)*%
X91938100Y-149505745D03*
D11*
%TO.P,IC18,2,I1*%
%TO.N,Net-(IC18-Pad2)*%
X89398100Y-149505745D03*
%TO.P,IC18,3,O1a*%
%TO.N,/D4*%
X86858100Y-149505745D03*
%TO.P,IC18,4,I2*%
%TO.N,Net-(IC18-Pad4)*%
X84318100Y-149505745D03*
%TO.P,IC18,5,O2a*%
%TO.N,/D2*%
X81778100Y-149505745D03*
%TO.P,IC18,6,I3*%
%TO.N,unconnected-(IC18-Pad6)*%
X79238100Y-149505745D03*
%TO.P,IC18,7,O3a*%
%TO.N,unconnected-(IC18-Pad7)*%
X76698100Y-149505745D03*
%TO.P,IC18,8,GND*%
%TO.N,GND*%
X74158100Y-149505745D03*
%TO.P,IC18,9,O4a*%
%TO.N,/D3*%
X74158100Y-157125745D03*
%TO.P,IC18,10,I4*%
%TO.N,Net-(IC18-Pad10)*%
X76698100Y-157125745D03*
%TO.P,IC18,11,O5b*%
%TO.N,/D1*%
X79238100Y-157125745D03*
%TO.P,IC18,12,I5*%
%TO.N,Net-(IC18-Pad12)*%
X81778100Y-157125745D03*
%TO.P,IC18,13,O6b*%
%TO.N,/D0*%
X84318100Y-157125745D03*
%TO.P,IC18,14,I6*%
%TO.N,Net-(IC18-Pad14)*%
X86858100Y-157125745D03*
%TO.P,IC18,15,OEb*%
%TO.N,Net-(IC17-Pad8)*%
X89398100Y-157125745D03*
%TO.P,IC18,16,VCC*%
%TO.N,VCC*%
X91938100Y-157125745D03*
%TD*%
D12*
%TO.P,IC10,1*%
%TO.N,N/C*%
X155650000Y-149500000D03*
D11*
%TO.P,IC10,2*%
X153110000Y-149500000D03*
%TO.P,IC10,3*%
X150570000Y-149500000D03*
%TO.P,IC10,4*%
%TO.N,Net-(IC10-Pad4)*%
X148030000Y-149500000D03*
%TO.P,IC10,5*%
%TO.N,Net-(IC10-Pad10)*%
X145490000Y-149500000D03*
%TO.P,IC10,6*%
%TO.N,/OE4*%
X142950000Y-149500000D03*
%TO.P,IC10,7*%
%TO.N,GND*%
X140410000Y-149500000D03*
%TO.P,IC10,8*%
%TO.N,/OE2*%
X140410000Y-157120000D03*
%TO.P,IC10,9*%
%TO.N,Net-(IC10-Pad9)*%
X142950000Y-157120000D03*
%TO.P,IC10,10*%
%TO.N,Net-(IC10-Pad10)*%
X145490000Y-157120000D03*
%TO.P,IC10,11*%
%TO.N,Net-(IC10-Pad11)*%
X148030000Y-157120000D03*
%TO.P,IC10,12*%
%TO.N,Net-(IC10-Pad12)*%
X150570000Y-157120000D03*
%TO.P,IC10,13*%
%TO.N,Net-(IC10-Pad13)*%
X153110000Y-157120000D03*
%TO.P,IC10,14*%
%TO.N,VCC*%
X155650000Y-157120000D03*
%TD*%
D12*
%TO.P,IC3,1,E*%
%TO.N,Net-(IC1-Pad8)*%
X155368900Y-166210000D03*
D11*
%TO.P,IC3,2,A0*%
%TO.N,/A8*%
X152828900Y-166210000D03*
%TO.P,IC3,3,A1*%
%TO.N,/A9*%
X150288900Y-166210000D03*
%TO.P,IC3,4,O0*%
%TO.N,/NPFC*%
X147748900Y-166210000D03*
%TO.P,IC3,5,O1*%
%TO.N,/NPFD*%
X145208900Y-166210000D03*
%TO.P,IC3,6,O2*%
%TO.N,/NPFE*%
X142668900Y-166210000D03*
%TO.P,IC3,7,O3*%
%TO.N,unconnected-(IC3-Pad7)*%
X140128900Y-166210000D03*
%TO.P,IC3,8*%
%TO.N,GND*%
X137588900Y-166210000D03*
%TO.P,IC3,9,O3*%
%TO.N,/FC73*%
X137588900Y-173830000D03*
%TO.P,IC3,10,O2*%
%TO.N,/FC72*%
X140128900Y-173830000D03*
%TO.P,IC3,11,O1*%
%TO.N,/FC71*%
X142668900Y-173830000D03*
%TO.P,IC3,12,O0*%
%TO.N,/FC70*%
X145208900Y-173830000D03*
%TO.P,IC3,13,A1*%
%TO.N,/A1*%
X147748900Y-173830000D03*
%TO.P,IC3,14,A0*%
%TO.N,/A0*%
X150288900Y-173830000D03*
%TO.P,IC3,15,E*%
%TO.N,Net-(IC3-Pad15)*%
X152828900Y-173830000D03*
%TO.P,IC3,16*%
%TO.N,VCC*%
X155368900Y-173830000D03*
%TD*%
D13*
%TO.P,PL1,1,Pin_1*%
%TO.N,/18VAC*%
X264374070Y-200556891D03*
%TO.P,PL1,2,Pin_2*%
X264374070Y-196556891D03*
%TO.P,PL1,3,Pin_3*%
%TO.N,/ACRET*%
X261834070Y-200556891D03*
%TO.P,PL1,4,Pin_4*%
X261834070Y-196556891D03*
%TO.P,PL1,5,Pin_5*%
%TO.N,-5V*%
X259294070Y-200556891D03*
%TO.P,PL1,6,Pin_6*%
X259294070Y-196556891D03*
%TO.P,PL1,7,Pin_7*%
%TO.N,GND*%
X256754070Y-200556891D03*
%TO.P,PL1,8,Pin_8*%
X256754070Y-196556891D03*
%TO.P,PL1,9,Pin_9*%
%TO.N,VCC*%
X254214070Y-200556891D03*
%TO.P,PL1,10,Pin_10*%
X254214070Y-196556891D03*
%TO.P,PL1,11,Pin_11*%
%TO.N,/SND0*%
X251674070Y-200556891D03*
%TO.P,PL1,12,Pin_12*%
%TO.N,/16MHZ*%
X251674070Y-196556891D03*
%TO.P,PL1,13,Pin_13*%
%TO.N,/CLK_D13*%
X249134070Y-200556891D03*
%TO.P,PL1,14,Pin_14*%
%TO.N,/PHI0*%
X249134070Y-196556891D03*
%TO.P,PL1,15,Pin_15*%
%TO.N,/RST*%
X246594070Y-200556891D03*
%TO.P,PL1,16,Pin_16*%
%TO.N,/NMI*%
X246594070Y-196556891D03*
%TO.P,PL1,17,Pin_17*%
%TO.N,/IRQ*%
X244054070Y-200556891D03*
%TO.P,PL1,18,Pin_18*%
%TO.N,/R{slash}W*%
X244054070Y-196556891D03*
%TO.P,PL1,19,Pin_19*%
%TO.N,/D7*%
X241514070Y-200556891D03*
%TO.P,PL1,20,Pin_20*%
%TO.N,/D6*%
X241514070Y-196556891D03*
%TO.P,PL1,21,Pin_21*%
%TO.N,/D5*%
X238974070Y-200556891D03*
%TO.P,PL1,22,Pin_22*%
%TO.N,/D4*%
X238974070Y-196556891D03*
%TO.P,PL1,23,Pin_23*%
%TO.N,/D3*%
X236434070Y-200556891D03*
%TO.P,PL1,24,Pin_24*%
%TO.N,/D2*%
X236434070Y-196556891D03*
%TO.P,PL1,25,Pin_25*%
%TO.N,/D1*%
X233894070Y-200556891D03*
%TO.P,PL1,26,Pin_26*%
%TO.N,/D0*%
X233894070Y-196556891D03*
%TO.P,PL1,27,Pin_27*%
%TO.N,/NRDY*%
X231354070Y-200556891D03*
%TO.P,PL1,28,Pin_28*%
%TO.N,/NC1*%
X231354070Y-196556891D03*
%TO.P,PL1,31,Pin_31*%
%TO.N,/A15*%
X226274070Y-200556891D03*
%TO.P,PL1,32,Pin_32*%
%TO.N,/A14*%
X226274070Y-196556891D03*
%TO.P,PL1,33,Pin_33*%
%TO.N,/A13*%
X223734070Y-200556891D03*
%TO.P,PL1,34,Pin_34*%
%TO.N,/A12*%
X223734070Y-196556891D03*
%TO.P,PL1,35,Pin_35*%
%TO.N,/A11*%
X221194070Y-200556891D03*
%TO.P,PL1,36,Pin_36*%
%TO.N,/A10*%
X221194070Y-196556891D03*
%TO.P,PL1,37,Pin_37*%
%TO.N,/A9*%
X218654070Y-200556891D03*
%TO.P,PL1,38,Pin_38*%
%TO.N,/A0*%
X218654070Y-196556891D03*
%TO.P,PL1,39,Pin_39*%
%TO.N,/A1*%
X216114070Y-200556891D03*
%TO.P,PL1,40,Pin_40*%
%TO.N,/A2*%
X216114070Y-196556891D03*
%TO.P,PL1,41,Pin_41*%
%TO.N,/A3*%
X213574070Y-200556891D03*
%TO.P,PL1,42,Pin_42*%
%TO.N,/A4*%
X213574070Y-196556891D03*
%TO.P,PL1,43,Pin_43*%
%TO.N,/A5*%
X211034070Y-200556891D03*
%TO.P,PL1,44,Pin_44*%
%TO.N,/A6*%
X211034070Y-196556891D03*
%TO.P,PL1,45,Pin_45*%
%TO.N,/A7*%
X208494070Y-200556891D03*
%TO.P,PL1,46,Pin_46*%
%TO.N,/A8*%
X208494070Y-196556891D03*
%TO.P,PL1,47,Pin_47*%
%TO.N,GND*%
X205954070Y-200556891D03*
%TO.P,PL1,48,Pin_48*%
X205954070Y-196556891D03*
%TO.P,PL1,49,Pin_49*%
%TO.N,VCC*%
X203414070Y-200556891D03*
%TO.P,PL1,50,Pin_50*%
X203414070Y-196556891D03*
%TD*%
D10*
%TO.P,C8,1*%
%TO.N,VCC*%
X232314072Y-172452667D03*
%TO.P,C8,2*%
%TO.N,GND*%
X232314072Y-167452667D03*
%TD*%
%TO.P,C22,1*%
%TO.N,VCC*%
X95113970Y-155917560D03*
%TO.P,C22,2*%
%TO.N,GND*%
X95113970Y-150917560D03*
%TD*%
D14*
%TO.P,LK7,1,Pin_1*%
%TO.N,GND*%
X132702003Y-123129532D03*
D15*
%TO.P,LK7,2,Pin_2*%
%TO.N,VCC*%
X130162003Y-123129532D03*
%TO.P,LK7,3,Pin_3*%
%TO.N,Net-(IC5-Pad4)*%
X127622003Y-123129532D03*
%TO.P,LK7,4,Pin_4*%
%TO.N,Net-(IC16-Pad5)*%
X125082003Y-123129532D03*
%TO.P,LK7,5,Pin_5*%
%TO.N,Net-(IC16-Pad6)*%
X122542003Y-123129532D03*
%TO.P,LK7,6,Pin_6*%
%TO.N,GND*%
X120002003Y-123129532D03*
%TD*%
D10*
%TO.P,C2,1*%
%TO.N,VCC*%
X259730107Y-122531758D03*
%TO.P,C2,2*%
%TO.N,GND*%
X259730107Y-117531758D03*
%TD*%
%TO.P,C14,1*%
%TO.N,VCC*%
X281254252Y-183710447D03*
%TO.P,C14,2*%
%TO.N,GND*%
X276254252Y-183710447D03*
%TD*%
%TO.P,C17,1*%
%TO.N,VCC*%
X232218715Y-155856421D03*
%TO.P,C17,2*%
%TO.N,GND*%
X232218715Y-150856421D03*
%TD*%
D12*
%TO.P,D1,1,K*%
%TO.N,Net-(D1-Pad1)*%
X221209600Y-127816242D03*
D11*
%TO.P,D1,2,A*%
%TO.N,Net-(C5-Pad1)*%
X221209600Y-120196242D03*
%TD*%
D12*
%TO.P,D2,1,K*%
%TO.N,Net-(D2-Pad1)*%
X225568115Y-120196242D03*
D11*
%TO.P,D2,2,A*%
%TO.N,Net-(D1-Pad1)*%
X225568115Y-127816242D03*
%TD*%
D16*
%TO.P,SK6,0*%
%TO.N,N/C*%
X60552586Y-159766879D03*
X60552586Y-134766879D03*
D12*
%TO.P,SK6,1,1*%
%TO.N,Net-(IC18-Pad14)*%
X60852586Y-141726879D03*
D10*
%TO.P,SK6,2,2*%
%TO.N,Net-(IC18-Pad12)*%
X60852586Y-144496879D03*
%TO.P,SK6,3,3*%
%TO.N,Net-(IC18-Pad4)*%
X60852586Y-147266879D03*
%TO.P,SK6,4,4*%
%TO.N,Net-(IC18-Pad10)*%
X60852586Y-150036879D03*
%TO.P,SK6,5,5*%
%TO.N,unconnected-(SK6-Pad5)*%
X60852586Y-152806879D03*
%TO.P,SK6,6,6*%
%TO.N,Net-(IC18-Pad2)*%
X58012586Y-143111879D03*
%TO.P,SK6,7,7*%
%TO.N,GND*%
X58012586Y-145881879D03*
%TO.P,SK6,8,8*%
%TO.N,VCC*%
X58012586Y-148651879D03*
%TO.P,SK6,9,9*%
%TO.N,unconnected-(SK6-Pad9)*%
X58012586Y-151421879D03*
%TD*%
D13*
%TO.P,SK1,A1,Pin_a1*%
%TO.N,VCC*%
X344784000Y-122789300D03*
%TO.P,SK1,A2,Pin_a2*%
%TO.N,/OE4*%
X342244000Y-122789300D03*
%TO.P,SK1,A3,Pin_a3*%
%TO.N,/RST*%
X339704000Y-122789300D03*
%TO.P,SK1,A4,Pin_a4*%
%TO.N,/R{slash}W*%
X337164000Y-122789300D03*
%TO.P,SK1,A5,Pin_a5*%
%TO.N,/A8*%
X334624000Y-122789300D03*
%TO.P,SK1,A6,Pin_a6*%
%TO.N,/A13*%
X332084000Y-122789300D03*
%TO.P,SK1,A7,Pin_a7*%
%TO.N,/A12*%
X329544000Y-122789300D03*
%TO.P,SK1,A8,Pin_a8*%
%TO.N,/PHI0*%
X327004000Y-122789300D03*
%TO.P,SK1,A9,Pin_a9*%
%TO.N,-5V*%
X324464000Y-122789300D03*
%TO.P,SK1,A10,Pin_a10*%
%TO.N,/NC*%
X321924000Y-122789300D03*
%TO.P,SK1,A11,Pin_a11*%
%TO.N,/NRDY*%
X319384000Y-122789300D03*
%TO.P,SK1,A12,Pin_a12*%
%TO.N,/NMI*%
X316844000Y-122789300D03*
%TO.P,SK1,A13,Pin_a13*%
%TO.N,/IRQ*%
X314304000Y-122789300D03*
%TO.P,SK1,A14,Pin_a14*%
%TO.N,/NPFC*%
X311764000Y-122789300D03*
%TO.P,SK1,A15,Pin_a15*%
%TO.N,/NPFD*%
X309224000Y-122789300D03*
%TO.P,SK1,A16,Pin_a16*%
%TO.N,/ROMQA*%
X306684000Y-122789300D03*
%TO.P,SK1,A17,Pin_a17*%
%TO.N,/16MHZ*%
X304144000Y-122789300D03*
%TO.P,SK1,A18,Pin_a18*%
%TO.N,/ROMSTB*%
X301604000Y-122789300D03*
%TO.P,SK1,A19,Pin_a19*%
%TO.N,/SND0*%
X299064000Y-122789300D03*
%TO.P,SK1,A20,Pin_a20*%
%TO.N,Net-(R4-Pad2)*%
X296524000Y-122789300D03*
%TO.P,SK1,A21,Pin_a21*%
%TO.N,/SOUNDIN*%
X293984000Y-122789300D03*
%TO.P,SK1,A22,Pin_a22*%
%TO.N,GND*%
X291444000Y-122789300D03*
%TO.P,SK1,B1,Pin_b1*%
%TO.N,VCC*%
X344784000Y-127640700D03*
%TO.P,SK1,B2,Pin_b2*%
%TO.N,/A10*%
X342244000Y-127640700D03*
%TO.P,SK1,B3,Pin_b3*%
%TO.N,/D3*%
X339704000Y-127640700D03*
%TO.P,SK1,B4,Pin_b4*%
%TO.N,/A11*%
X337164000Y-127640700D03*
%TO.P,SK1,B5,B5*%
%TO.N,/A9*%
X334624000Y-127640700D03*
%TO.P,SK1,B6,Pin_b6*%
%TO.N,/D7*%
X332084000Y-127640700D03*
%TO.P,SK1,B7,Pin_b7*%
%TO.N,/D6*%
X329544000Y-127640700D03*
%TO.P,SK1,B8,Pin_b8*%
%TO.N,/D5*%
X327004000Y-127640700D03*
%TO.P,SK1,B9,Pin_b9*%
%TO.N,/D4*%
X324464000Y-127640700D03*
%TO.P,SK1,B10,Pin_b10*%
%TO.N,/OE3*%
X321924000Y-127640700D03*
%TO.P,SK1,B11,Pin_b11*%
%TO.N,/A7*%
X319384000Y-127640700D03*
%TO.P,SK1,B12,Pin_b12*%
%TO.N,/A6*%
X316844000Y-127640700D03*
%TO.P,SK1,B13,Pin_b13*%
%TO.N,/A5*%
X314304000Y-127640700D03*
%TO.P,SK1,B14,Pin_b14*%
%TO.N,/A4*%
X311764000Y-127640700D03*
%TO.P,SK1,B15,Pin_b15*%
%TO.N,/A3*%
X309224000Y-127640700D03*
%TO.P,SK1,B16,Pin_b16*%
%TO.N,/A2*%
X306684000Y-127640700D03*
%TO.P,SK1,B17,Pin_b17*%
%TO.N,/A1*%
X304144000Y-127640700D03*
%TO.P,SK1,B18,Pin_b18*%
%TO.N,/A0*%
X301604000Y-127640700D03*
%TO.P,SK1,B19,Pin_b19*%
%TO.N,/D0*%
X299064000Y-127640700D03*
%TO.P,SK1,B20,Pin_b20*%
%TO.N,/D2*%
X296524000Y-127640700D03*
%TO.P,SK1,B21,Pin_b21*%
%TO.N,/D1*%
X293984000Y-127640700D03*
%TO.P,SK1,B22,B22*%
%TO.N,GND*%
X291444000Y-127640700D03*
%TD*%
D17*
%TO.P,Q1,1,C*%
%TO.N,Net-(J1-Pad1)*%
X101102342Y-144171831D03*
D18*
%TO.P,Q1,2,B*%
%TO.N,Net-(Q1-Pad2)*%
X99832342Y-144171831D03*
%TO.P,Q1,3,E*%
%TO.N,GND*%
X98562342Y-144171831D03*
%TD*%
D12*
%TO.P,IC5,1*%
%TO.N,/PHI0*%
X195075537Y-166210000D03*
D11*
%TO.P,IC5,2*%
%TO.N,Net-(IC4-Pad6)*%
X192535537Y-166210000D03*
%TO.P,IC5,3*%
%TO.N,Net-(IC10-Pad11)*%
X189995537Y-166210000D03*
%TO.P,IC5,4*%
%TO.N,Net-(IC5-Pad4)*%
X187455537Y-166210000D03*
%TO.P,IC5,5*%
%TO.N,/RST*%
X184915537Y-166210000D03*
%TO.P,IC5,6*%
%TO.N,Net-(IC10-Pad12)*%
X182375537Y-166210000D03*
%TO.P,IC5,7*%
%TO.N,GND*%
X179835537Y-166210000D03*
%TO.P,IC5,8*%
%TO.N,Net-(IC5-Pad8)*%
X179835537Y-173830000D03*
%TO.P,IC5,9*%
%TO.N,/A6*%
X182375537Y-173830000D03*
%TO.P,IC5,10*%
%TO.N,/A5*%
X184915537Y-173830000D03*
%TO.P,IC5,11*%
%TO.N,/A4*%
X187455537Y-173830000D03*
%TO.P,IC5,12*%
%TO.N,Net-(IC5-Pad12)*%
X189995537Y-173830000D03*
%TO.P,IC5,13*%
%TO.N,Net-(IC4-Pad5)*%
X192535537Y-173830000D03*
%TO.P,IC5,14*%
%TO.N,VCC*%
X195075537Y-173830000D03*
%TD*%
D10*
%TO.P,C24,1*%
%TO.N,VCC*%
X95105358Y-139372066D03*
%TO.P,C24,2*%
%TO.N,GND*%
X95105358Y-134372066D03*
%TD*%
%TO.P,C13,1*%
%TO.N,VCC*%
X198785989Y-155767660D03*
%TO.P,C13,2*%
%TO.N,GND*%
X198785989Y-150767660D03*
%TD*%
%TO.P,R9,1*%
%TO.N,Net-(C6-Pad2)*%
X247944599Y-145239187D03*
D11*
%TO.P,R9,2*%
%TO.N,Net-(IC13-Pad3)*%
X240324599Y-145239187D03*
%TD*%
D12*
%TO.P,IC4,1*%
%TO.N,Net-(C6-Pad2)*%
X256165000Y-133360000D03*
D11*
%TO.P,IC4,2*%
%TO.N,/A3*%
X253625000Y-133360000D03*
%TO.P,IC4,3*%
%TO.N,/R{slash}W*%
X251085000Y-133360000D03*
%TO.P,IC4,4*%
%TO.N,/NPFE*%
X248545000Y-133360000D03*
%TO.P,IC4,5*%
%TO.N,Net-(IC4-Pad5)*%
X246005000Y-133360000D03*
%TO.P,IC4,6*%
%TO.N,Net-(IC4-Pad6)*%
X243465000Y-133360000D03*
%TO.P,IC4,7*%
%TO.N,GND*%
X240925000Y-133360000D03*
%TO.P,IC4,8*%
%TO.N,/D5*%
X240925000Y-140980000D03*
%TO.P,IC4,9*%
%TO.N,/D6*%
X243465000Y-140980000D03*
%TO.P,IC4,10*%
%TO.N,/D7*%
X246005000Y-140980000D03*
%TO.P,IC4,11*%
%TO.N,/D4*%
X248545000Y-140980000D03*
%TO.P,IC4,12*%
%TO.N,Net-(IC2-Pad11)*%
X251085000Y-140980000D03*
%TO.P,IC4,13*%
%TO.N,/A1*%
X253625000Y-140980000D03*
%TO.P,IC4,14*%
%TO.N,VCC*%
X256165000Y-140980000D03*
%TD*%
D10*
%TO.P,C9,1*%
%TO.N,VCC*%
X259700057Y-139636628D03*
%TO.P,C9,2*%
%TO.N,GND*%
X259700057Y-134636628D03*
%TD*%
%TO.P,R4,1*%
%TO.N,VCC*%
X359467800Y-174039801D03*
D11*
%TO.P,R4,2*%
%TO.N,Net-(R4-Pad2)*%
X359467800Y-166419801D03*
%TD*%
D10*
%TO.P,C11,1*%
%TO.N,VCC*%
X198839538Y-139960351D03*
%TO.P,C11,2*%
%TO.N,GND*%
X198839538Y-134960351D03*
%TD*%
D12*
%TO.P,D3,1,K*%
%TO.N,GND*%
X230113424Y-127816242D03*
D11*
%TO.P,D3,2,A*%
%TO.N,Net-(D2-Pad1)*%
X230113424Y-120196242D03*
%TD*%
D12*
%TO.P,IC17,1*%
%TO.N,Net-(IC17-Pad1)*%
X91978140Y-122045909D03*
D11*
%TO.P,IC17,2*%
%TO.N,/A7*%
X89438140Y-122045909D03*
%TO.P,IC17,3*%
%TO.N,/A6*%
X86898140Y-122045909D03*
%TO.P,IC17,4*%
%TO.N,Net-(IC17-Pad4)*%
X84358140Y-122045909D03*
%TO.P,IC17,5*%
%TO.N,VCC*%
X81818140Y-122045909D03*
%TO.P,IC17,6*%
%TO.N,Net-(IC17-Pad6)*%
X79278140Y-122045909D03*
%TO.P,IC17,7,GND*%
%TO.N,GND*%
X76738140Y-122045909D03*
%TO.P,IC17,8*%
%TO.N,Net-(IC17-Pad8)*%
X76738140Y-129665909D03*
%TO.P,IC17,9*%
%TO.N,N/C*%
X79278140Y-129665909D03*
%TO.P,IC17,10*%
X81818140Y-129665909D03*
%TO.P,IC17,11*%
%TO.N,VCC*%
X84358140Y-129665909D03*
%TO.P,IC17,12*%
X86898140Y-129665909D03*
%TO.P,IC17,13*%
X89438140Y-129665909D03*
%TO.P,IC17,14,VCC*%
X91978140Y-129665909D03*
%TD*%
D14*
%TO.P,LK6,1,Pin_1*%
%TO.N,Net-(IC19-Pad8)*%
X62861369Y-122543399D03*
D15*
%TO.P,LK6,2,Pin_2*%
%TO.N,Net-(IC17-Pad6)*%
X65401369Y-122543399D03*
%TO.P,LK6,3,Pin_3*%
%TO.N,/A4*%
X67941369Y-122543399D03*
%TD*%
D12*
%TO.P,IC1,1*%
%TO.N,VCC*%
X228849000Y-166210000D03*
D11*
%TO.P,IC1,2*%
X226309000Y-166210000D03*
%TO.P,IC1,3*%
%TO.N,/A15*%
X223769000Y-166210000D03*
%TO.P,IC1,4*%
%TO.N,/A13*%
X221229000Y-166210000D03*
%TO.P,IC1,5*%
%TO.N,/A11*%
X218689000Y-166210000D03*
%TO.P,IC1,6*%
%TO.N,/A10*%
X216149000Y-166210000D03*
%TO.P,IC1,7*%
%TO.N,GND*%
X213609000Y-166210000D03*
%TO.P,IC1,8*%
%TO.N,Net-(IC1-Pad8)*%
X213609000Y-173830000D03*
%TO.P,IC1,9*%
%TO.N,N/C*%
X216149000Y-173830000D03*
%TO.P,IC1,10*%
X218689000Y-173830000D03*
%TO.P,IC1,11*%
%TO.N,/A12*%
X221229000Y-173830000D03*
%TO.P,IC1,12*%
%TO.N,/A14*%
X223769000Y-173830000D03*
%TO.P,IC1,13*%
%TO.N,N/C*%
X226309000Y-173830000D03*
%TO.P,IC1,14*%
%TO.N,VCC*%
X228849000Y-173830000D03*
%TD*%
D10*
%TO.P,C19,1*%
%TO.N,VCC*%
X159061467Y-155961376D03*
%TO.P,C19,2*%
%TO.N,GND*%
X159061467Y-150961376D03*
%TD*%
%TO.P,R7,1*%
%TO.N,VCC*%
X95796182Y-163092013D03*
D11*
%TO.P,R7,2*%
%TO.N,Net-(J1-Pad1)*%
X103416182Y-163092013D03*
%TD*%
D10*
%TO.P,C20,1*%
%TO.N,VCC*%
X159092889Y-139433394D03*
%TO.P,C20,2*%
%TO.N,GND*%
X159092889Y-134433394D03*
%TD*%
D12*
%TO.P,IC16,1,~{Mr}*%
%TO.N,/RST*%
X123600000Y-132890000D03*
D11*
%TO.P,IC16,2,Q0*%
%TO.N,Net-(IC16-Pad2)*%
X121060000Y-132890000D03*
%TO.P,IC16,3,D0*%
%TO.N,/D6*%
X118520000Y-132890000D03*
%TO.P,IC16,4,D1*%
%TO.N,/D0*%
X115980000Y-132890000D03*
%TO.P,IC16,5,Q1*%
%TO.N,Net-(IC16-Pad5)*%
X113440000Y-132890000D03*
%TO.P,IC16,6,Q2*%
%TO.N,Net-(IC16-Pad6)*%
X110900000Y-132890000D03*
%TO.P,IC16,7,D2*%
%TO.N,/D1*%
X108360000Y-132890000D03*
%TO.P,IC16,8,D3*%
%TO.N,/D2*%
X105820000Y-132890000D03*
%TO.P,IC16,9,Q3*%
%TO.N,Net-(IC16-Pad9)*%
X103280000Y-132890000D03*
%TO.P,IC16,10,GND*%
%TO.N,GND*%
X100740000Y-132890000D03*
%TO.P,IC16,11,Cp*%
%TO.N,Net-(IC10-Pad13)*%
X100740000Y-140510000D03*
%TO.P,IC16,12,Q4*%
%TO.N,Net-(IC16-Pad12)*%
X103280000Y-140510000D03*
%TO.P,IC16,13,D4*%
%TO.N,/D3*%
X105820000Y-140510000D03*
%TO.P,IC16,14,D5*%
%TO.N,/D4*%
X108360000Y-140510000D03*
%TO.P,IC16,15,Q5*%
%TO.N,Net-(IC16-Pad15)*%
X110900000Y-140510000D03*
%TO.P,IC16,16,Q6*%
%TO.N,Net-(IC16-Pad16)*%
X113440000Y-140510000D03*
%TO.P,IC16,17,D6*%
%TO.N,/D5*%
X115980000Y-140510000D03*
%TO.P,IC16,18,D7*%
%TO.N,/D7*%
X118520000Y-140510000D03*
%TO.P,IC16,19,Q7*%
%TO.N,Net-(IC16-Pad19)*%
X121060000Y-140510000D03*
%TO.P,IC16,20,VCC*%
%TO.N,VCC*%
X123600000Y-140510000D03*
%TD*%
D12*
%TO.P,IC12,1,~{MR}*%
%TO.N,/RST*%
X123680000Y-149500000D03*
D11*
%TO.P,IC12,2,J*%
%TO.N,GND*%
X121140000Y-149500000D03*
%TO.P,IC12,3,~{K}*%
X118600000Y-149500000D03*
%TO.P,IC12,4,P0*%
X116060000Y-149500000D03*
%TO.P,IC12,5,P1*%
%TO.N,VCC*%
X113520000Y-149500000D03*
%TO.P,IC12,6,P2*%
X110980000Y-149500000D03*
%TO.P,IC12,7,P3*%
%TO.N,GND*%
X108440000Y-149500000D03*
%TO.P,IC12,8,GND*%
X105900000Y-149500000D03*
%TO.P,IC12,9,~{PE}*%
%TO.N,/FC71*%
X105900000Y-157120000D03*
%TO.P,IC12,10,CP*%
%TO.N,/PHI0*%
X108440000Y-157120000D03*
%TO.P,IC12,11,~{Q3}*%
%TO.N,unconnected-(IC12-Pad11)*%
X110980000Y-157120000D03*
%TO.P,IC12,12,Q3*%
%TO.N,Net-(IC12-Pad12)*%
X113520000Y-157120000D03*
%TO.P,IC12,13,Q2*%
%TO.N,unconnected-(IC12-Pad13)*%
X116060000Y-157120000D03*
%TO.P,IC12,14,Q1*%
%TO.N,unconnected-(IC12-Pad14)*%
X118600000Y-157120000D03*
%TO.P,IC12,15,Q0*%
%TO.N,unconnected-(IC12-Pad15)*%
X121140000Y-157120000D03*
%TO.P,IC12,16,VCC*%
%TO.N,VCC*%
X123680000Y-157120000D03*
%TD*%
D10*
%TO.P,R2,1*%
%TO.N,VCC*%
X142336092Y-127729458D03*
D11*
%TO.P,R2,2*%
%TO.N,Net-(IC5-Pad4)*%
X142336092Y-120109458D03*
%TD*%
D10*
%TO.P,C16,1*%
%TO.N,VCC*%
X127500000Y-139274238D03*
%TO.P,C16,2*%
%TO.N,GND*%
X127500000Y-134274238D03*
%TD*%
D12*
%TO.P,IC8,1*%
%TO.N,/A7*%
X195075537Y-149500000D03*
D11*
%TO.P,IC8,2*%
%TO.N,/NPFC*%
X192535537Y-149500000D03*
%TO.P,IC8,3*%
%TO.N,/ROMQA*%
X189995537Y-149500000D03*
%TO.P,IC8,4*%
%TO.N,Net-(IC8-Pad11)*%
X187455537Y-149500000D03*
%TO.P,IC8,5*%
%TO.N,Net-(IC10-Pad9)*%
X184915537Y-149500000D03*
%TO.P,IC8,6*%
%TO.N,Net-(IC2-Pad1)*%
X182375537Y-149500000D03*
%TO.P,IC8,7*%
%TO.N,GND*%
X179835537Y-149500000D03*
%TO.P,IC8,8*%
%TO.N,Net-(IC7-Pad11)*%
X179835537Y-157120000D03*
%TO.P,IC8,9*%
%TO.N,Net-(IC6-Pad3)*%
X182375537Y-157120000D03*
%TO.P,IC8,10*%
%TO.N,Net-(IC10-Pad9)*%
X184915537Y-157120000D03*
%TO.P,IC8,11*%
%TO.N,Net-(IC8-Pad11)*%
X187455537Y-157120000D03*
%TO.P,IC8,12*%
%TO.N,Net-(IC7-Pad5)*%
X189995537Y-157120000D03*
%TO.P,IC8,13*%
%TO.N,Net-(IC5-Pad8)*%
X192535537Y-157120000D03*
%TO.P,IC8,14*%
%TO.N,VCC*%
X195075537Y-157120000D03*
%TD*%
D12*
%TO.P,RN1,1,common*%
%TO.N,GND*%
X74263046Y-145014981D03*
D11*
%TO.P,RN1,2,R1*%
%TO.N,Net-(IC18-Pad14)*%
X76803046Y-145014981D03*
%TO.P,RN1,3,R2*%
%TO.N,Net-(IC18-Pad12)*%
X79343046Y-145014981D03*
%TO.P,RN1,4,R3*%
%TO.N,Net-(IC18-Pad10)*%
X81883046Y-145014981D03*
%TO.P,RN1,5,R4*%
%TO.N,Net-(IC18-Pad4)*%
X84423046Y-145014981D03*
%TO.P,RN1,6,R5*%
%TO.N,Net-(IC18-Pad2)*%
X86963046Y-145014981D03*
%TD*%
D16*
%TO.P,SK4,0*%
%TO.N,N/C*%
X167173708Y-115900000D03*
X200473708Y-115900000D03*
D12*
%TO.P,SK4,1,1*%
%TO.N,VCC*%
X174128708Y-116200000D03*
D10*
%TO.P,SK4,2,2*%
%TO.N,GND*%
X176898708Y-116200000D03*
%TO.P,SK4,3,3*%
X179668708Y-116200000D03*
%TO.P,SK4,4,4*%
%TO.N,Net-(IC11-Pad6)*%
X182438708Y-116200000D03*
%TO.P,SK4,5,5*%
%TO.N,GND*%
X185208708Y-116200000D03*
%TO.P,SK4,6,6*%
X187978708Y-116200000D03*
%TO.P,SK4,7,7*%
%TO.N,Net-(IC11-Pad4)*%
X190748708Y-116200000D03*
%TO.P,SK4,8,8*%
%TO.N,GND*%
X193518708Y-116200000D03*
%TO.P,SK4,9,P9*%
%TO.N,unconnected-(SK4-Pad9)*%
X175513708Y-113360000D03*
%TO.P,SK4,10,P10*%
%TO.N,Net-(IC15-Pad9)*%
X178283708Y-113360000D03*
%TO.P,SK4,11,P111*%
%TO.N,Net-(C5-Pad1)*%
X181053708Y-113360000D03*
%TO.P,SK4,12,P12*%
%TO.N,Net-(IC11-Pad5)*%
X183823708Y-113360000D03*
%TO.P,SK4,13,P13*%
%TO.N,Net-(IC15-Pad5)*%
X186593708Y-113360000D03*
%TO.P,SK4,14,P14*%
%TO.N,Net-(C5-Pad1)*%
X189363708Y-113360000D03*
%TO.P,SK4,15,P15*%
%TO.N,Net-(IC11-Pad3)*%
X192133708Y-113360000D03*
%TD*%
D19*
%TO.P,J1,1,Pin_1*%
%TO.N,Net-(J1-Pad1)*%
X93840000Y-118705800D03*
D20*
%TO.P,J1,2,Pin_2*%
%TO.N,GND*%
X93840000Y-116165800D03*
%TO.P,J1,3,Pin_3*%
%TO.N,Net-(IC16-Pad5)*%
X96380000Y-118705800D03*
%TO.P,J1,4,Pin_4*%
%TO.N,GND*%
X96380000Y-116165800D03*
%TO.P,J1,5,Pin_5*%
%TO.N,Net-(IC16-Pad6)*%
X98920000Y-118705800D03*
%TO.P,J1,6,Pin_6*%
%TO.N,GND*%
X98920000Y-116165800D03*
%TO.P,J1,7,Pin_7*%
%TO.N,Net-(IC16-Pad9)*%
X101460000Y-118705800D03*
%TO.P,J1,8,Pin_8*%
%TO.N,GND*%
X101460000Y-116165800D03*
%TO.P,J1,9,Pin_9*%
%TO.N,Net-(IC16-Pad12)*%
X104000000Y-118705800D03*
%TO.P,J1,10,Pin_10*%
%TO.N,GND*%
X104000000Y-116165800D03*
%TO.P,J1,11,Pin_11*%
%TO.N,Net-(IC16-Pad15)*%
X106540000Y-118705800D03*
%TO.P,J1,12,Pin_12*%
%TO.N,GND*%
X106540000Y-116165800D03*
%TO.P,J1,13,Pin_13*%
%TO.N,Net-(IC16-Pad16)*%
X109080000Y-118705800D03*
%TO.P,J1,14,Pin_14*%
%TO.N,GND*%
X109080000Y-116165800D03*
%TO.P,J1,15,Pin_15*%
%TO.N,Net-(IC16-Pad2)*%
X111620000Y-118705800D03*
%TO.P,J1,16,Pin_16*%
%TO.N,GND*%
X111620000Y-116165800D03*
%TO.P,J1,17,Pin_17*%
%TO.N,Net-(IC16-Pad19)*%
X114160000Y-118705800D03*
%TO.P,J1,18,Pin_18*%
%TO.N,GND*%
X114160000Y-116165800D03*
%TO.P,J1,19,Pin_19*%
%TO.N,Net-(IC5-Pad4)*%
X116700000Y-118705800D03*
%TO.P,J1,20,Pin_20*%
%TO.N,GND*%
X116700000Y-116165800D03*
%TO.P,J1,21,Pin_21*%
%TO.N,unconnected-(J1-Pad21)*%
X119240000Y-118705800D03*
%TO.P,J1,22,Pin_22*%
%TO.N,unconnected-(J1-Pad22)*%
X119240000Y-116165800D03*
%TO.P,J1,23,Pin_23*%
%TO.N,unconnected-(J1-Pad23)*%
X121780000Y-118705800D03*
%TO.P,J1,24,Pin_24*%
%TO.N,unconnected-(J1-Pad24)*%
X121780000Y-116165800D03*
%TO.P,J1,25,Pin_25*%
%TO.N,unconnected-(J1-Pad25)*%
X124320000Y-118705800D03*
%TO.P,J1,26,Pin_26*%
%TO.N,unconnected-(J1-Pad26)*%
X124320000Y-116165800D03*
%TD*%
D10*
%TO.P,C12,1*%
%TO.N,VCC*%
X127500000Y-155804806D03*
%TO.P,C12,2*%
%TO.N,GND*%
X127500000Y-150804806D03*
%TD*%
D12*
%TO.P,C5,1*%
%TO.N,Net-(C5-Pad1)*%
X211332080Y-121211408D03*
D10*
%TO.P,C5,2*%
%TO.N,GND*%
X211332080Y-126211408D03*
%TD*%
D21*
%TO.P,C3,1*%
%TO.N,VCC*%
X187972786Y-181896677D03*
D22*
%TO.P,C3,2*%
%TO.N,GND*%
X205972786Y-181896677D03*
%TD*%
D10*
%TO.P,R8,1*%
%TO.N,Net-(Q1-Pad2)*%
X98572877Y-157070253D03*
D11*
%TO.P,R8,2*%
%TO.N,GND*%
X98572877Y-149450253D03*
%TD*%
D10*
%TO.P,C18,1*%
%TO.N,VCC*%
X158762958Y-172823188D03*
%TO.P,C18,2*%
%TO.N,GND*%
X158762958Y-167823188D03*
%TD*%
D23*
%TO.N,Net-(C5-Pad1)*%
X179754678Y-122977449D03*
X189154155Y-122881317D03*
%TO.N,GND*%
X132738604Y-135712350D03*
X219676362Y-136012786D03*
X268223807Y-133556834D03*
X347947421Y-135265942D03*
X200549116Y-110513394D03*
X278290506Y-177703500D03*
X268347415Y-198625517D03*
X167119007Y-110513394D03*
X194286606Y-110513394D03*
X266905031Y-111999731D03*
X347897541Y-159937541D03*
X203097873Y-169009534D03*
X273389793Y-142935176D03*
%TO.N,VCC*%
X69563768Y-161544310D03*
X253004039Y-188327985D03*
X130181874Y-130135404D03*
X174141788Y-130155805D03*
X228820455Y-190652208D03*
X113492588Y-154639495D03*
X215286308Y-138524376D03*
X68797856Y-148742834D03*
X341378860Y-162227703D03*
X83375931Y-127811294D03*
X98464596Y-130135404D03*
X254214070Y-190657176D03*
X307098343Y-183707344D03*
X69563768Y-171631159D03*
X98468609Y-138140665D03*
%TO.N,/A13*%
X223521106Y-176501716D03*
%TO.N,/A11*%
X332183537Y-158612028D03*
X222281070Y-193334100D03*
X279299546Y-193331559D03*
X337208344Y-158653664D03*
%TO.N,/A10*%
X333332708Y-171539314D03*
X278302640Y-192588582D03*
X221194070Y-192566230D03*
%TO.N,Net-(IC1-Pad8)*%
X198553189Y-173920398D03*
X196495970Y-183996097D03*
X153953900Y-180133847D03*
%TO.N,/A12*%
X223734070Y-178212110D03*
%TO.N,/A14*%
X89398100Y-179025819D03*
X199896331Y-187482852D03*
X199920305Y-174729115D03*
%TO.N,Net-(IC2-Pad1)*%
X209337449Y-148385460D03*
X209337449Y-150631204D03*
X232463234Y-148186265D03*
X232845550Y-139717435D03*
X256582619Y-144645039D03*
%TO.N,/R{slash}W*%
X243976427Y-162423573D03*
X276257401Y-160114029D03*
X254750000Y-160114029D03*
X288065952Y-147191824D03*
X337164000Y-147157099D03*
%TO.N,/PHI0*%
X325791362Y-157744291D03*
X108440000Y-160408805D03*
X141255667Y-164306227D03*
X141071833Y-162310994D03*
X195091437Y-159337564D03*
X249160273Y-189533137D03*
X314970149Y-166877031D03*
X319134239Y-162689215D03*
%TO.N,/RD*%
X196239499Y-121849752D03*
X245693347Y-147279425D03*
X235439291Y-125279808D03*
X236801162Y-145188559D03*
X235462593Y-117979003D03*
X244659931Y-128730662D03*
%TO.N,/WR*%
X194994678Y-122156817D03*
X121030000Y-163877779D03*
X113410000Y-163877779D03*
X133698217Y-166230067D03*
X209005586Y-157696179D03*
X146819987Y-118242960D03*
%TO.N,Net-(IC13-Pad12)*%
X173319784Y-161149547D03*
X118490000Y-177427184D03*
X86209010Y-177427184D03*
X173200658Y-175957475D03*
%TO.N,/A2*%
X216125327Y-184512230D03*
X252694170Y-177409501D03*
%TO.N,/A0*%
X253722188Y-172797791D03*
X211224067Y-163994608D03*
X151699029Y-164212009D03*
X218657417Y-181949008D03*
%TO.N,/A9*%
X318570960Y-175353396D03*
X280068682Y-194247416D03*
X150159043Y-178178112D03*
X220006075Y-194247416D03*
%TO.N,/A8*%
X151606864Y-179217687D03*
X281208010Y-195123139D03*
X316586278Y-176614252D03*
X208494070Y-194073251D03*
%TO.N,Net-(IC4-Pad5)*%
X240818195Y-166011238D03*
%TO.N,/NPFD*%
X143822841Y-177831004D03*
X309224000Y-141687406D03*
X218634658Y-147300590D03*
X210285934Y-158590855D03*
X193660537Y-163466096D03*
X179603899Y-176417249D03*
X207530227Y-163466096D03*
X207530227Y-158501989D03*
%TO.N,/NPFE*%
X228062936Y-122457064D03*
X248598000Y-131314925D03*
X140134080Y-124025920D03*
X228012927Y-133388960D03*
%TO.N,/FC73*%
X116893406Y-175909409D03*
X137593774Y-176667781D03*
%TO.N,/FC72*%
X121030000Y-175812588D03*
X140121982Y-175796215D03*
%TO.N,/FC71*%
X105900000Y-162186147D03*
X115950000Y-162207430D03*
X134871825Y-162205070D03*
%TO.N,/FC70*%
X158377017Y-121022983D03*
X146333900Y-161637407D03*
X193664856Y-122156817D03*
X166778146Y-161653199D03*
%TO.N,/A1*%
X200974282Y-172953741D03*
X200974282Y-181648017D03*
X217291652Y-183351292D03*
X255691355Y-172567790D03*
X209738587Y-172837157D03*
%TO.N,Net-(IC3-Pad15)*%
X80399542Y-175904889D03*
X94573970Y-175904889D03*
%TO.N,Net-(IC10-Pad11)*%
X184035674Y-158789001D03*
%TO.N,Net-(IC11-Pad18)*%
X157857035Y-141938182D03*
%TO.N,Net-(IC10-Pad12)*%
X150570000Y-159120941D03*
X181021519Y-159231667D03*
%TO.N,/A6*%
X86891659Y-126274589D03*
X211067820Y-189156306D03*
X72043932Y-149594077D03*
X72055330Y-139783037D03*
X72038592Y-134449768D03*
%TO.N,/A4*%
X70158682Y-150821318D03*
X70166173Y-140494653D03*
X213562105Y-187002810D03*
X73247729Y-132250900D03*
%TO.N,Net-(IC5-Pad12)*%
X223162471Y-164146173D03*
X197666026Y-165085000D03*
%TO.N,Net-(IC6-Pad3)*%
X168374019Y-120003302D03*
X232170604Y-118007003D03*
%TO.N,/D0*%
X168599757Y-127542454D03*
X91784640Y-146773463D03*
X208500265Y-177094462D03*
X233890152Y-177383951D03*
X114855000Y-146765000D03*
X115980000Y-128258162D03*
X300151000Y-121123826D03*
%TO.N,/D1*%
X205274783Y-146914904D03*
X188315137Y-146714892D03*
X167246942Y-126615472D03*
X294019249Y-116472404D03*
X235146899Y-178559782D03*
X90117045Y-159147948D03*
X96210778Y-147724147D03*
X291564070Y-157800724D03*
X206679029Y-177094462D03*
X109052813Y-147739732D03*
X108370836Y-128233690D03*
%TO.N,Net-(IC5-Pad4)*%
X164049372Y-125036790D03*
X143427333Y-124118198D03*
%TO.N,/D2*%
X236434070Y-179570054D03*
X244590000Y-114099536D03*
X168849137Y-131585398D03*
X233869567Y-146102739D03*
X104405000Y-142409607D03*
X182387274Y-146102739D03*
X296479796Y-115718240D03*
%TO.N,/D3*%
X233962963Y-145005327D03*
X179871057Y-145008430D03*
X237521070Y-180703063D03*
X284037180Y-169054177D03*
X74594391Y-153334391D03*
X242991272Y-129742107D03*
X82995057Y-153365561D03*
X322892518Y-161424054D03*
X82995057Y-147645868D03*
%TO.N,Net-(IC7-Pad1)*%
X193977804Y-167837604D03*
X181685844Y-177326832D03*
X90523100Y-178189598D03*
X209955924Y-165828478D03*
%TO.N,Net-(IC10-Pad10)*%
X138122644Y-161342331D03*
X89398100Y-162231741D03*
%TO.N,Net-(IC7-Pad5)*%
X81778100Y-162134956D03*
X189995537Y-158719180D03*
%TO.N,/OE3*%
X95033031Y-160453883D03*
X83081854Y-162150909D03*
X95203598Y-114212109D03*
X322686314Y-114731517D03*
%TO.N,Net-(IC7-Pad11)*%
X84318100Y-177337848D03*
X176240597Y-182325244D03*
%TO.N,/A7*%
X183645434Y-136893638D03*
X209581070Y-191046308D03*
X204584979Y-149797352D03*
X88075412Y-136893638D03*
%TO.N,/NPFC*%
X154567022Y-146834032D03*
X264288199Y-130320527D03*
X217500744Y-136220744D03*
X185121052Y-147021052D03*
X211712664Y-149502754D03*
X264265489Y-140781991D03*
X311764000Y-140831810D03*
X95021716Y-146110392D03*
%TO.N,Net-(IC10-Pad9)*%
X216825619Y-146487067D03*
X169950493Y-160034982D03*
X169837264Y-157137264D03*
%TO.N,/OE4*%
X166787619Y-147561507D03*
X197152751Y-124667245D03*
X204963455Y-116183619D03*
X164971233Y-128266954D03*
%TO.N,/OE2*%
X343697000Y-117622172D03*
X238022221Y-112703585D03*
X233420316Y-117286015D03*
X142368069Y-122048069D03*
%TO.N,Net-(IC10-Pad13)*%
X110847425Y-163236675D03*
X138962754Y-162769125D03*
%TO.N,/D7*%
X165992337Y-140592337D03*
X197169505Y-131077068D03*
X242601070Y-177610067D03*
X220118040Y-132941960D03*
X166013251Y-133219638D03*
X148030000Y-142678396D03*
X249863734Y-130631053D03*
X118483151Y-142894376D03*
X282683689Y-168481444D03*
%TO.N,/D6*%
X274662455Y-182892844D03*
X154254175Y-126695582D03*
X238558454Y-143462703D03*
X152015473Y-142827471D03*
X118534026Y-127363164D03*
X241543615Y-173975794D03*
X274662455Y-166176783D03*
%TO.N,/D5*%
X116010569Y-143837941D03*
X240264777Y-175248454D03*
X171501291Y-143555827D03*
X272757944Y-166877259D03*
X240052802Y-161231775D03*
X272757944Y-181991968D03*
X176125493Y-161674760D03*
X140410000Y-143846196D03*
X327178586Y-161454200D03*
X327004000Y-157720230D03*
%TO.N,/D4*%
X271687053Y-180917905D03*
X167503293Y-132338430D03*
X177280176Y-161109171D03*
X324480263Y-157758231D03*
X139131740Y-144656195D03*
X238565846Y-160493544D03*
X93511033Y-142596683D03*
X238974070Y-176304518D03*
X249765632Y-171310883D03*
X271686018Y-167806278D03*
X93479863Y-147708562D03*
X324433565Y-161430612D03*
%TO.N,Net-(IC4-Pad6)*%
X193285162Y-159193829D03*
X210173942Y-141332089D03*
X210219537Y-156807077D03*
X235322770Y-141332089D03*
%TO.N,/RST*%
X173666436Y-142738203D03*
X184915537Y-162140782D03*
X140011803Y-159706987D03*
X124582951Y-147442951D03*
X240251901Y-148007155D03*
X138151240Y-148495428D03*
X243966278Y-161246703D03*
X174457342Y-162399260D03*
X235440750Y-161986095D03*
X235440750Y-149080750D03*
X244595164Y-142995164D03*
%TO.N,Net-(IC12-Pad12)*%
X113520000Y-158859011D03*
%TO.N,/ROMSTB*%
X105365000Y-114086227D03*
X298712212Y-114849981D03*
%TO.N,/STAT*%
X145490000Y-146463005D03*
X117489457Y-146988832D03*
%TO.N,/A3*%
X265709518Y-131553314D03*
X214819700Y-185735391D03*
X256888686Y-174759624D03*
%TO.N,Net-(IC15-Pad5)*%
X186511643Y-122252949D03*
%TO.N,Net-(IC15-Pad9)*%
X178120439Y-122993471D03*
%TO.N,Net-(IC16-Pad5)*%
X113353664Y-124192967D03*
%TO.N,Net-(IC16-Pad6)*%
X108351018Y-122651989D03*
X110900000Y-126140000D03*
%TO.N,-5V*%
X324464000Y-132736000D03*
X270842114Y-132780475D03*
%TO.N,/SND0*%
X262693248Y-157970332D03*
X257613186Y-163245500D03*
X250587070Y-163432930D03*
%TO.N,/16MHZ*%
X251674070Y-164893331D03*
X272149669Y-164881692D03*
X287377622Y-151339163D03*
%TO.N,/NMI*%
X246594070Y-164065197D03*
X290297529Y-145069954D03*
X279242379Y-160979757D03*
X316844000Y-144847594D03*
%TO.N,/IRQ*%
X314304000Y-145940170D03*
X289258103Y-146024001D03*
X273663008Y-178278150D03*
X245141070Y-191801070D03*
%TO.N,/NRDY*%
X233920233Y-159784138D03*
%TO.N,Net-(J1-Pad1)*%
X97079593Y-131772218D03*
%TO.N,Net-(R4-Pad2)*%
X296524000Y-131214433D03*
%TO.N,Net-(IC13-Pad3)*%
X135297105Y-147455816D03*
X142006106Y-147502515D03*
X118490000Y-159130000D03*
X143295414Y-144280327D03*
X135359370Y-159153407D03*
%TO.N,/ROMQA*%
X231503591Y-137160000D03*
X211062965Y-146218166D03*
X306684000Y-137184915D03*
X190002699Y-146284044D03*
X217183170Y-137168453D03*
%TO.N,Net-(IC8-Pad11)*%
X216149000Y-147461971D03*
%TO.N,Net-(IC17-Pad4)*%
X80403140Y-126000909D03*
X84337003Y-125596844D03*
%TO.N,Net-(IC19-Pad8)*%
X72206302Y-132971889D03*
%TO.N,Net-(IC18-Pad4)*%
X79608982Y-143281937D03*
%TO.N,Net-(IC18-Pad10)*%
X75441422Y-147534873D03*
%TO.N,Net-(IC18-Pad14)*%
X73548886Y-141355974D03*
%TO.N,/A5*%
X71130681Y-151280684D03*
X212435021Y-188024093D03*
%TO.N,Net-(IC10-Pad4)*%
X206381398Y-116231685D03*
X148013014Y-146085997D03*
X164887695Y-146085997D03*
X197296948Y-127431033D03*
X163684137Y-129001184D03*
%TO.N,Net-(IC7-Pad12)*%
X203832347Y-155835457D03*
X88143742Y-179895650D03*
X201802899Y-188883412D03*
%TD*%
D24*
%TO.N,Net-(C5-Pad1)*%
X189154155Y-122881317D02*
X189363708Y-122671764D01*
X179754678Y-122977449D02*
X177295537Y-125436590D01*
D25*
X211332080Y-121211408D02*
X215674815Y-121211408D01*
D24*
X177295537Y-125436590D02*
X177295537Y-133360000D01*
X189363708Y-122671764D02*
X189363708Y-113360000D01*
D25*
X215674815Y-121211408D02*
X216689981Y-120196242D01*
D24*
%TO.N,GND*%
X200473708Y-110588802D02*
X200549116Y-110513394D01*
D25*
X130267729Y-164692203D02*
X127264699Y-167695233D01*
X219676362Y-136012786D02*
X219676362Y-140052195D01*
X291444000Y-122789300D02*
X291444000Y-127640700D01*
X278287089Y-177700083D02*
X278290506Y-177703500D01*
D24*
X161680022Y-150799828D02*
X161518474Y-150961376D01*
D25*
X291444000Y-139044000D02*
X291444000Y-142928158D01*
X216992927Y-134960351D02*
X216966418Y-134960351D01*
X219676362Y-140052195D02*
X213609000Y-146119557D01*
X268223807Y-133556834D02*
X268223807Y-124638482D01*
X131319258Y-121120344D02*
X122011191Y-121120344D01*
X276254252Y-176774407D02*
X279185600Y-173843059D01*
X275931094Y-198625517D02*
X275954443Y-198648866D01*
X256754070Y-196556891D02*
X256754070Y-200556891D01*
D24*
X98573280Y-143706587D02*
X98573280Y-148872044D01*
D25*
X291444000Y-149138000D02*
X291444000Y-153989400D01*
X205954070Y-196556891D02*
X205954070Y-181915393D01*
X129086291Y-134274238D02*
X130267729Y-135455676D01*
X217808427Y-132687755D02*
X217808427Y-134144851D01*
X273389793Y-142935176D02*
X291436982Y-142935176D01*
X132702003Y-122503089D02*
X131319258Y-121120344D01*
D24*
X203110917Y-169022578D02*
X203097873Y-169009534D01*
X161680022Y-137036983D02*
X161585756Y-136942717D01*
D25*
X198785989Y-150767660D02*
X202025989Y-154007660D01*
X279185600Y-164020299D02*
X279185600Y-165095000D01*
X268347415Y-198625517D02*
X275931094Y-198625517D01*
X268223807Y-124638482D02*
X261117083Y-117531758D01*
X276254252Y-177700083D02*
X276254252Y-176774407D01*
X122011191Y-121120344D02*
X120002003Y-123129532D01*
X261378318Y-117531758D02*
X261117083Y-117531758D01*
X279185600Y-173843059D02*
X279185600Y-165095000D01*
X205954070Y-200556891D02*
X205954070Y-196556891D01*
X285261438Y-111710895D02*
X267193867Y-111710895D01*
X291444000Y-127640700D02*
X291444000Y-139044000D01*
X205972786Y-181896677D02*
X203110917Y-179034808D01*
X132702003Y-135675749D02*
X132702003Y-123129532D01*
X289216499Y-153989400D02*
X279185600Y-164020299D01*
X130267729Y-148037077D02*
X127500000Y-150804806D01*
X161518474Y-150961376D02*
X159061467Y-150961376D01*
X161680022Y-164906124D02*
X161680022Y-150799828D01*
X161680022Y-150799828D02*
X161680022Y-137036983D01*
X266905031Y-111999731D02*
X262541684Y-116363078D01*
X262541684Y-116363078D02*
X262541684Y-116368392D01*
D24*
X161585756Y-136942717D02*
X161585756Y-136926261D01*
D25*
X275954443Y-198648866D02*
X276254252Y-198349057D01*
X214871432Y-137055337D02*
X200934524Y-137055337D01*
X291436982Y-142935176D02*
X291444000Y-142928158D01*
X200473708Y-115900000D02*
X200473708Y-110588802D01*
X130267729Y-148037077D02*
X130267729Y-164692203D01*
X202025989Y-154007660D02*
X202025989Y-163820662D01*
X161585756Y-136926261D02*
X159092889Y-134433394D01*
X132738604Y-135712350D02*
X132702003Y-135675749D01*
X193518708Y-116200000D02*
X194321827Y-115396881D01*
X262541684Y-116368392D02*
X261378318Y-117531758D01*
X167173708Y-115900000D02*
X167173708Y-110568095D01*
X158762958Y-167823188D02*
X161680022Y-164906124D01*
X217808427Y-134144851D02*
X219676362Y-136012786D01*
D24*
X167173708Y-110568095D02*
X167119007Y-110513394D01*
D25*
X291444000Y-153989400D02*
X289216499Y-153989400D01*
X127500000Y-134274238D02*
X129086291Y-134274238D01*
X213609000Y-146119557D02*
X213609000Y-149500000D01*
X259923292Y-150715704D02*
X259923292Y-145153587D01*
X291444000Y-117893457D02*
X285261438Y-111710895D01*
X202025989Y-163820662D02*
X198524324Y-167322327D01*
X216966418Y-134960351D02*
X214871432Y-137055337D01*
X194321827Y-115396881D02*
X194321827Y-110548615D01*
X267193867Y-111710895D02*
X266905031Y-111999731D01*
X203110917Y-179034808D02*
X203110917Y-169022578D01*
X276254252Y-198349057D02*
X276254252Y-183710447D01*
X130267729Y-135455676D02*
X130267729Y-148037077D01*
X200934524Y-137055337D02*
X198839538Y-134960351D01*
X132702003Y-123129532D02*
X132702003Y-122503089D01*
X261117083Y-117531758D02*
X259730107Y-117531758D01*
X217808427Y-134144851D02*
X216992927Y-134960351D01*
X276254252Y-177700083D02*
X278287089Y-177700083D01*
X291444000Y-142928158D02*
X291444000Y-149138000D01*
X291444000Y-122789300D02*
X291444000Y-117893457D01*
X347947421Y-135265942D02*
X347947421Y-159887661D01*
X276254252Y-183710447D02*
X276254252Y-177700083D01*
X194321827Y-110548615D02*
X194286606Y-110513394D01*
X211332080Y-126211408D02*
X217808427Y-132687755D01*
D24*
%TO.N,Net-(D1-Pad1)*%
X221209600Y-127816242D02*
X225568115Y-127816242D01*
D25*
%TO.N,VCC*%
X125625126Y-156641972D02*
X126462292Y-155804806D01*
X203414070Y-196556891D02*
X187960672Y-196556891D01*
X309665600Y-180335000D02*
X312205600Y-180335000D01*
X125682951Y-156584147D02*
X125682951Y-141091287D01*
X157072333Y-153972242D02*
X157072333Y-153495246D01*
X83192160Y-127811294D02*
X81818140Y-126437274D01*
X203414070Y-200556891D02*
X203414070Y-196556891D01*
D24*
X344460953Y-162227703D02*
X344784000Y-161904656D01*
D25*
X307098343Y-183707344D02*
X307098343Y-180362257D01*
X344784000Y-153989400D02*
X344784000Y-161904656D01*
X344784000Y-149138000D02*
X344784000Y-153989400D01*
X338943863Y-176068242D02*
X338943863Y-170930276D01*
X344784000Y-122789300D02*
X344784000Y-127640700D01*
X228849000Y-166210000D02*
X228849000Y-165027240D01*
X195075537Y-173830000D02*
X195075537Y-176596869D01*
X327273186Y-173970733D02*
X329257868Y-175955415D01*
X127264699Y-172695233D02*
X125625126Y-171055660D01*
X69563768Y-161544310D02*
X69563768Y-171631159D01*
X174141788Y-130155805D02*
X174128708Y-130142725D01*
X259700057Y-139636628D02*
X261485401Y-137851284D01*
X254214070Y-190657176D02*
X254214070Y-189538016D01*
X81818140Y-126437274D02*
X81818140Y-122045909D01*
X83375931Y-127811294D02*
X83192160Y-127811294D01*
X341969950Y-170930276D02*
X344891701Y-168008525D01*
X228820455Y-190652208D02*
X228849000Y-190623663D01*
X159061467Y-155961376D02*
X157072333Y-153972242D01*
X359391547Y-168008525D02*
X359467800Y-168084778D01*
X315808735Y-180438458D02*
X322276459Y-173970733D01*
D24*
X344784000Y-167900824D02*
X344891701Y-168008525D01*
D25*
X338943863Y-170930276D02*
X341969950Y-170930276D01*
D24*
X130181874Y-130135404D02*
X130162003Y-130115533D01*
D25*
X113520000Y-149500000D02*
X113520000Y-154612083D01*
X157037419Y-159543004D02*
X157037419Y-171097649D01*
X262272004Y-137851284D02*
X262272004Y-134193272D01*
X341378860Y-162227703D02*
X344460953Y-162227703D01*
X98464596Y-138136652D02*
X98468609Y-138140665D01*
X189775729Y-181896677D02*
X187972786Y-181896677D01*
X125682951Y-141091287D02*
X127500000Y-139274238D01*
X261485401Y-137851284D02*
X262272004Y-137851284D01*
X91938100Y-157125745D02*
X91938100Y-161050114D01*
X157150000Y-145389253D02*
X159092889Y-143446364D01*
D26*
X68706901Y-148651879D02*
X58012586Y-148651879D01*
D25*
X93979999Y-163092013D02*
X95796182Y-163092013D01*
X98464596Y-130135404D02*
X96685751Y-130135404D01*
X254214070Y-196556891D02*
X254214070Y-200556891D01*
X213850333Y-139960351D02*
X215286308Y-138524376D01*
X312205600Y-180335000D02*
X315705277Y-180335000D01*
X254214070Y-196556891D02*
X254214070Y-191759268D01*
X307125600Y-180335000D02*
X309665600Y-180335000D01*
X96685751Y-130135404D02*
X95208982Y-128658635D01*
X157037419Y-171097649D02*
X158762958Y-172823188D01*
X329327916Y-176072160D02*
X338947781Y-176072160D01*
X262268369Y-126597985D02*
X259730107Y-124059723D01*
X228849000Y-190623663D02*
X228849000Y-173830000D01*
X228849000Y-165027240D02*
X232269971Y-161606269D01*
X338947781Y-176072160D02*
X338943863Y-176068242D01*
X329257868Y-175955415D02*
X329257868Y-176002112D01*
X157150000Y-153417579D02*
X157150000Y-145389253D01*
X322276459Y-173970733D02*
X327273186Y-173970733D01*
X195075537Y-176596869D02*
X189775729Y-181896677D01*
X329257868Y-176002112D02*
X329327916Y-176072160D01*
X157072333Y-153495246D02*
X157150000Y-153417579D01*
X198839538Y-139960351D02*
X213850333Y-139960351D01*
X125625126Y-156641972D02*
X125682951Y-156584147D01*
X344891701Y-168008525D02*
X359391547Y-168008525D01*
X130162003Y-130115533D02*
X130162003Y-123129532D01*
X228849000Y-173830000D02*
X228849000Y-166210000D01*
X187972786Y-196544777D02*
X187972786Y-181896677D01*
X315705277Y-180335000D02*
X315808735Y-180438458D01*
X262268369Y-134189637D02*
X262268369Y-126597985D01*
D24*
X187960672Y-196556891D02*
X187972786Y-196544777D01*
X113520000Y-154612083D02*
X113492588Y-154639495D01*
D25*
X159092889Y-143446364D02*
X159092889Y-139433394D01*
X125625126Y-171055660D02*
X125625126Y-156641972D01*
X359467800Y-168084778D02*
X359467800Y-174039801D01*
X344784000Y-161904656D02*
X344784000Y-167900824D01*
X232269971Y-161606269D02*
X232218715Y-161555013D01*
X254214070Y-189538016D02*
X253004039Y-188327985D01*
X126462292Y-155804806D02*
X127500000Y-155804806D01*
X174128708Y-130142725D02*
X174128708Y-116200000D01*
X307098343Y-180362257D02*
X307125600Y-180335000D01*
X91938100Y-161050114D02*
X93979999Y-163092013D01*
X254214070Y-191759268D02*
X254214070Y-190657176D01*
D24*
X68797856Y-148742834D02*
X68706901Y-148651879D01*
D25*
X344784000Y-127640700D02*
X344784000Y-149138000D01*
X159061467Y-157518956D02*
X157037419Y-159543004D01*
X232218715Y-161555013D02*
X232218715Y-155856421D01*
X159061467Y-155961376D02*
X159061467Y-157518956D01*
X98464596Y-130135404D02*
X98464596Y-138136652D01*
X259730107Y-124059723D02*
X259730107Y-122531758D01*
X262272004Y-134193272D02*
X262268369Y-134189637D01*
D24*
%TO.N,/A15*%
X218733594Y-151529615D02*
X218689000Y-151485021D01*
X226274070Y-200556891D02*
X227361070Y-199469891D01*
X227361070Y-175111461D02*
X227434000Y-175038531D01*
X227434000Y-175038531D02*
X227434000Y-169875000D01*
X227361070Y-199469891D02*
X227361070Y-175111461D01*
X216149000Y-157120000D02*
X216149000Y-154841648D01*
X218689000Y-151485021D02*
X218689000Y-149500000D01*
X223769000Y-166210000D02*
X219364805Y-161805805D01*
X219364805Y-161805805D02*
X216825803Y-161805805D01*
X227434000Y-169875000D02*
X223769000Y-166210000D01*
X216825803Y-161805805D02*
X216149000Y-161129002D01*
X216149000Y-154841648D02*
X218733594Y-152257054D01*
X216149000Y-161129002D02*
X216149000Y-157120000D01*
X218733594Y-152257054D02*
X218733594Y-151529615D01*
%TO.N,/A13*%
X330997000Y-128090951D02*
X330997000Y-123876300D01*
X224821070Y-199469891D02*
X224821070Y-179101070D01*
X223734070Y-200556891D02*
X224821070Y-199469891D01*
X332084000Y-149138000D02*
X332084000Y-129177951D01*
X332084000Y-129177951D02*
X330997000Y-128090951D01*
X222393033Y-175373643D02*
X222393033Y-168975965D01*
X222393033Y-168975965D02*
X221229000Y-167811932D01*
X223521106Y-176501716D02*
X224821070Y-177801680D01*
X223521106Y-176501716D02*
X222393033Y-175373643D01*
X221229000Y-167811932D02*
X221229000Y-166210000D01*
X224821070Y-177801680D02*
X224821070Y-179101070D01*
X330997000Y-123876300D02*
X332084000Y-122789300D01*
%TO.N,/A11*%
X338251000Y-128727700D02*
X337164000Y-127640700D01*
X356286868Y-181891169D02*
X356131207Y-182046830D01*
X329545078Y-167998402D02*
X330259786Y-167283694D01*
X222281070Y-199469891D02*
X221194070Y-200556891D01*
X300920600Y-182500598D02*
X300920600Y-179581949D01*
X356286868Y-174030276D02*
X356286868Y-181891169D01*
X307728771Y-172743349D02*
X318153873Y-172743349D01*
X222281070Y-193334100D02*
X222281070Y-178390471D01*
X338251000Y-152902400D02*
X338251000Y-128727700D01*
X218689000Y-167630200D02*
X218689000Y-166210000D01*
X300920600Y-179581949D02*
X303708523Y-176794026D01*
X303708523Y-176794026D02*
X303708523Y-176763597D01*
X299622416Y-183798782D02*
X300920600Y-182500598D01*
X356131207Y-182046830D02*
X356126731Y-182042354D01*
X222281070Y-178390471D02*
X219964717Y-176074118D01*
X279299546Y-193331559D02*
X279406918Y-193331559D01*
X219964717Y-176074118D02*
X219964717Y-168999315D01*
X337164000Y-158609320D02*
X337164000Y-153989400D01*
X337164000Y-153989400D02*
X338251000Y-152902400D01*
X318153873Y-172743349D02*
X322898820Y-167998402D01*
X322898820Y-167998402D02*
X329545078Y-167998402D01*
X337208344Y-158653664D02*
X337164000Y-158609320D01*
X279406918Y-193331559D02*
X283335889Y-189402588D01*
X220011416Y-168952616D02*
X218689000Y-167630200D01*
X330259786Y-167283694D02*
X330259786Y-160535779D01*
X356268961Y-174012369D02*
X356286868Y-174030276D01*
X219964717Y-168999315D02*
X220011416Y-168952616D01*
X303708523Y-176763597D02*
X307728771Y-172743349D01*
X222281070Y-193334100D02*
X222281070Y-199469891D01*
X283335889Y-185620019D02*
X285157126Y-183798782D01*
X283335889Y-189402588D02*
X283335889Y-185620019D01*
X353060000Y-174012369D02*
X356268961Y-174012369D01*
X356126731Y-182042354D02*
X352992147Y-182042354D01*
X285157126Y-183798782D02*
X299622416Y-183798782D01*
X330259786Y-160535779D02*
X332183537Y-158612028D01*
%TO.N,/A10*%
X221194070Y-196556891D02*
X221194070Y-192566230D01*
X216135450Y-167878553D02*
X216149000Y-167865003D01*
X291779681Y-182981561D02*
X292524262Y-182236980D01*
X216149000Y-167865003D02*
X216149000Y-166210000D01*
X336064564Y-160331703D02*
X339006561Y-160331703D01*
X333332708Y-171539314D02*
X333332708Y-163063559D01*
X278667688Y-192588582D02*
X282647555Y-188608715D01*
X343331000Y-152902400D02*
X343331000Y-128727700D01*
X278302640Y-192588582D02*
X278667688Y-192588582D01*
X217396306Y-169139409D02*
X216135450Y-167878553D01*
X343331000Y-128727700D02*
X342244000Y-127640700D01*
X342244000Y-157094264D02*
X342244000Y-153989400D01*
X284889077Y-182981561D02*
X291779681Y-182981561D01*
X217396306Y-175326944D02*
X217396306Y-169139409D01*
X282647555Y-188608715D02*
X282647555Y-185223083D01*
X282647555Y-185223083D02*
X284889077Y-182981561D01*
X333332708Y-163063559D02*
X336064564Y-160331703D01*
X221194070Y-192566230D02*
X221194070Y-179124708D01*
X221194070Y-179124708D02*
X217396306Y-175326944D01*
X292524262Y-182236980D02*
X292524262Y-182236338D01*
X292524262Y-182236338D02*
X294425600Y-180335000D01*
X342244000Y-153989400D02*
X343331000Y-152902400D01*
X339006561Y-160331703D02*
X342244000Y-157094264D01*
%TO.N,Net-(IC1-Pad8)*%
X196495970Y-175977617D02*
X198553189Y-173920398D01*
X153953900Y-167625000D02*
X153953900Y-180133847D01*
X155368900Y-166210000D02*
X153953900Y-167625000D01*
X196495970Y-183996097D02*
X196495970Y-175977617D01*
%TO.N,/A12*%
X328407784Y-123925516D02*
X329544000Y-122789300D01*
X328240626Y-153401675D02*
X329544000Y-152098301D01*
X314890139Y-159870461D02*
X326519508Y-159870461D01*
X223734070Y-178212110D02*
X223770635Y-178175545D01*
X223734070Y-196556891D02*
X223734070Y-178212110D01*
X221229000Y-175533660D02*
X221229000Y-173830000D01*
X328407784Y-128041735D02*
X328407784Y-123925516D01*
X223770635Y-178175545D02*
X221178875Y-175583785D01*
X329544000Y-149138000D02*
X329544000Y-129177951D01*
X309665600Y-165095000D02*
X314890139Y-159870461D01*
X328240626Y-158149343D02*
X328240626Y-153401675D01*
X221178875Y-175583785D02*
X221229000Y-175533660D01*
X329544000Y-152098301D02*
X329544000Y-149138000D01*
X329544000Y-129177951D02*
X328407784Y-128041735D01*
X326519508Y-159870461D02*
X328240626Y-158149343D01*
%TO.N,/A14*%
X89398100Y-179025819D02*
X89398100Y-173830000D01*
X199896331Y-174753089D02*
X199920305Y-174729115D01*
X226274070Y-196556891D02*
X226274070Y-191770808D01*
X199896331Y-187482852D02*
X199896331Y-174753089D01*
X226274070Y-178014070D02*
X223769000Y-175509000D01*
X223769000Y-175509000D02*
X223769000Y-173830000D01*
X226274070Y-191770808D02*
X226274070Y-178014070D01*
%TO.N,Net-(IC2-Pad1)*%
X232845550Y-139717435D02*
X232455439Y-140107546D01*
X232455439Y-140107546D02*
X232455439Y-148178470D01*
X256603928Y-144666348D02*
X256603928Y-146775989D01*
X256603928Y-146775989D02*
X256165000Y-147214917D01*
X209337449Y-148385460D02*
X209337449Y-150631204D01*
X256165000Y-147214917D02*
X256165000Y-149500000D01*
X256582619Y-144645039D02*
X256603928Y-144666348D01*
X232455439Y-148178470D02*
X232463234Y-148186265D01*
%TO.N,/R{slash}W*%
X288065952Y-149147318D02*
X288065952Y-147191824D01*
X254750000Y-160114029D02*
X254750000Y-153132690D01*
X336066318Y-128080269D02*
X336066318Y-123886982D01*
X243976427Y-162423573D02*
X244054070Y-162501216D01*
X337164000Y-149138000D02*
X337164000Y-147157099D01*
X279956913Y-159129150D02*
X286199689Y-152886374D01*
X277242280Y-159129150D02*
X279956913Y-159129150D01*
X336066318Y-123886982D02*
X337164000Y-122789300D01*
X248545000Y-146763085D02*
X248545000Y-149500000D01*
X254750000Y-153132690D02*
X254750000Y-151598239D01*
X286199689Y-151013581D02*
X288065952Y-149147318D01*
X253625000Y-149500000D02*
X253625000Y-150473239D01*
X286199689Y-152886374D02*
X286199689Y-151013581D01*
X251085000Y-133360000D02*
X251085000Y-138659242D01*
X251085000Y-138659242D02*
X249685434Y-140058808D01*
X337164000Y-129177951D02*
X336066318Y-128080269D01*
X249685434Y-140058808D02*
X249685434Y-145622651D01*
X244054070Y-162501216D02*
X244054070Y-196556891D01*
X249685434Y-145622651D02*
X248545000Y-146763085D01*
X253625000Y-150473239D02*
X254750000Y-151598239D01*
X276257401Y-160114029D02*
X277242280Y-159129150D01*
X337164000Y-147157099D02*
X337164000Y-129177951D01*
%TO.N,/PHI0*%
X325909421Y-123883879D02*
X327004000Y-122789300D01*
X327004000Y-129358404D02*
X325909421Y-128263825D01*
X141255667Y-162494828D02*
X141071833Y-162310994D01*
X249134070Y-189506934D02*
X249134070Y-172332053D01*
X243465000Y-157120000D02*
X243465000Y-154207464D01*
X325791362Y-153664787D02*
X327004000Y-152452149D01*
X248748391Y-162403391D02*
X243465000Y-157120000D01*
X314970149Y-166877031D02*
X314970149Y-166853305D01*
X246005000Y-151644392D02*
X246005000Y-149500000D01*
X327004000Y-149138000D02*
X327004000Y-129358404D01*
X248748391Y-171946374D02*
X248748391Y-162403391D01*
X325791362Y-157744291D02*
X325791362Y-153664787D01*
X325909421Y-128263825D02*
X325909421Y-123883879D01*
X249134070Y-196556891D02*
X249134070Y-189559340D01*
X314970149Y-166853305D02*
X319134239Y-162689215D01*
X249160273Y-189533137D02*
X249134070Y-189506934D01*
X327004000Y-152452149D02*
X327004000Y-149138000D01*
X195075537Y-166210000D02*
X195075537Y-159353464D01*
X243465000Y-154207464D02*
X246016536Y-151655928D01*
X141255667Y-164306227D02*
X141255667Y-162494828D01*
X249134070Y-189559340D02*
X249160273Y-189533137D01*
X108440000Y-157120000D02*
X108440000Y-160408805D01*
X246016536Y-151655928D02*
X246005000Y-151644392D01*
X249134070Y-172332053D02*
X248748391Y-171946374D01*
%TO.N,/RD*%
X240478201Y-136007978D02*
X244659931Y-136007978D01*
X235462593Y-117979003D02*
X235439291Y-118002305D01*
X196239499Y-128700100D02*
X195075537Y-129864062D01*
X235439291Y-118002305D02*
X235439291Y-125279808D01*
X245685575Y-147279425D02*
X245693347Y-147279425D01*
X243465000Y-149500000D02*
X245685575Y-147279425D01*
X244659931Y-136007978D02*
X244659931Y-128730662D01*
X196239499Y-121849752D02*
X196239499Y-128700100D01*
X236801162Y-145188559D02*
X236801162Y-139685017D01*
X195075537Y-129864062D02*
X195075537Y-133360000D01*
X236801162Y-139685017D02*
X240478201Y-136007978D01*
%TO.N,/WR*%
X113410000Y-167608876D02*
X110870000Y-170148876D01*
X113410000Y-166210000D02*
X113410000Y-167608876D01*
X135256854Y-144806289D02*
X135256854Y-127481930D01*
X193660537Y-129885151D02*
X193660537Y-139855000D01*
X133677398Y-146385745D02*
X135256854Y-144806289D01*
X194935148Y-143379611D02*
X192535537Y-140980000D01*
X141128603Y-118242960D02*
X146819987Y-118242960D01*
X194994678Y-128551010D02*
X193660537Y-129885151D01*
X209005586Y-157696179D02*
X209005586Y-156144120D01*
X113410000Y-163877779D02*
X113410000Y-166210000D01*
X133677398Y-166209248D02*
X133677398Y-146385745D01*
X135256854Y-127481930D02*
X140233623Y-122505161D01*
X140233623Y-122505161D02*
X140233623Y-119151391D01*
X133698217Y-166230067D02*
X133677398Y-166209248D01*
X140831776Y-118539787D02*
X141128603Y-118242960D01*
X208319793Y-155458327D02*
X208319793Y-147517564D01*
X208319793Y-147517564D02*
X204181840Y-143379611D01*
X193660537Y-139855000D02*
X192535537Y-140980000D01*
X140233623Y-119151391D02*
X140831776Y-118553238D01*
X194994678Y-122156817D02*
X194994678Y-128551010D01*
X121030000Y-166210000D02*
X121030000Y-163877779D01*
X140831776Y-118553238D02*
X140831776Y-118539787D01*
X209005586Y-156144120D02*
X208319793Y-155458327D01*
X110870000Y-170148876D02*
X110870000Y-173830000D01*
X204181840Y-143379611D02*
X194935148Y-143379611D01*
X121030000Y-166210000D02*
X123570000Y-166210000D01*
%TO.N,Net-(IC13-Pad12)*%
X173303241Y-161166090D02*
X173319784Y-161149547D01*
X118490000Y-173830000D02*
X118490000Y-177427184D01*
X173200658Y-175957475D02*
X173303241Y-175854892D01*
X173303241Y-175854892D02*
X173303241Y-161166090D01*
X86209010Y-177427184D02*
X85733100Y-176951274D01*
X85733100Y-167625000D02*
X84318100Y-166210000D01*
X85733100Y-176951274D02*
X85733100Y-167625000D01*
%TO.N,Net-(IC2-Pad11)*%
X248545000Y-157120000D02*
X248545000Y-151733050D01*
X251085000Y-147244884D02*
X251085000Y-140980000D01*
X248545000Y-151733050D02*
X249960000Y-150318050D01*
X249960000Y-150318050D02*
X249960000Y-148369884D01*
X249960000Y-148369884D02*
X251085000Y-147244884D01*
%TO.N,/A2*%
X252684119Y-177399450D02*
X252684119Y-160386024D01*
X307771000Y-152902400D02*
X307771000Y-128727700D01*
X252684119Y-160386024D02*
X251085000Y-158786905D01*
X306684000Y-153989400D02*
X307771000Y-152902400D01*
X301175022Y-159498379D02*
X306684000Y-153989400D01*
X299776821Y-159743779D02*
X300929622Y-159743779D01*
X300929622Y-159743779D02*
X301175022Y-159498379D01*
X307771000Y-128727700D02*
X306684000Y-127640700D01*
X216114070Y-184523487D02*
X216125327Y-184512230D01*
X301068624Y-159604776D02*
X301175022Y-159498379D01*
X251085000Y-158786905D02*
X251085000Y-157120000D01*
X216114070Y-196556891D02*
X216114070Y-184523487D01*
X252694170Y-177409501D02*
X252684119Y-177399450D01*
X294425600Y-165095000D02*
X299776821Y-159743779D01*
%TO.N,/A0*%
X211209586Y-164305203D02*
X211209586Y-164009089D01*
X294859173Y-159581427D02*
X296011973Y-159581427D01*
X218654070Y-181952355D02*
X218657417Y-181949008D01*
X303057000Y-129093700D02*
X301604000Y-127640700D01*
X302458184Y-153135215D02*
X303057000Y-152536399D01*
X253722188Y-157217188D02*
X253625000Y-157120000D01*
X303057000Y-152536399D02*
X303057000Y-129093700D01*
X289345600Y-165095000D02*
X294859173Y-159581427D01*
X218657417Y-181949008D02*
X216828042Y-181949008D01*
X296011973Y-159581427D02*
X301604000Y-153989400D01*
X151667195Y-164243843D02*
X151699029Y-164212009D01*
X218654070Y-196556891D02*
X218654070Y-181952355D01*
X211209586Y-164009089D02*
X211224067Y-163994608D01*
X301604000Y-153989400D02*
X302458184Y-153135215D01*
X216828042Y-181949008D02*
X211209586Y-176330552D01*
X150288900Y-173830000D02*
X150288900Y-168113604D01*
X253722188Y-172797791D02*
X253722188Y-157217188D01*
X151667195Y-166735309D02*
X151667195Y-164243843D01*
X211209586Y-176330552D02*
X211209586Y-164305203D01*
X150288900Y-168113604D02*
X151667195Y-166735309D01*
X211209586Y-164291826D02*
X211208482Y-164290722D01*
X211209586Y-164305203D02*
X211209586Y-164291826D01*
%TO.N,/A9*%
X331565260Y-170017630D02*
X332346981Y-169235909D01*
X150159043Y-178178112D02*
X149163900Y-177182969D01*
X149163900Y-167335000D02*
X150288900Y-166210000D01*
X323906726Y-170017630D02*
X331565260Y-170017630D01*
X283978780Y-190337318D02*
X283978780Y-186001389D01*
X318570960Y-175353396D02*
X323906726Y-170017630D01*
X332346981Y-169235909D02*
X332346981Y-162231152D01*
X302045600Y-182712991D02*
X302045600Y-180335000D01*
X300173720Y-184584871D02*
X302045600Y-182712991D01*
X336077000Y-152536400D02*
X336077000Y-129093700D01*
X332346981Y-162231152D02*
X334624000Y-159954133D01*
X149163900Y-177182969D02*
X149163900Y-167335000D01*
X285395298Y-184584871D02*
X300173720Y-184584871D01*
X336077000Y-129093700D02*
X334624000Y-127640700D01*
X280068682Y-194247416D02*
X283978780Y-190337318D01*
X219974772Y-199236188D02*
X219974772Y-194278719D01*
X218654070Y-200556891D02*
X219974772Y-199236188D01*
X283978780Y-186001389D02*
X285395298Y-184584871D01*
X334624000Y-159954133D02*
X334624000Y-153989400D01*
X219974772Y-194278719D02*
X220006075Y-194247416D01*
X334624000Y-153989400D02*
X336077000Y-152536400D01*
%TO.N,/A8*%
X333374345Y-159219107D02*
X333374345Y-153335451D01*
X323293567Y-168981543D02*
X330733412Y-168981543D01*
X334624000Y-152085796D02*
X334624000Y-149138000D01*
X333374345Y-153335451D02*
X334624000Y-152085796D01*
X316586278Y-175688832D02*
X323293567Y-168981543D01*
X151606864Y-179217687D02*
X151606864Y-167432036D01*
X334624000Y-129177951D02*
X333537000Y-128090951D01*
X284694822Y-186219314D02*
X285441996Y-185472140D01*
X151606864Y-167432036D02*
X152828900Y-166210000D01*
X281208010Y-195123139D02*
X284694822Y-191636327D01*
X330733412Y-168981543D02*
X331249569Y-168465386D01*
X208494070Y-196556891D02*
X208494070Y-194073251D01*
X334624000Y-149138000D02*
X334624000Y-129177951D01*
X285441996Y-185472140D02*
X300992556Y-185472140D01*
X304585600Y-181879096D02*
X304585600Y-180335000D01*
X331249569Y-161343883D02*
X333374345Y-159219107D01*
X333537000Y-123876300D02*
X334624000Y-122789300D01*
X284694822Y-191636327D02*
X284694822Y-186219314D01*
X331249569Y-168465386D02*
X331249569Y-161343883D01*
X316586278Y-176614252D02*
X316586278Y-175688832D01*
X333537000Y-128090951D02*
X333537000Y-123876300D01*
X300992556Y-185472140D02*
X304585600Y-181879096D01*
%TO.N,Net-(IC4-Pad5)*%
X245310169Y-137136486D02*
X240905276Y-137136486D01*
X238060445Y-143989999D02*
X238060445Y-158214113D01*
X237671026Y-140370736D02*
X237671026Y-143600580D01*
X246005000Y-136441655D02*
X245310169Y-137136486D01*
X240905276Y-137136486D02*
X237671026Y-140370736D01*
X237671026Y-143600580D02*
X238060445Y-143989999D01*
X240818195Y-160971863D02*
X240818195Y-166011238D01*
X246005000Y-133360000D02*
X246005000Y-136441655D01*
X238060445Y-158214113D02*
X240818195Y-160971863D01*
%TO.N,/NPFD*%
X179603899Y-176417249D02*
X180960537Y-175060611D01*
X180960537Y-173654009D02*
X182577177Y-172037369D01*
X182577177Y-172037369D02*
X188606580Y-172037369D01*
X217463541Y-148471707D02*
X217463541Y-149892935D01*
X216520880Y-150835596D02*
X212509336Y-150835596D01*
X212509336Y-150835596D02*
X211608571Y-151736361D01*
X193660537Y-166983412D02*
X193660537Y-163466096D01*
X309224000Y-141687406D02*
X309224000Y-129177951D01*
X145208900Y-169781207D02*
X145208900Y-166210000D01*
X218634658Y-147300590D02*
X217463541Y-148471707D01*
X143822841Y-177831004D02*
X143793900Y-177802063D01*
X180960537Y-175060611D02*
X180960537Y-173654009D01*
X309224000Y-129177951D02*
X308137000Y-128090951D01*
X309224000Y-149138000D02*
X309224000Y-141687406D01*
X207530227Y-158501989D02*
X207530227Y-163466096D01*
X210574229Y-158590855D02*
X210285934Y-158590855D01*
X211608571Y-157556513D02*
X210574229Y-158590855D01*
X211608571Y-151736361D02*
X211608571Y-157556513D01*
X308137000Y-128090951D02*
X308137000Y-123876300D01*
X188606580Y-172037369D02*
X193660537Y-166983412D01*
X143793900Y-171196207D02*
X145208900Y-169781207D01*
X308137000Y-123876300D02*
X309224000Y-122789300D01*
X217463541Y-149892935D02*
X216520880Y-150835596D01*
X143793900Y-177802063D02*
X143793900Y-171196207D01*
%TO.N,/NPFE*%
X228012927Y-128143243D02*
X228012927Y-133388960D01*
X228062936Y-128093234D02*
X228012927Y-128143243D01*
X248598000Y-131314925D02*
X248545000Y-131367925D01*
X142668900Y-166210000D02*
X141543900Y-165085000D01*
X141543900Y-165085000D02*
X140251053Y-165085000D01*
X248545000Y-131367925D02*
X248545000Y-133360000D01*
X136279760Y-161113707D02*
X136279760Y-127933204D01*
X140134080Y-124078884D02*
X140134080Y-124025920D01*
X140251053Y-165085000D02*
X136279760Y-161113707D01*
X228062936Y-122457064D02*
X228062936Y-128093234D01*
X136279760Y-127933204D02*
X140134080Y-124078884D01*
%TO.N,/FC73*%
X116893406Y-175909409D02*
X115489409Y-175909409D01*
X137588900Y-176662907D02*
X137588900Y-173830000D01*
X137593774Y-176667781D02*
X137588900Y-176662907D01*
X115489409Y-175909409D02*
X113410000Y-173830000D01*
%TO.N,/FC72*%
X121030000Y-173830000D02*
X121030000Y-175812588D01*
X140121982Y-175796215D02*
X140128900Y-175789297D01*
X140128900Y-175789297D02*
X140128900Y-173830000D01*
%TO.N,/FC71*%
X105900000Y-157120000D02*
X105900000Y-162186147D01*
X115950000Y-166210000D02*
X115950000Y-162207430D01*
X139858210Y-172384578D02*
X141223478Y-172384578D01*
X134871825Y-162205070D02*
X134871825Y-167398193D01*
X141223478Y-172384578D02*
X142668900Y-173830000D01*
X134871825Y-167398193D02*
X139858210Y-172384578D01*
%TO.N,/FC70*%
X146333900Y-161637407D02*
X146333900Y-172705000D01*
X166765453Y-155103761D02*
X163261941Y-151600249D01*
X166778146Y-161653199D02*
X166765453Y-161640506D01*
X193664856Y-128432925D02*
X192535537Y-129562244D01*
X192535537Y-129562244D02*
X192535537Y-133360000D01*
X158377017Y-128719276D02*
X158377017Y-121022983D01*
X166765453Y-161640506D02*
X166765453Y-155103761D01*
X193664856Y-122156817D02*
X193664856Y-128432925D01*
X163261941Y-151600249D02*
X163261941Y-133604200D01*
X163261941Y-133604200D02*
X158377017Y-128719276D01*
X146333900Y-172705000D02*
X145208900Y-173830000D01*
%TO.N,/A1*%
X255691355Y-172567790D02*
X255698327Y-172560818D01*
X253625000Y-142038949D02*
X253625000Y-140980000D01*
X297422523Y-159558077D02*
X298575323Y-159558077D01*
X216794351Y-183351292D02*
X217291652Y-183351292D01*
X261897087Y-156240533D02*
X261897087Y-143001543D01*
X261897087Y-143001543D02*
X254587594Y-143001543D01*
X305243634Y-152889766D02*
X305243634Y-128740334D01*
X216114070Y-200556891D02*
X217291652Y-199379309D01*
X200974282Y-181648017D02*
X200974282Y-172953741D01*
X255698327Y-162439293D02*
X261897087Y-156240533D01*
X305243634Y-128740334D02*
X304144000Y-127640700D01*
X291885600Y-165095000D02*
X297422523Y-159558077D01*
X254587594Y-143001543D02*
X253625000Y-142038949D01*
X298575323Y-159558077D02*
X304144000Y-153989400D01*
X209738587Y-176295528D02*
X216794351Y-183351292D01*
X304144000Y-153989400D02*
X305243634Y-152889766D01*
X255698327Y-172560818D02*
X255698327Y-162439293D01*
X209738587Y-172837157D02*
X209738587Y-176295528D01*
X217291652Y-199379309D02*
X217291652Y-183351292D01*
%TO.N,Net-(IC3-Pad15)*%
X80363100Y-175868447D02*
X80399542Y-175904889D01*
X152450571Y-180340000D02*
X119268515Y-180340000D01*
X152828900Y-173830000D02*
X152828900Y-179961671D01*
X119268515Y-180340000D02*
X114833404Y-175904889D01*
X152828900Y-179961671D02*
X152450571Y-180340000D01*
X80089617Y-167061516D02*
X79238100Y-166210000D01*
X80363100Y-167335000D02*
X80089617Y-167061516D01*
X114833404Y-175904889D02*
X94573970Y-175904889D01*
X80363100Y-167334999D02*
X80363100Y-175868447D01*
X80089617Y-167061516D02*
X80363100Y-167334999D01*
%TO.N,Net-(C6-Pad2)*%
X252425099Y-137099901D02*
X256165000Y-133360000D01*
X254923292Y-145153587D02*
X252425099Y-142655394D01*
X252425099Y-142655394D02*
X252425099Y-137099901D01*
%TO.N,Net-(IC10-Pad11)*%
X151818229Y-150305593D02*
X151791777Y-150332045D01*
X187069165Y-160754361D02*
X185904903Y-160754361D01*
X151818229Y-148048886D02*
X151818229Y-150305593D01*
X150570000Y-146800657D02*
X151818229Y-148048886D01*
X185904903Y-160754361D02*
X184035674Y-158885132D01*
X149013223Y-153367440D02*
X149013223Y-156136777D01*
X189995537Y-166210000D02*
X189995537Y-163680733D01*
X151791777Y-150332045D02*
X151791777Y-150588886D01*
X149013223Y-156136777D02*
X148030000Y-157120000D01*
X184035674Y-158885132D02*
X184035674Y-158789001D01*
X189995537Y-163680733D02*
X187069165Y-160754361D01*
X151791777Y-150588886D02*
X149013223Y-153367440D01*
X150570000Y-140980000D02*
X150570000Y-146800657D01*
%TO.N,Net-(IC11-Pad18)*%
X157424442Y-142370775D02*
X157857035Y-141938182D01*
X154444359Y-140327975D02*
X154444359Y-141365350D01*
X155449784Y-142370775D02*
X157424442Y-142370775D01*
X154444359Y-141365350D02*
X155449784Y-142370775D01*
X153110000Y-138993616D02*
X154444359Y-140327975D01*
X153110000Y-133360000D02*
X153110000Y-138993616D01*
%TO.N,Net-(IC10-Pad12)*%
X181021519Y-164855982D02*
X181021519Y-159231667D01*
X182375537Y-166210000D02*
X181021519Y-164855982D01*
X150570000Y-157120000D02*
X150570000Y-159120941D01*
%TO.N,Net-(IC5-Pad8)*%
X182078168Y-171587369D02*
X179835537Y-173830000D01*
X192535537Y-157120000D02*
X191410537Y-158245000D01*
X191410537Y-166431577D02*
X186254745Y-171587369D01*
X186254745Y-171587369D02*
X182078168Y-171587369D01*
X191410537Y-158245000D02*
X191410537Y-166431577D01*
%TO.N,/A6*%
X85862641Y-180716358D02*
X90787806Y-180716358D01*
X95122628Y-176381536D02*
X114498272Y-176381536D01*
X318297000Y-129093700D02*
X316844000Y-127640700D01*
X311088741Y-159744659D02*
X316844000Y-153989400D01*
X182375537Y-175204110D02*
X182375537Y-173830000D01*
X304585600Y-165095000D02*
X309935941Y-159744659D01*
X76642163Y-176847213D02*
X81993496Y-176847213D01*
X72043932Y-149594077D02*
X72043578Y-149594431D01*
X316844000Y-153989400D02*
X318297000Y-152536400D01*
X211067820Y-189156306D02*
X211034070Y-189190056D01*
X149887629Y-183067727D02*
X177223709Y-183067727D01*
X72038592Y-134449768D02*
X72038592Y-139766299D01*
X177223709Y-183067727D02*
X179312098Y-180979338D01*
X211034070Y-189190056D02*
X211034070Y-196556891D01*
X86898140Y-126268108D02*
X86891659Y-126274589D01*
X118955809Y-180839073D02*
X147658975Y-180839073D01*
X81993496Y-176847213D02*
X85862641Y-180716358D01*
X114498272Y-176381536D02*
X118955809Y-180839073D01*
X179312098Y-178267549D02*
X182375537Y-175204110D01*
X72043578Y-149594431D02*
X72043578Y-172248628D01*
X147658975Y-180839073D02*
X149887629Y-183067727D01*
X318297000Y-152536400D02*
X318297000Y-129093700D01*
X72043578Y-172248628D02*
X76642163Y-176847213D01*
X90787806Y-180716358D02*
X95122628Y-176381536D01*
X86898140Y-122045909D02*
X86898140Y-126268108D01*
X309935941Y-159744659D02*
X311088741Y-159744659D01*
X72038592Y-139766299D02*
X72055330Y-139783037D01*
X179312098Y-180979338D02*
X179312098Y-178267549D01*
%TO.N,/A4*%
X71481302Y-132671584D02*
X71905997Y-132246889D01*
X70693513Y-153620655D02*
X70158682Y-153085824D01*
X304939535Y-159661065D02*
X306092335Y-159661065D01*
X70179557Y-140508037D02*
X74776081Y-140508037D01*
X95859169Y-177428304D02*
X91383033Y-181904440D01*
X312912291Y-128788991D02*
X311764000Y-127640700D01*
X113825350Y-177428304D02*
X95859169Y-177428304D01*
X311764000Y-153989400D02*
X312912291Y-152841109D01*
X185804526Y-175481011D02*
X185804526Y-179922389D01*
X306092335Y-159661065D02*
X311764000Y-153989400D01*
X185804526Y-179922389D02*
X181062027Y-184664888D01*
X70166173Y-140494653D02*
X70179909Y-140480917D01*
X73243718Y-132246889D02*
X73247729Y-132250900D01*
X76055218Y-177986157D02*
X70693513Y-172624452D01*
X70158682Y-153085824D02*
X70158682Y-150821318D01*
X78494888Y-141861792D02*
X79238100Y-141118580D01*
X149256577Y-184664888D02*
X146468757Y-181877068D01*
X71481302Y-132674610D02*
X71481302Y-132671584D01*
X187455537Y-173830000D02*
X185804526Y-175481011D01*
X76110187Y-141861792D02*
X78494888Y-141861792D01*
X75280089Y-141031694D02*
X76110187Y-141861792D01*
X79238100Y-141118580D02*
X79238100Y-140510000D01*
X181062027Y-184664888D02*
X149256577Y-184664888D01*
X299505600Y-165095000D02*
X304939535Y-159661065D01*
X70693513Y-172624452D02*
X70693513Y-153620655D01*
X118274114Y-181877068D02*
X113825350Y-177428304D01*
X91383033Y-181904440D02*
X85059426Y-181904440D01*
X74776081Y-140508037D02*
X75280089Y-141012045D01*
X213574070Y-196556891D02*
X213574070Y-187014775D01*
X70179909Y-133976003D02*
X71481302Y-132674610D01*
X85059426Y-181904440D02*
X81141143Y-177986157D01*
X146468757Y-181877068D02*
X118274114Y-181877068D01*
X70179909Y-140480917D02*
X70179909Y-133976003D01*
X81141143Y-177986157D02*
X76055218Y-177986157D01*
X213574070Y-187014775D02*
X213562105Y-187002810D01*
X71905997Y-132246889D02*
X73243718Y-132246889D01*
X75280089Y-141012045D02*
X75280089Y-141031694D01*
X312912291Y-152841109D02*
X312912291Y-128788991D01*
X70166173Y-140494653D02*
X70179557Y-140508037D01*
%TO.N,Net-(IC5-Pad12)*%
X217411109Y-159764688D02*
X217411109Y-156015550D01*
X195033102Y-168895053D02*
X196326580Y-167601575D01*
X217951850Y-160305429D02*
X217411109Y-159764688D01*
X219321727Y-160305429D02*
X217951850Y-160305429D01*
X196326580Y-165475995D02*
X196717575Y-165085000D01*
X194276880Y-168895053D02*
X195033102Y-168895053D01*
X189995537Y-173830000D02*
X189995537Y-173176396D01*
X196717575Y-165085000D02*
X197666026Y-165085000D01*
X219814000Y-144699338D02*
X220355307Y-144158031D01*
X219814000Y-153612659D02*
X219814000Y-144699338D01*
X189995537Y-173176396D02*
X194276880Y-168895053D01*
X220355307Y-144158031D02*
X220403432Y-144158031D01*
X238385000Y-126176463D02*
X238385000Y-123870000D01*
X223162471Y-164146173D02*
X219321727Y-160305429D01*
X217411109Y-156015550D02*
X219814000Y-153612659D01*
X220403432Y-144158031D02*
X238385000Y-126176463D01*
X196326580Y-167601575D02*
X196326580Y-165475995D01*
%TO.N,Net-(IC6-Pad3)*%
X171158379Y-135429628D02*
X169764468Y-134035717D01*
X234185211Y-118035195D02*
X239182373Y-113038033D01*
X180115734Y-137066122D02*
X176079374Y-137066122D01*
X169764468Y-131199832D02*
X166507582Y-127942947D01*
X183500537Y-155995000D02*
X183500537Y-140450925D01*
X183500537Y-140450925D02*
X180115734Y-137066122D01*
X232198796Y-118035195D02*
X234185211Y-118035195D01*
X166507582Y-127942947D02*
X166507582Y-121869739D01*
X182375537Y-157120000D02*
X183500537Y-155995000D01*
X169764468Y-134035717D02*
X169764468Y-131199832D01*
X176079374Y-137066122D02*
X174442880Y-135429628D01*
X232170604Y-118007003D02*
X232198796Y-118035195D01*
X247873033Y-113038033D02*
X251085000Y-116250000D01*
X166507582Y-121869739D02*
X168374019Y-120003302D01*
X239182373Y-113038033D02*
X247873033Y-113038033D01*
X174442880Y-135429628D02*
X171158379Y-135429628D01*
%TO.N,/D0*%
X233894070Y-177387869D02*
X233890152Y-177383951D01*
X299064000Y-124326551D02*
X299064000Y-127640700D01*
X172132598Y-131075295D02*
X175304946Y-131075295D01*
X175880537Y-134703070D02*
X177083382Y-135905915D01*
X300318710Y-152734690D02*
X300318710Y-129400960D01*
X187455537Y-138034772D02*
X187455537Y-140980000D01*
X168599757Y-127542454D02*
X172132598Y-131075295D01*
X286805600Y-165095000D02*
X292435538Y-159465062D01*
X208255227Y-176849424D02*
X208255227Y-158201684D01*
X299064000Y-153989400D02*
X300318710Y-152734690D01*
X293588338Y-159465062D02*
X299064000Y-153989400D01*
X185326680Y-135905915D02*
X187455537Y-138034772D01*
X114855000Y-146419577D02*
X114881601Y-146446178D01*
X91784640Y-146773463D02*
X90523100Y-148035003D01*
X300151000Y-123239551D02*
X299064000Y-124326551D01*
X90523100Y-150920745D02*
X84318100Y-157125745D01*
X115980000Y-138864421D02*
X114855000Y-139989421D01*
X175304946Y-131075295D02*
X175880537Y-131650886D01*
X300313182Y-128889882D02*
X299064000Y-127640700D01*
X300151000Y-121123826D02*
X300151000Y-123239551D01*
X114855000Y-146419577D02*
X114855000Y-146765000D01*
X90523100Y-148035003D02*
X90523100Y-150920745D01*
X208500265Y-177094462D02*
X208255227Y-176849424D01*
X177083382Y-135905915D02*
X185326680Y-135905915D01*
X115980000Y-132890000D02*
X115980000Y-128258162D01*
X300318710Y-129400960D02*
X300313182Y-129395432D01*
X207597905Y-157544362D02*
X207597905Y-147734130D01*
X208255227Y-158201684D02*
X207597905Y-157544362D01*
X203771098Y-143907323D02*
X190382860Y-143907323D01*
X190382860Y-143907323D02*
X187455537Y-140980000D01*
X233894070Y-196556891D02*
X233894070Y-177387869D01*
X300313182Y-129395432D02*
X300313182Y-128889882D01*
X207597905Y-147734130D02*
X203771098Y-143907323D01*
X114855000Y-139989421D02*
X114855000Y-146419577D01*
X115980000Y-132890000D02*
X115980000Y-138864421D01*
X292435538Y-159465062D02*
X293588338Y-159465062D01*
X175880537Y-131650886D02*
X175880537Y-134703070D01*
%TO.N,/D1*%
X109052813Y-147739732D02*
X109660083Y-147132462D01*
X295071000Y-123239551D02*
X293984000Y-124326551D01*
X295071000Y-128727700D02*
X293984000Y-127640700D01*
X174587078Y-134788750D02*
X175060458Y-134788750D01*
X291564070Y-157800724D02*
X291559876Y-157800724D01*
X109660083Y-134190083D02*
X108360000Y-132890000D01*
X180466308Y-136530771D02*
X184915537Y-140980000D01*
X294019249Y-116472404D02*
X295071000Y-117524155D01*
X295071000Y-152902400D02*
X295071000Y-128727700D01*
X173609738Y-133163210D02*
X173609738Y-133811410D01*
X295071000Y-117524155D02*
X295071000Y-123239551D01*
X187592534Y-146048924D02*
X185916113Y-146048924D01*
X173609738Y-133811410D02*
X174587078Y-134788750D01*
X184988447Y-145121258D02*
X184984529Y-145125176D01*
X235119825Y-199331136D02*
X233894070Y-200556891D01*
X188315137Y-146714892D02*
X188258502Y-146714892D01*
X205274783Y-146914904D02*
X206632330Y-148272451D01*
X293984000Y-124326551D02*
X295078572Y-123231979D01*
X206632330Y-148272451D02*
X206632330Y-177047763D01*
X293984000Y-153989400D02*
X295071000Y-152902400D01*
X108360000Y-128244526D02*
X108360000Y-132890000D01*
X90813100Y-158451893D02*
X90813100Y-153121825D01*
X235119825Y-178586856D02*
X235119825Y-199331136D01*
X235146899Y-178559782D02*
X235119825Y-178586856D01*
X171256416Y-131525295D02*
X171971823Y-131525295D01*
X184915537Y-145056184D02*
X184915537Y-140980000D01*
X167246942Y-127515821D02*
X171256416Y-131525295D01*
X184984529Y-145125176D02*
X184915537Y-145056184D01*
X108370836Y-128233690D02*
X108360000Y-128244526D01*
X206632330Y-177047763D02*
X206679029Y-177094462D01*
X90117045Y-159147948D02*
X90813100Y-158451893D01*
X185916113Y-146048924D02*
X184988447Y-145121258D01*
X171971823Y-131525295D02*
X173609738Y-133163210D01*
X90813100Y-153121825D02*
X96210778Y-147724147D01*
X176802479Y-136530771D02*
X180466308Y-136530771D01*
X293984000Y-127640700D02*
X293984000Y-124326551D01*
X167246942Y-126615472D02*
X167246942Y-127515821D01*
X291559876Y-157800724D02*
X284265600Y-165095000D01*
X109660083Y-147132462D02*
X109660083Y-134190083D01*
X188258502Y-146714892D02*
X187592534Y-146048924D01*
X175060458Y-134788750D02*
X176802479Y-136530771D01*
%TO.N,Net-(IC5-Pad4)*%
X181855638Y-158606723D02*
X182406783Y-158606723D01*
X166676235Y-130437801D02*
X168231522Y-131993088D01*
X165862603Y-128493680D02*
X166676235Y-129307312D01*
X168231522Y-131993088D02*
X168231522Y-134914698D01*
X178454213Y-145562083D02*
X180960537Y-148068407D01*
X187455537Y-163655477D02*
X187455537Y-166210000D01*
X180960537Y-148068407D02*
X180960537Y-157711622D01*
X164049372Y-125036790D02*
X165862603Y-126850021D01*
X178454213Y-138759234D02*
X178454213Y-145562083D01*
X168231522Y-134914698D02*
X171457615Y-138140791D01*
X143427333Y-124118198D02*
X143427333Y-121200699D01*
X171457615Y-138140791D02*
X177835770Y-138140791D01*
X180960537Y-157711622D02*
X181855638Y-158606723D01*
X165862603Y-126850021D02*
X165862603Y-128493680D01*
X177835770Y-138140791D02*
X178454213Y-138759234D01*
X182406783Y-158606723D02*
X187455537Y-163655477D01*
X143427333Y-121200699D02*
X142654290Y-120427656D01*
X166676235Y-129307312D02*
X166676235Y-130437801D01*
%TO.N,Net-(IC6-Pad10)*%
X221229000Y-144627250D02*
X240925000Y-124931250D01*
X240925000Y-124931250D02*
X240925000Y-123870000D01*
X221229000Y-149500000D02*
X221229000Y-144627250D01*
%TO.N,Net-(IC6-Pad11)*%
X241441578Y-125663372D02*
X241968137Y-125663372D01*
X222578863Y-153230137D02*
X222578863Y-144526087D01*
X243465000Y-124166509D02*
X243465000Y-123870000D01*
X241968137Y-125663372D02*
X243465000Y-124166509D01*
X218689000Y-157120000D02*
X222578863Y-153230137D01*
X222578863Y-144526087D02*
X241441578Y-125663372D01*
%TO.N,/D2*%
X296524000Y-153989400D02*
X297977000Y-152536400D01*
X236434070Y-148667242D02*
X235984723Y-148217895D01*
X168849137Y-134453329D02*
X168849137Y-131585398D01*
X182387274Y-146102739D02*
X182375537Y-146091002D01*
X281725600Y-165095000D02*
X290974840Y-155845760D01*
X236434070Y-196556891D02*
X236434070Y-179570054D01*
X297977000Y-129280961D02*
X296524000Y-127827961D01*
X182375537Y-140980000D02*
X178911659Y-137516122D01*
X296524000Y-154057891D02*
X296524000Y-153989400D01*
X244590000Y-122455000D02*
X246005000Y-123870000D01*
X178911659Y-137516122D02*
X175617375Y-137516122D01*
X297611000Y-123239551D02*
X296524000Y-124326551D01*
X296524000Y-124326551D02*
X296524000Y-127640700D01*
X175617375Y-137516122D02*
X174151366Y-136050113D01*
X290974840Y-155845760D02*
X294736131Y-155845760D01*
X104405000Y-140334009D02*
X104405000Y-142409607D01*
X182375537Y-146091002D02*
X182375537Y-140980000D01*
X236434070Y-179570054D02*
X236434070Y-148667242D01*
X235984723Y-148217895D02*
X233869567Y-146102739D01*
X244590000Y-114099536D02*
X244590000Y-122455000D01*
X296524000Y-127827961D02*
X296524000Y-127640700D01*
X297611000Y-116849445D02*
X297611000Y-123239551D01*
X236441461Y-148674633D02*
X235984723Y-148217895D01*
X105820000Y-132890000D02*
X105820000Y-138919009D01*
X296479796Y-115718240D02*
X297611000Y-116849445D01*
X297977000Y-152536400D02*
X297977000Y-129280961D01*
X294736131Y-155845760D02*
X296524000Y-154057891D01*
X174151366Y-136050113D02*
X170445921Y-136050113D01*
X105820000Y-138919009D02*
X104405000Y-140334009D01*
X170445921Y-136050113D02*
X168849137Y-134453329D01*
%TO.N,/D3*%
X179835537Y-144972910D02*
X179835537Y-140980000D01*
X340791000Y-152902400D02*
X340791000Y-128727700D01*
X340791000Y-128727700D02*
X339704000Y-127640700D01*
X237558739Y-148237938D02*
X234326128Y-145005327D01*
X284037180Y-169054177D02*
X284037180Y-175337016D01*
X242951902Y-129742107D02*
X233983920Y-138710089D01*
X284110382Y-175410218D02*
X298679409Y-175410218D01*
X242991272Y-129742107D02*
X242951902Y-129742107D01*
X284037180Y-175337016D02*
X284110382Y-175410218D01*
X233983920Y-138710089D02*
X233983920Y-144984370D01*
X237558739Y-161376158D02*
X237558739Y-148237938D01*
X74158100Y-153770682D02*
X74158100Y-157125745D01*
X237531089Y-162833234D02*
X237531089Y-161403808D01*
X74594391Y-153334391D02*
X74158100Y-153770682D01*
X233983920Y-144984370D02*
X233962963Y-145005327D01*
X237521070Y-180703063D02*
X237521070Y-162843253D01*
X298679409Y-175410218D02*
X305777563Y-168312064D01*
X234326128Y-145005327D02*
X233962963Y-145005327D01*
X279185600Y-180335000D02*
X284110382Y-175410218D01*
X237521070Y-199469891D02*
X236434070Y-200556891D01*
X237521070Y-180703063D02*
X237521070Y-199469891D01*
X316027857Y-168312064D02*
X322892518Y-161447403D01*
X305777563Y-168312064D02*
X316027857Y-168312064D01*
X179871057Y-145008430D02*
X179835537Y-144972910D01*
X339704000Y-153989400D02*
X340791000Y-152902400D01*
X322892518Y-161447403D02*
X322892518Y-161424054D01*
X237521070Y-162843253D02*
X237531089Y-162833234D01*
X82995057Y-153365561D02*
X82995057Y-147645868D01*
X237531089Y-161403808D02*
X237558739Y-161376158D01*
%TO.N,Net-(IC6-Pad14)*%
X227434000Y-155995000D02*
X227434000Y-142550478D01*
X248313220Y-126641780D02*
X251085000Y-123870000D01*
X227434000Y-142550478D02*
X243342698Y-126641780D01*
X243342698Y-126641780D02*
X248313220Y-126641780D01*
X226309000Y-157120000D02*
X227434000Y-155995000D01*
%TO.N,Net-(IC6-Pad15)*%
X228849000Y-142167241D02*
X243476112Y-127540129D01*
X228849000Y-149500000D02*
X228849000Y-142167241D01*
X243476112Y-127540129D02*
X250925041Y-127540129D01*
X250925041Y-127540129D02*
X253625000Y-124840170D01*
X253625000Y-124840170D02*
X253625000Y-123870000D01*
%TO.N,Net-(IC7-Pad1)*%
X181951766Y-177326832D02*
X181685844Y-177326832D01*
X183635631Y-173119509D02*
X183635631Y-175642967D01*
X209955924Y-161940484D02*
X209955924Y-165828478D01*
X213609000Y-158287408D02*
X210489990Y-161406418D01*
X210052056Y-161844352D02*
X209955924Y-161940484D01*
X193977804Y-167837604D02*
X193964452Y-167837604D01*
X184040690Y-172714450D02*
X183635631Y-173119509D01*
X193964452Y-167837604D02*
X189097056Y-172705000D01*
X90523100Y-167625000D02*
X91938100Y-166210000D01*
X183635631Y-175642967D02*
X181951766Y-177326832D01*
X184043679Y-172714450D02*
X184040690Y-172714450D01*
X213609000Y-157120000D02*
X213609000Y-158287408D01*
X90523100Y-178189598D02*
X90523100Y-167625000D01*
X184053129Y-172705000D02*
X184043679Y-172714450D01*
X210489990Y-161406418D02*
X210052056Y-161844352D01*
X189097056Y-172705000D02*
X184053129Y-172705000D01*
%TO.N,Net-(IC10-Pad10)*%
X141591629Y-159330016D02*
X143279984Y-159330016D01*
X145490000Y-149500000D02*
X145490000Y-157120000D01*
X89398100Y-166210000D02*
X89398100Y-162231741D01*
X139579314Y-161342331D02*
X141591629Y-159330016D01*
X143279984Y-159330016D02*
X145490000Y-157120000D01*
X138122644Y-161342331D02*
X139579314Y-161342331D01*
%TO.N,Net-(IC7-Pad5)*%
X189995537Y-158719180D02*
X189995537Y-157120000D01*
X81778100Y-162134956D02*
X81778100Y-166210000D01*
%TO.N,/OE3*%
X83081854Y-162150909D02*
X83057751Y-162175012D01*
X95817656Y-159669258D02*
X95033031Y-160453883D01*
X83057751Y-162175012D02*
X83057751Y-172503089D01*
X93952679Y-129743653D02*
X96230358Y-132021332D01*
X323180303Y-115225506D02*
X323180303Y-123730480D01*
X96969677Y-158539082D02*
X95839501Y-159669258D01*
X323377000Y-152536400D02*
X323377000Y-129093700D01*
X83057751Y-172503089D02*
X83081381Y-172526719D01*
X321924000Y-153989400D02*
X323377000Y-152536400D01*
X95203598Y-114212109D02*
X95203598Y-121245711D01*
X321924000Y-124986783D02*
X321924000Y-127640700D01*
X96230358Y-140378141D02*
X96969677Y-141117460D01*
X323377000Y-129093700D02*
X321924000Y-127640700D01*
X96969677Y-141117460D02*
X96969677Y-158539082D01*
X95839501Y-159669258D02*
X95817656Y-159669258D01*
X322686314Y-114731517D02*
X323180303Y-115225506D01*
X323180303Y-123730480D02*
X321924000Y-124986783D01*
X96230358Y-132021332D02*
X96230358Y-140378141D01*
X93952679Y-122496630D02*
X93952679Y-129743653D01*
X95203598Y-121245711D02*
X93952679Y-122496630D01*
X83081381Y-172526719D02*
X81778100Y-173830000D01*
%TO.N,Net-(IC7-Pad11)*%
X179835537Y-161783861D02*
X176240598Y-165378800D01*
X84318100Y-173830000D02*
X84318100Y-177337848D01*
X176237339Y-182116357D02*
X176240597Y-182119615D01*
X176240598Y-182113098D02*
X176237339Y-182116357D01*
X179835537Y-157120000D02*
X179835537Y-161783861D01*
X176240598Y-165378800D02*
X176240598Y-182113098D01*
X176240597Y-182119615D02*
X176240597Y-182325244D01*
%TO.N,/A7*%
X209581070Y-199469891D02*
X209581070Y-191046308D01*
X208211376Y-181654265D02*
X208211376Y-189676614D01*
X312399985Y-159820615D02*
X313552785Y-159820615D01*
X88075412Y-136893638D02*
X88075412Y-123408637D01*
X307125600Y-165095000D02*
X312399985Y-159820615D01*
X186216958Y-139465162D02*
X183645434Y-136893638D01*
X208494070Y-200556891D02*
X209581070Y-199469891D01*
X320837000Y-152536400D02*
X320837000Y-129093700D01*
X204584979Y-149797352D02*
X204584979Y-178027868D01*
X208211376Y-189676614D02*
X209581070Y-191046308D01*
X313552785Y-159820615D02*
X319384000Y-153989400D01*
X195075537Y-149328973D02*
X189162522Y-143415958D01*
X320837000Y-129093700D02*
X319384000Y-127640700D01*
X319384000Y-153989400D02*
X320837000Y-152536400D01*
X189162522Y-143415958D02*
X187035171Y-143415958D01*
X186216958Y-142597745D02*
X186216958Y-139465162D01*
X195075537Y-149500000D02*
X195075537Y-149328973D01*
X187035171Y-143415958D02*
X186216958Y-142597745D01*
X204584979Y-178027868D02*
X208211376Y-181654265D01*
X88075412Y-123408637D02*
X89438140Y-122045909D01*
%TO.N,/NPFC*%
X189432818Y-151164445D02*
X188685672Y-150417299D01*
X218643975Y-136374556D02*
X218490163Y-136220744D01*
X188685672Y-148110026D02*
X188306612Y-147730966D01*
X311764000Y-149138000D02*
X311764000Y-140831810D01*
X192535537Y-149500000D02*
X190871092Y-151164445D01*
X211712664Y-146704295D02*
X218647277Y-139769682D01*
X95021716Y-142066086D02*
X95021716Y-146110392D01*
X218643975Y-136657354D02*
X218643975Y-136374556D01*
X93980000Y-134931900D02*
X93980000Y-141024370D01*
X91938100Y-132890000D02*
X93980000Y-134931900D01*
X154525000Y-146876054D02*
X154567022Y-146834032D01*
X218647277Y-139769682D02*
X218647277Y-136660656D01*
X147748900Y-166210000D02*
X147748900Y-164125270D01*
X218490163Y-136220744D02*
X217500744Y-136220744D01*
X264265489Y-130343237D02*
X264288199Y-130320527D01*
X94717809Y-141762179D02*
X95021716Y-142066086D01*
X211712664Y-149502754D02*
X211712664Y-146704295D01*
X264265489Y-140781991D02*
X264265489Y-130343237D01*
X310677000Y-123876300D02*
X311764000Y-122789300D01*
X311764000Y-140831810D02*
X311764000Y-129177951D01*
X188306612Y-147730966D02*
X187596699Y-147021052D01*
X154525000Y-158331025D02*
X154525000Y-146876054D01*
X311764000Y-129177951D02*
X310677000Y-128090951D01*
X151948743Y-160907282D02*
X154525000Y-158331025D01*
X187596699Y-147021052D02*
X185121052Y-147021052D01*
X310677000Y-128090951D02*
X310677000Y-123876300D01*
X147748900Y-164125270D02*
X150966888Y-160907282D01*
X218647277Y-136660656D02*
X218643975Y-136657354D01*
X190871092Y-151164445D02*
X189432818Y-151164445D01*
X150966888Y-160907282D02*
X151948743Y-160907282D01*
X188580537Y-148004890D02*
X188306612Y-147730966D01*
X93980000Y-141024370D02*
X94717809Y-141762179D01*
X188685672Y-150417299D02*
X188685672Y-148110026D01*
%TO.N,Net-(IC10-Pad9)*%
X169950493Y-160034982D02*
X169950493Y-157250493D01*
X216825619Y-146487067D02*
X216825619Y-146437134D01*
X236348260Y-120826740D02*
X240925000Y-116250000D01*
X169950493Y-157250493D02*
X169837264Y-157137264D01*
X236348260Y-126914493D02*
X236348260Y-120826740D01*
X216825619Y-146437134D02*
X236348260Y-126914493D01*
X184915537Y-149500000D02*
X184915537Y-157120000D01*
%TO.N,/OE4*%
X164971233Y-128266954D02*
X164971233Y-130766064D01*
X166778293Y-132573124D02*
X166778293Y-147552181D01*
X197152751Y-122744611D02*
X197152751Y-124667245D01*
X204963455Y-120004856D02*
X203016787Y-121951524D01*
X204963455Y-116183619D02*
X204963455Y-120004856D01*
X166778293Y-147552181D02*
X166787619Y-147561507D01*
X203016787Y-121951524D02*
X197945838Y-121951524D01*
X164971233Y-130766064D02*
X166778293Y-132573124D01*
X197945838Y-121951524D02*
X197152751Y-122744611D01*
%TO.N,/OE2*%
X142369215Y-123200275D02*
X142369215Y-122049215D01*
X238002746Y-112703585D02*
X233420316Y-117286015D01*
X342244000Y-129177952D02*
X342244000Y-129328835D01*
X139016149Y-153133995D02*
X139016149Y-147318025D01*
X341157000Y-126036935D02*
X341157000Y-124615785D01*
X140410000Y-157120000D02*
X140410000Y-154527846D01*
X341157000Y-126036935D02*
X341157000Y-128090951D01*
X341157000Y-124615785D02*
X341631074Y-124141711D01*
X343697000Y-123250729D02*
X343697000Y-117622172D01*
X138150963Y-127418527D02*
X142369215Y-123200275D01*
X342004541Y-128938493D02*
X341157000Y-128090951D01*
X342092840Y-129026791D02*
X342004541Y-128938493D01*
X341631074Y-124141711D02*
X342806018Y-124141711D01*
X138150963Y-146452839D02*
X138150963Y-127418527D01*
X342004541Y-128938493D02*
X342244000Y-129177952D01*
X238022221Y-112703585D02*
X238002746Y-112703585D01*
X142369215Y-122049215D02*
X142368069Y-122048069D01*
X342244000Y-129328835D02*
X342244000Y-149138000D01*
X140410000Y-154527846D02*
X139016149Y-153133995D01*
X342806018Y-124141711D02*
X343697000Y-123250729D01*
X139016149Y-147318025D02*
X138150963Y-146452839D01*
%TO.N,Net-(IC10-Pad13)*%
X103889374Y-143659374D02*
X103889374Y-157899529D01*
X106242189Y-164150466D02*
X110854565Y-164150466D01*
X138962754Y-162769125D02*
X140399119Y-161332760D01*
X110870000Y-164700714D02*
X110870000Y-164135031D01*
X110870000Y-163259250D02*
X110847425Y-163236675D01*
X144876132Y-161332760D02*
X146092761Y-160116131D01*
X104983005Y-158993160D02*
X104983005Y-162891282D01*
X110870000Y-164700714D02*
X110870000Y-166210000D01*
X100740000Y-140510000D02*
X103889374Y-143659374D01*
X103889374Y-157899529D02*
X104983005Y-158993160D01*
X110870000Y-164135031D02*
X110870000Y-163259250D01*
X140399119Y-161332760D02*
X144876132Y-161332760D01*
X110854565Y-164150466D02*
X110870000Y-164135031D01*
X153110000Y-158783295D02*
X153110000Y-157120000D01*
X146092761Y-160116131D02*
X151777164Y-160116131D01*
X151777164Y-160116131D02*
X153110000Y-158783295D01*
X104983005Y-162891282D02*
X106242189Y-164150466D01*
%TO.N,Net-(IC11-Pad3)*%
X191300000Y-129185494D02*
X191300000Y-132055537D01*
X191300000Y-132055537D02*
X189995537Y-133360000D01*
X192133708Y-124249126D02*
X192107607Y-124275227D01*
X192133708Y-113360000D02*
X192133708Y-124249126D01*
X192107607Y-128377887D02*
X191300000Y-129185494D01*
X192107607Y-124275227D02*
X192107607Y-128377887D01*
%TO.N,Net-(IC11-Pad4)*%
X190748708Y-116200000D02*
X190748708Y-128326854D01*
X190748708Y-128326854D02*
X187455537Y-131620025D01*
X187455537Y-131620025D02*
X187455537Y-133360000D01*
%TO.N,Net-(IC11-Pad5)*%
X184915537Y-119744882D02*
X184915537Y-133360000D01*
X183823708Y-118653053D02*
X184915537Y-119744882D01*
X183823708Y-113360000D02*
X183823708Y-118653053D01*
%TO.N,Net-(IC11-Pad6)*%
X182438708Y-133296829D02*
X182375537Y-133360000D01*
X182438708Y-116200000D02*
X182438708Y-133296829D01*
%TO.N,/D7*%
X249960000Y-132185049D02*
X249960000Y-133338630D01*
X328560134Y-167172173D02*
X329334073Y-166398234D01*
X333537000Y-129093700D02*
X332084000Y-127640700D01*
X215258294Y-123931275D02*
X200309809Y-123931275D01*
X332084000Y-153989400D02*
X333537000Y-152536400D01*
X289345600Y-181794247D02*
X289345600Y-180335000D01*
X200309809Y-123931275D02*
X199012030Y-125229054D01*
X278060600Y-179100132D02*
X278060600Y-184080600D01*
X242050000Y-157731674D02*
X242050000Y-148921246D01*
X329334073Y-166398234D02*
X329334073Y-159790413D01*
X218919175Y-128217284D02*
X218919175Y-131760310D01*
X329334073Y-159790413D02*
X332084000Y-157040486D01*
X332084000Y-157040486D02*
X332084000Y-153989400D01*
X219825609Y-132649529D02*
X220118040Y-132941960D01*
X242050000Y-148921246D02*
X245773316Y-145197930D01*
X218919175Y-131760310D02*
X219808394Y-132649529D01*
X118483151Y-142894376D02*
X118483151Y-140546849D01*
X289345600Y-180335000D02*
X290666443Y-179014157D01*
X218919175Y-128217284D02*
X218919175Y-127592156D01*
X282683689Y-168481444D02*
X282683689Y-174477043D01*
X245773316Y-141211684D02*
X246005000Y-140980000D01*
X165992337Y-133240552D02*
X166013251Y-133219638D01*
X241514070Y-200556891D02*
X242601070Y-199469891D01*
X199012030Y-129234543D02*
X197169505Y-131077068D01*
X300397067Y-179014157D02*
X307588617Y-171822607D01*
X278857906Y-184877906D02*
X281950123Y-184877906D01*
X242601070Y-177610067D02*
X242601070Y-158392680D01*
X242601070Y-199469891D02*
X242601070Y-186978798D01*
X333537000Y-152536400D02*
X333537000Y-129093700D01*
X249959866Y-137025134D02*
X246005000Y-140980000D01*
X290666443Y-179014157D02*
X300397067Y-179014157D01*
X284752025Y-182076004D02*
X289063843Y-182076004D01*
X289063843Y-182076004D02*
X289345600Y-181794247D01*
X242601070Y-186978798D02*
X242601070Y-177610067D01*
X278060600Y-184080600D02*
X278857906Y-184877906D01*
X199012030Y-125229054D02*
X199012030Y-129234543D01*
X281950123Y-184877906D02*
X284752025Y-182076004D01*
X118483151Y-140546849D02*
X118520000Y-140510000D01*
X249863734Y-130631053D02*
X249943844Y-130711163D01*
X249959866Y-133338764D02*
X249959866Y-137025134D01*
X242601070Y-158392680D02*
X241995032Y-157786642D01*
X219808394Y-132649529D02*
X219825609Y-132649529D01*
X148030000Y-140980000D02*
X148030000Y-142678396D01*
X241995032Y-157786642D02*
X242050000Y-157731674D01*
X307588617Y-171822607D02*
X317547189Y-171822607D01*
X165992337Y-140592337D02*
X165992337Y-133240552D01*
X249943844Y-130711163D02*
X249943844Y-132168893D01*
X249960000Y-133338630D02*
X249959866Y-133338764D01*
X317547189Y-171822607D02*
X322197623Y-167172173D01*
X282683689Y-174477043D02*
X278060600Y-179100132D01*
X249943844Y-132168893D02*
X249960000Y-132185049D01*
X218919175Y-127592156D02*
X215258294Y-123931275D01*
X322197623Y-167172173D02*
X328560134Y-167172173D01*
X245773316Y-145197930D02*
X245773316Y-141211684D01*
%TO.N,/D6*%
X239269434Y-142751723D02*
X241693277Y-142751723D01*
X328392744Y-165588373D02*
X328392744Y-159564283D01*
X241514070Y-196556891D02*
X241514070Y-174005339D01*
X241543615Y-173975794D02*
X241543615Y-160186115D01*
X289130458Y-178010142D02*
X300256972Y-178010142D01*
X321695602Y-166296306D02*
X327684811Y-166296306D01*
X327684811Y-166296306D02*
X328392744Y-165588373D01*
X118534026Y-127363164D02*
X118520000Y-127377190D01*
X152015473Y-142827471D02*
X151695000Y-142506998D01*
X241514070Y-174005339D02*
X241543615Y-173975794D01*
X241543615Y-160186115D02*
X238558454Y-157200954D01*
X330631000Y-128727700D02*
X329544000Y-127640700D01*
X274662455Y-182892844D02*
X274662455Y-166176783D01*
X154254175Y-126695582D02*
X154254175Y-128281827D01*
X238558454Y-143462703D02*
X239269434Y-142751723D01*
X329544000Y-153989400D02*
X330631000Y-152902400D01*
X286805600Y-180335000D02*
X289130458Y-178010142D01*
X154245715Y-128290287D02*
X154245715Y-129684285D01*
X300256972Y-178010142D02*
X307238379Y-171028735D01*
X151695000Y-142506998D02*
X151695000Y-134485000D01*
X154254175Y-128281827D02*
X154245715Y-128290287D01*
X330631000Y-152902400D02*
X330631000Y-128727700D01*
X328392744Y-159564283D02*
X329544000Y-158413027D01*
X118520000Y-127377190D02*
X118520000Y-132890000D01*
X238558454Y-157200954D02*
X238558454Y-143462703D01*
X154245715Y-129684285D02*
X150570000Y-133360000D01*
X316963173Y-171028735D02*
X321695602Y-166296306D01*
X241693277Y-142751723D02*
X243465000Y-140980000D01*
X307238379Y-171028735D02*
X316963173Y-171028735D01*
X151695000Y-134485000D02*
X150570000Y-133360000D01*
X329544000Y-158413027D02*
X329544000Y-153989400D01*
%TO.N,/D5*%
X272757944Y-166877259D02*
X272757944Y-181991968D01*
X328091000Y-128727700D02*
X327004000Y-127640700D01*
X299649892Y-177333016D02*
X287267584Y-177333016D01*
X240052802Y-161231775D02*
X240052802Y-175036479D01*
X240264777Y-175248454D02*
X240061070Y-175248454D01*
X316648102Y-170164815D02*
X306818093Y-170164815D01*
X287267584Y-177333016D02*
X284265600Y-180335000D01*
X116010569Y-143837941D02*
X116010569Y-140540569D01*
X327004000Y-157720230D02*
X327004000Y-153989400D01*
X176125493Y-161674760D02*
X176151180Y-161649073D01*
X327004000Y-153989400D02*
X328091000Y-152902400D01*
X328091000Y-152902400D02*
X328091000Y-128727700D01*
X174755537Y-146815537D02*
X174755537Y-140980000D01*
X240052802Y-175036479D02*
X240264777Y-175248454D01*
X176151180Y-148211180D02*
X174755537Y-146815537D01*
X240061070Y-175248454D02*
X240049266Y-175236650D01*
X240274594Y-199256367D02*
X238974070Y-200556891D01*
X174212476Y-140980000D02*
X174755537Y-140980000D01*
X306818093Y-170164815D02*
X299649892Y-177333016D01*
X116010569Y-140540569D02*
X115980000Y-140510000D01*
X171501291Y-143555827D02*
X171636649Y-143555827D01*
X176151180Y-161649073D02*
X176151180Y-148211180D01*
X326326341Y-165378231D02*
X321434686Y-165378231D01*
X327178586Y-164525986D02*
X326326341Y-165378231D01*
X140410000Y-140980000D02*
X140410000Y-143846196D01*
X321434686Y-165378231D02*
X316648102Y-170164815D01*
X327178586Y-161454200D02*
X327178586Y-164525986D01*
X240274594Y-175258271D02*
X240274594Y-199256367D01*
X240264777Y-175248454D02*
X240274594Y-175258271D01*
X171636649Y-143555827D02*
X174212476Y-140980000D01*
%TO.N,/D4*%
X324433565Y-161430612D02*
X324310260Y-161430612D01*
X324464000Y-157741968D02*
X324464000Y-153989400D01*
X238565846Y-160493544D02*
X238749345Y-160677043D01*
X325551000Y-128727700D02*
X324464000Y-127640700D01*
X176117529Y-138779776D02*
X170849801Y-138779776D01*
X299263139Y-176437582D02*
X285623018Y-176437582D01*
X324464000Y-153989400D02*
X325551000Y-152902400D01*
X271718475Y-167838735D02*
X271718475Y-180886483D01*
X324480263Y-157758231D02*
X324464000Y-157741968D01*
X246691908Y-142833092D02*
X248545000Y-140980000D01*
X177280176Y-161109171D02*
X177295537Y-161093810D01*
X139131740Y-138998041D02*
X142950000Y-135179781D01*
X306478038Y-169222683D02*
X299263139Y-176437582D01*
X249765632Y-171310883D02*
X249765632Y-160927994D01*
X177295537Y-161093810D02*
X177295537Y-140980000D01*
X271686018Y-167806278D02*
X271718475Y-167838735D01*
X170849801Y-138779776D02*
X167503293Y-135433268D01*
X247290618Y-158452980D02*
X247290618Y-146742476D01*
X177295537Y-140980000D02*
X177295537Y-139957784D01*
X249765632Y-160927994D02*
X247290618Y-158452980D01*
X167503293Y-135433268D02*
X167503293Y-132338430D01*
X177295537Y-139957784D02*
X176117529Y-138779776D01*
X316518189Y-169222683D02*
X306478038Y-169222683D01*
X238974070Y-196556891D02*
X238974070Y-176304518D01*
X93511033Y-147677392D02*
X93511033Y-142596683D01*
X285623018Y-176437582D02*
X281725600Y-180335000D01*
X271718475Y-180886483D02*
X271687053Y-180917905D01*
X139131740Y-144656195D02*
X139131740Y-138998041D01*
X93479863Y-147708562D02*
X93511033Y-147677392D01*
X246691908Y-146143766D02*
X246691908Y-142833092D01*
X247290618Y-146742476D02*
X246691908Y-146143766D01*
X325551000Y-152902400D02*
X325551000Y-128727700D01*
X142950000Y-135179781D02*
X142950000Y-133360000D01*
X238749345Y-176079793D02*
X238974070Y-176304518D01*
X238749345Y-160677043D02*
X238749345Y-176079793D01*
X324310260Y-161430612D02*
X316518189Y-169222683D01*
%TO.N,Net-(IC4-Pad6)*%
X210219537Y-156807077D02*
X210196700Y-156784240D01*
X210196700Y-156784240D02*
X210196700Y-141354847D01*
X192535537Y-166210000D02*
X192535537Y-159943454D01*
X243465000Y-134167269D02*
X243465000Y-133360000D01*
X242672689Y-134959580D02*
X243465000Y-134167269D01*
X239716638Y-134959580D02*
X242672689Y-134959580D01*
X235322770Y-141332089D02*
X235322770Y-139353448D01*
X192535537Y-159943454D02*
X193285162Y-159193829D01*
X235322770Y-139353448D02*
X239716638Y-134959580D01*
X210196700Y-141354847D02*
X210173942Y-141332089D01*
%TO.N,/RST*%
X138151240Y-148495428D02*
X138172773Y-148516961D01*
X245909232Y-161246703D02*
X247873822Y-163211293D01*
X244595164Y-140394240D02*
X247320477Y-137668926D01*
X240924752Y-148007155D02*
X244586871Y-144345036D01*
X244586871Y-144345036D02*
X244595164Y-144345036D01*
X338588030Y-123905270D02*
X339704000Y-122789300D01*
X124642875Y-147383027D02*
X124725000Y-147300902D01*
X249152611Y-129467607D02*
X252622987Y-129467607D01*
X244595164Y-144345036D02*
X244595164Y-142995164D01*
X247320477Y-131320556D02*
X248085297Y-130555736D01*
X255040000Y-118575000D02*
X256165000Y-117450000D01*
X240251901Y-148007155D02*
X240924752Y-148007155D01*
X339704000Y-129177951D02*
X338588030Y-128061981D01*
X124725000Y-134015000D02*
X123600000Y-132890000D01*
X247320477Y-137668926D02*
X247320477Y-131320556D01*
X123680000Y-148345902D02*
X123680000Y-149500000D01*
X173666436Y-147666225D02*
X174433309Y-148433098D01*
X247873822Y-199277139D02*
X246594070Y-200556891D01*
X248085297Y-130534921D02*
X249152611Y-129467607D01*
X173666436Y-142738203D02*
X173666436Y-147666225D01*
X338588030Y-128061981D02*
X338588030Y-123905270D01*
X256165000Y-117450000D02*
X256165000Y-116250000D01*
X174433309Y-162375227D02*
X174457342Y-162399260D01*
X339704000Y-149138000D02*
X339704000Y-129177951D01*
X248085297Y-130555736D02*
X248085297Y-130534921D01*
X235440750Y-161986095D02*
X235440750Y-149080750D01*
X252622987Y-129467607D02*
X255040000Y-127050595D01*
X138172773Y-158569283D02*
X139310477Y-159706987D01*
X124642875Y-147383027D02*
X124582951Y-147442951D01*
X124725000Y-147300902D02*
X124725000Y-134015000D01*
X243966278Y-161246703D02*
X245909232Y-161246703D01*
X174433309Y-148433098D02*
X174433309Y-162375227D01*
X255040000Y-127050595D02*
X255040000Y-118575000D01*
X138172773Y-148516961D02*
X138172773Y-158569283D01*
X184915537Y-166210000D02*
X184915537Y-162140782D01*
X124582951Y-147442951D02*
X123680000Y-148345902D01*
X247873822Y-163211293D02*
X247873822Y-199277139D01*
X139310477Y-159706987D02*
X140011803Y-159706987D01*
X244595164Y-142995164D02*
X244595164Y-140394240D01*
%TO.N,Net-(IC12-Pad12)*%
X113520000Y-157120000D02*
X113520000Y-158859011D01*
%TO.N,/ROMSTB*%
X301604000Y-117741769D02*
X301604000Y-122789300D01*
X105582898Y-129369572D02*
X107096570Y-130883244D01*
X108330000Y-171001963D02*
X108330000Y-173830000D01*
X108081401Y-162221671D02*
X111782474Y-162221671D01*
X300517000Y-128090951D02*
X300517000Y-123876300D01*
X105365000Y-119192501D02*
X105582898Y-119410399D01*
X108297697Y-170969660D02*
X108330000Y-171001963D01*
X301604000Y-149138000D02*
X301604000Y-129177951D01*
X107096570Y-161236840D02*
X108081401Y-162221671D01*
X301604000Y-129177951D02*
X300517000Y-128090951D01*
X112142967Y-162582164D02*
X112142967Y-167124390D01*
X300517000Y-123876300D02*
X301604000Y-122789300D01*
X112142967Y-167124390D02*
X108297697Y-170969660D01*
X105365000Y-114086227D02*
X105365000Y-119192501D01*
X298712212Y-114849981D02*
X301604000Y-117741769D01*
X107096570Y-130883244D02*
X107096570Y-161236840D01*
X111782474Y-162221671D02*
X112142967Y-162582164D01*
X105582898Y-119410399D02*
X105582898Y-129369572D01*
%TO.N,/STAT*%
X117475000Y-159100388D02*
X117075000Y-159500388D01*
X117489457Y-146988832D02*
X117475000Y-147003289D01*
X117475000Y-147003289D02*
X117475000Y-159100388D01*
X145490000Y-138369695D02*
X148030000Y-135829695D01*
X145490000Y-140980000D02*
X145490000Y-138854966D01*
X117075000Y-159500388D02*
X117075000Y-168074584D01*
X115950000Y-169199584D02*
X115950000Y-173830000D01*
X117075000Y-168074584D02*
X115950000Y-169199584D01*
X148030000Y-135829695D02*
X148030000Y-133360000D01*
X145490000Y-140980000D02*
X145490000Y-146463005D01*
X145490000Y-138854966D02*
X145490000Y-138369695D01*
%TO.N,/A3*%
X310677000Y-129093700D02*
X309224000Y-127640700D01*
X256888686Y-174759624D02*
X256888686Y-162466837D01*
X214819700Y-185735391D02*
X214819700Y-199311261D01*
X310677000Y-152536400D02*
X310677000Y-129093700D01*
X296965600Y-165095000D02*
X302385777Y-159674823D01*
X262982824Y-156372699D02*
X262982824Y-144225077D01*
X265709518Y-141498383D02*
X265709518Y-131553314D01*
X262982824Y-144225077D02*
X265709518Y-141498383D01*
X309224000Y-153989400D02*
X310677000Y-152536400D01*
X214819700Y-199311261D02*
X213574070Y-200556891D01*
X302385777Y-159674823D02*
X303538577Y-159674823D01*
X256888686Y-162466837D02*
X262982824Y-156372699D01*
X303538577Y-159674823D02*
X309224000Y-153989400D01*
%TO.N,Net-(IC15-Pad5)*%
X147839002Y-131010998D02*
X148932645Y-131010998D01*
X149458002Y-125932549D02*
X151666856Y-123723695D01*
X149458002Y-130485641D02*
X149458002Y-125932549D01*
X148932645Y-131010998D02*
X149458002Y-130485641D01*
X151666856Y-123723695D02*
X151666856Y-120029639D01*
X186511643Y-122252949D02*
X186593708Y-122170884D01*
X186593708Y-122170884D02*
X186593708Y-113360000D01*
X145490000Y-133360000D02*
X147839002Y-131010998D01*
%TO.N,Net-(IC15-Pad9)*%
X178120439Y-122993471D02*
X178283708Y-122830202D01*
X144365000Y-126892745D02*
X147028150Y-124229595D01*
X147028150Y-124229595D02*
X147028150Y-120092658D01*
X178283708Y-122830202D02*
X178283708Y-113360000D01*
X144365000Y-139565000D02*
X144365000Y-126892745D01*
X142950000Y-140980000D02*
X144365000Y-139565000D01*
%TO.N,Net-(IC16-Pad2)*%
X121060000Y-128619441D02*
X111620000Y-119179441D01*
X111620000Y-119179441D02*
X111620000Y-118705800D01*
X121060000Y-132890000D02*
X121060000Y-128619441D01*
%TO.N,Net-(IC16-Pad5)*%
X113440000Y-124279303D02*
X113440000Y-132890000D01*
X113353664Y-124192967D02*
X113440000Y-124279303D01*
%TO.N,Net-(IC16-Pad6)*%
X110900000Y-125200971D02*
X108351018Y-122651989D01*
X110900000Y-126140000D02*
X110900000Y-125200971D01*
X110900000Y-132890000D02*
X110900000Y-126140000D01*
%TO.N,Net-(IC16-Pad9)*%
X103280000Y-132890000D02*
X103280000Y-120525800D01*
X103280000Y-120525800D02*
X101460000Y-118705800D01*
%TO.N,Net-(IC16-Pad12)*%
X104405000Y-139385000D02*
X104405000Y-119110800D01*
X104405000Y-119110800D02*
X104000000Y-118705800D01*
X103280000Y-140510000D02*
X104405000Y-139385000D01*
%TO.N,Net-(IC16-Pad15)*%
X112025000Y-139385000D02*
X112025000Y-124190800D01*
X110900000Y-140510000D02*
X112025000Y-139385000D01*
X112025000Y-124190800D02*
X106540000Y-118705800D01*
%TO.N,Net-(IC16-Pad16)*%
X113440000Y-140510000D02*
X114699509Y-139250491D01*
X114699509Y-124325309D02*
X109080000Y-118705800D01*
X114699509Y-139250491D02*
X114699509Y-124325309D01*
%TO.N,Net-(IC16-Pad19)*%
X122262073Y-139307927D02*
X122262073Y-127802055D01*
X122262073Y-127802055D02*
X114160000Y-119699982D01*
X121060000Y-140510000D02*
X122262073Y-139307927D01*
X114160000Y-119699982D02*
X114160000Y-118705800D01*
D25*
%TO.N,-5V*%
X259294070Y-196556891D02*
X259294070Y-165312420D01*
X324464000Y-149138000D02*
X324464000Y-132736000D01*
X259294070Y-165312420D02*
X259294070Y-163256544D01*
X259323180Y-163227434D02*
X270842114Y-163227434D01*
X270842114Y-132780475D02*
X270842114Y-163227434D01*
X259294070Y-200556891D02*
X259294070Y-196556891D01*
D24*
X259294070Y-163256544D02*
X259323180Y-163227434D01*
%TO.N,/SND0*%
X262693248Y-157970332D02*
X262693248Y-158165438D01*
X297703601Y-127939432D02*
X297703601Y-124155826D01*
X297703601Y-124155826D02*
X297885726Y-123973701D01*
X299064000Y-149138000D02*
X299064000Y-129299831D01*
X250587070Y-199469891D02*
X250587070Y-163432930D01*
X251674070Y-200556891D02*
X250587070Y-199469891D01*
X297885726Y-123973701D02*
X297885726Y-123967574D01*
X299064000Y-129299831D02*
X297703601Y-127939432D01*
X297885726Y-123967574D02*
X299064000Y-122789300D01*
X262693248Y-158165438D02*
X257613186Y-163245500D01*
%TO.N,/16MHZ*%
X278286460Y-159804757D02*
X273209525Y-164881692D01*
X287377622Y-151339163D02*
X287377622Y-152344837D01*
X304144000Y-149138000D02*
X304144000Y-129177951D01*
X303057000Y-128090951D02*
X303057000Y-123876300D01*
X279917702Y-159804757D02*
X278286460Y-159804757D01*
X287377622Y-152344837D02*
X279917702Y-159804757D01*
X303057000Y-123876300D02*
X304144000Y-122789300D01*
X304144000Y-129177951D02*
X303057000Y-128090951D01*
X251674070Y-196556891D02*
X251674070Y-164893331D01*
X273209525Y-164881692D02*
X272149669Y-164881692D01*
%TO.N,/NMI*%
X316844000Y-149138000D02*
X316844000Y-144847594D01*
X315752524Y-128086475D02*
X315752524Y-123880776D01*
X316844000Y-140007958D02*
X316844000Y-129177951D01*
X315752524Y-123880776D02*
X316844000Y-122789300D01*
X316844000Y-144847594D02*
X316844000Y-140007958D01*
X316844000Y-129177951D02*
X315752524Y-128086475D01*
X290297529Y-151298852D02*
X280616624Y-160979757D01*
X246594070Y-196556891D02*
X246594070Y-164065197D01*
X290297529Y-145069954D02*
X290297529Y-151298852D01*
X280616624Y-160979757D02*
X279242379Y-160979757D01*
%TO.N,/IRQ*%
X289258103Y-146024001D02*
X289272345Y-146038243D01*
X280443276Y-160254757D02*
X278942074Y-160254757D01*
X314304000Y-145940170D02*
X314304000Y-129177951D01*
X244054070Y-200556891D02*
X245141070Y-199469891D01*
X245141070Y-199469891D02*
X245141070Y-191801070D01*
X313217000Y-128090951D02*
X313217000Y-123876300D01*
X314304000Y-129177951D02*
X313217000Y-128090951D01*
X273663008Y-165533823D02*
X273663008Y-178278150D01*
X314304000Y-149138000D02*
X314304000Y-145940170D01*
X278942074Y-160254757D02*
X273663008Y-165533823D01*
X289272345Y-146038243D02*
X289272345Y-151425688D01*
X313217000Y-123876300D02*
X314304000Y-122789300D01*
X289272345Y-151425688D02*
X280443276Y-160254757D01*
%TO.N,/NRDY*%
X318274236Y-123899064D02*
X319384000Y-122789300D01*
X233920233Y-173536685D02*
X232495932Y-174960986D01*
X232495932Y-199415029D02*
X231354070Y-200556891D01*
X319384000Y-149138000D02*
X319384000Y-129280192D01*
X233920233Y-159784138D02*
X233920233Y-173536685D01*
X318274236Y-128170428D02*
X318274236Y-123899064D01*
X319384000Y-129280192D02*
X318274236Y-128170428D01*
X232495932Y-174960986D02*
X232495932Y-199415029D01*
%TO.N,Net-(J1-Pad1)*%
X97079593Y-140387161D02*
X99078496Y-142386064D01*
X99078496Y-142386064D02*
X100856875Y-142386064D01*
X103416182Y-148556430D02*
X103416182Y-163092013D01*
X101113280Y-142642469D02*
X101113280Y-146253528D01*
X101113280Y-146253528D02*
X103416182Y-148556430D01*
X97079593Y-131772218D02*
X97079593Y-140387161D01*
X100856875Y-142386064D02*
X101113280Y-142642469D01*
%TO.N,Net-(Q1-Pad2)*%
X99843280Y-147347740D02*
X101954254Y-149458714D01*
X101954254Y-153688876D02*
X98572877Y-157070253D01*
X101954254Y-149458714D02*
X101954254Y-153688876D01*
X99843280Y-146536720D02*
X99843280Y-147347740D01*
X99843280Y-143706587D02*
X99843280Y-146536720D01*
%TO.N,Net-(R4-Pad2)*%
X295298634Y-128287173D02*
X295298634Y-124014666D01*
X295298634Y-124014666D02*
X296524000Y-122789300D01*
X296524000Y-131214433D02*
X296524000Y-129512539D01*
X296524000Y-129512539D02*
X295298634Y-128287173D01*
X296524000Y-149138000D02*
X296524000Y-131214433D01*
%TO.N,/NC*%
X320837000Y-128090951D02*
X320837000Y-123876300D01*
X321924000Y-149138000D02*
X321924000Y-129177951D01*
X320837000Y-123876300D02*
X321924000Y-122789300D01*
X321924000Y-129177951D02*
X320837000Y-128090951D01*
%TO.N,Net-(IC13-Pad3)*%
X118490000Y-166210000D02*
X118490000Y-159130000D01*
X135359370Y-147518081D02*
X135359370Y-158608558D01*
X135359370Y-158608558D02*
X135359370Y-159153407D01*
X143295414Y-144280327D02*
X143295414Y-146213207D01*
X135297105Y-147455816D02*
X135359370Y-147518081D01*
X143295414Y-146213207D02*
X142006106Y-147502515D01*
%TO.N,/ROMQA*%
X217216650Y-139631897D02*
X216181945Y-140666602D01*
X305595626Y-128089577D02*
X305595626Y-123877674D01*
X306684000Y-149138000D02*
X306684000Y-137184915D01*
X247420000Y-124484038D02*
X247420000Y-122455000D01*
X189995537Y-147704373D02*
X189995537Y-149500000D01*
X190002699Y-147697211D02*
X189995537Y-147704373D01*
X217216650Y-137201933D02*
X217216650Y-139631897D01*
X305595626Y-123877674D02*
X306684000Y-122789300D01*
X211117087Y-146218166D02*
X211062965Y-146218166D01*
X306684000Y-137184915D02*
X306684000Y-129177951D01*
X217183170Y-137168453D02*
X217216650Y-137201933D01*
X242968135Y-125695456D02*
X246208582Y-125695456D01*
X231503591Y-137160000D02*
X242968135Y-125695456D01*
X247420000Y-122455000D02*
X253625000Y-116250000D01*
X216181945Y-140666602D02*
X216181945Y-141153308D01*
X216181945Y-141153308D02*
X211117087Y-146218166D01*
X190002699Y-146284044D02*
X190002699Y-147697211D01*
X246208582Y-125695456D02*
X247420000Y-124484038D01*
X306684000Y-129177951D02*
X305595626Y-128089577D01*
%TO.N,/SOUNDIN*%
X292531000Y-124242300D02*
X293984000Y-122789300D01*
X293984000Y-149138000D02*
X292531000Y-147685000D01*
X292531000Y-147685000D02*
X292531000Y-124242300D01*
%TO.N,Net-(IC8-Pad11)*%
X216149000Y-147461971D02*
X216149000Y-149500000D01*
X187455537Y-157120000D02*
X187455537Y-149500000D01*
%TO.N,Net-(IC17-Pad1)*%
X90563140Y-131724960D02*
X89398100Y-132890000D01*
X90563140Y-123460909D02*
X90563140Y-131724960D01*
X91978140Y-122045909D02*
X90563140Y-123460909D01*
%TO.N,Net-(IC17-Pad4)*%
X66848296Y-127044984D02*
X65211871Y-128681409D01*
X84358140Y-125575707D02*
X84358140Y-122045909D01*
X84337003Y-125596844D02*
X84358140Y-125575707D01*
X79359065Y-127044984D02*
X80403140Y-126000909D01*
X79359065Y-127044984D02*
X66848296Y-127044984D01*
%TO.N,Net-(IC17-Pad6)*%
X72881091Y-123170909D02*
X70645351Y-120935169D01*
X78153140Y-123170909D02*
X72881091Y-123170909D01*
X70645351Y-120935169D02*
X67009599Y-120935169D01*
X67009599Y-120935169D02*
X65401369Y-122543399D01*
X79278140Y-122045909D02*
X78153140Y-123170909D01*
%TO.N,Net-(IC17-Pad8)*%
X91938100Y-149505745D02*
X91938100Y-147925600D01*
X91938100Y-151279915D02*
X89398100Y-153819915D01*
X80363100Y-132409898D02*
X77619111Y-129665909D01*
X80363100Y-133355991D02*
X80363100Y-132409898D01*
X77619111Y-129665909D02*
X76738140Y-129665909D01*
X88118626Y-141303128D02*
X88118626Y-140179535D01*
X91938100Y-149505745D02*
X91938100Y-151279915D01*
X92809709Y-145994211D02*
X88118626Y-141303128D01*
X81979612Y-134040521D02*
X81047630Y-134040521D01*
X81047630Y-134040521D02*
X80363100Y-133355991D01*
X92809709Y-147053991D02*
X92809709Y-145994211D01*
X91938100Y-147925600D02*
X92809709Y-147053991D01*
X88118626Y-140179535D02*
X81979612Y-134040521D01*
X89398100Y-153819915D02*
X89398100Y-157125745D01*
%TO.N,Net-(IC19-Pad8)*%
X72206302Y-132971889D02*
X73021272Y-133786859D01*
X73021272Y-136833172D02*
X76698100Y-140510000D01*
X73021272Y-133786859D02*
X73021272Y-136833172D01*
%TO.N,Net-(IC19-Pad10)*%
X64214785Y-130224323D02*
X68658389Y-130224323D01*
X74209047Y-131815117D02*
X74209047Y-135836613D01*
X69663736Y-131229670D02*
X73623600Y-131229670D01*
X74209047Y-135836613D02*
X75454155Y-137081721D01*
X62671871Y-128681409D02*
X64214785Y-130224323D01*
X78349821Y-137081721D02*
X81778100Y-140510000D01*
X75454155Y-137081721D02*
X78349821Y-137081721D01*
X68658389Y-130224323D02*
X69663736Y-131229670D01*
X73623600Y-131229670D02*
X74209047Y-131815117D01*
%TO.N,Net-(IC18-Pad2)*%
X78917426Y-142311792D02*
X79122281Y-142106937D01*
X86963046Y-145014981D02*
X86963046Y-147070691D01*
X58545331Y-143155000D02*
X70365959Y-143155000D01*
X86963046Y-147070691D02*
X89398100Y-149505745D01*
X70365959Y-143155000D02*
X71209167Y-142311792D01*
X84055002Y-142106937D02*
X86963046Y-145014981D01*
X79122281Y-142106937D02*
X84055002Y-142106937D01*
X71209167Y-142311792D02*
X78917426Y-142311792D01*
%TO.N,Net-(IC18-Pad4)*%
X69533785Y-147310000D02*
X61385331Y-147310000D01*
X79608982Y-143281937D02*
X72693102Y-143281937D01*
X84423046Y-149400799D02*
X84318100Y-149505745D01*
X70157543Y-145817496D02*
X70157543Y-146686242D01*
X70157543Y-146686242D02*
X69533785Y-147310000D01*
X72693102Y-143281937D02*
X70157543Y-145817496D01*
X84423046Y-145014981D02*
X84423046Y-149400799D01*
%TO.N,Net-(IC18-Pad10)*%
X63057820Y-150080000D02*
X61385331Y-150080000D01*
X75441422Y-147534873D02*
X75441422Y-155869067D01*
X71868594Y-147534873D02*
X69322429Y-150081038D01*
X75441422Y-155869067D02*
X76698100Y-157125745D01*
X63058858Y-150081038D02*
X63057820Y-150080000D01*
X75441422Y-147534873D02*
X71868594Y-147534873D01*
X69322429Y-150081038D02*
X63058858Y-150081038D01*
%TO.N,Net-(IC18-Pad12)*%
X61385331Y-144540000D02*
X70396532Y-144540000D01*
X72174740Y-142761792D02*
X79103822Y-142761792D01*
X79308677Y-142556937D02*
X81141942Y-142556937D01*
X81778100Y-152691570D02*
X81778100Y-157125745D01*
X70396532Y-144540000D02*
X72174740Y-142761792D01*
X80481052Y-146152987D02*
X80481052Y-151394522D01*
X81141942Y-142556937D02*
X81207940Y-142622935D01*
X80481052Y-151394522D02*
X81778100Y-152691570D01*
X81207940Y-142622935D02*
X81207940Y-143167681D01*
X79360640Y-145014981D02*
X79343046Y-145014981D01*
X81207940Y-143167681D02*
X79360640Y-145014981D01*
X79103822Y-142761792D02*
X79308677Y-142556937D01*
X79343046Y-145014981D02*
X80481052Y-146152987D01*
%TO.N,Net-(IC18-Pad14)*%
X79483832Y-159630729D02*
X84353116Y-159630729D01*
X77944811Y-148600447D02*
X77944811Y-158091708D01*
X76803046Y-145014981D02*
X76803046Y-147458682D01*
X77944811Y-158091708D02*
X79483832Y-159630729D01*
X70362390Y-141770000D02*
X61385331Y-141770000D01*
X76803046Y-147458682D02*
X77944811Y-148600447D01*
X70776416Y-141355974D02*
X70362390Y-141770000D01*
X84353116Y-159630729D02*
X86858100Y-157125745D01*
X73548886Y-141355974D02*
X70776416Y-141355974D01*
%TO.N,/A5*%
X118617570Y-181387382D02*
X147118410Y-181387382D01*
X212487070Y-199103891D02*
X211034070Y-200556891D01*
X75046356Y-136037526D02*
X79845626Y-136037526D01*
X74866987Y-135858157D02*
X75046356Y-136037526D01*
X149667619Y-183936591D02*
X180754772Y-183936591D01*
X307447491Y-159693109D02*
X308600291Y-159693109D01*
X79845626Y-136037526D02*
X84318100Y-140510000D01*
X67751871Y-128681409D02*
X69850132Y-130779670D01*
X69850132Y-130779670D02*
X73996060Y-130779670D01*
X81595239Y-177442317D02*
X85454239Y-181301317D01*
X85454239Y-181301317D02*
X91096048Y-181301317D01*
X73996060Y-130779670D02*
X74866987Y-131650597D01*
X302045600Y-165095000D02*
X307447491Y-159693109D01*
X147118410Y-181387382D02*
X149667619Y-183936591D01*
X71451120Y-172526767D02*
X76366670Y-177442317D01*
X71451120Y-153459670D02*
X71451120Y-172526767D01*
X71130681Y-153139231D02*
X71451120Y-153459670D01*
X315757000Y-152536400D02*
X315757000Y-129093700D01*
X308600291Y-159693109D02*
X314304000Y-153989400D01*
X114061724Y-176831536D02*
X118617570Y-181387382D01*
X212435021Y-188024093D02*
X212435021Y-199051842D01*
X76366670Y-177442317D02*
X81595239Y-177442317D01*
X71130681Y-151280684D02*
X71130681Y-153139231D01*
X180754772Y-183936591D02*
X184915537Y-179775826D01*
X95565829Y-176831536D02*
X114061724Y-176831536D01*
X91096048Y-181301317D02*
X95565829Y-176831536D01*
X74866987Y-131650597D02*
X74866987Y-135858157D01*
X184915537Y-179775826D02*
X184915537Y-173830000D01*
X315757000Y-129093700D02*
X314304000Y-127640700D01*
X314304000Y-153989400D02*
X315757000Y-152536400D01*
X212435021Y-199051842D02*
X212487070Y-199103891D01*
%TO.N,Net-(IC10-Pad4)*%
X164887695Y-132554287D02*
X164887695Y-146085997D01*
X148013014Y-146085997D02*
X148030000Y-146102983D01*
X206381398Y-116231685D02*
X206381398Y-120533580D01*
X148030000Y-146102983D02*
X148030000Y-149500000D01*
X163684137Y-129001184D02*
X163684137Y-131350729D01*
X198017936Y-126710045D02*
X197296948Y-127431033D01*
X204146335Y-122768643D02*
X198522628Y-122768643D01*
X198522628Y-122768643D02*
X198017936Y-123273335D01*
X206381398Y-120533580D02*
X204146335Y-122768643D01*
X163684137Y-131350729D02*
X164887695Y-132554287D01*
X198017936Y-123273335D02*
X198017936Y-126710045D01*
%TO.N,Net-(IC7-Pad12)*%
X203832347Y-155835457D02*
X203832347Y-165232334D01*
X223769000Y-154159029D02*
X223769000Y-157120000D01*
X226309000Y-151619029D02*
X223769000Y-154159029D01*
X201802899Y-167261782D02*
X201802899Y-188883412D01*
X88145928Y-177308639D02*
X86858100Y-176020811D01*
X86858100Y-176020811D02*
X86858100Y-173830000D01*
X88145928Y-179893464D02*
X88145928Y-177308639D01*
X88143742Y-179895650D02*
X88145928Y-179893464D01*
X226309000Y-149500000D02*
X226309000Y-151619029D01*
X203832347Y-165232334D02*
X201802899Y-167261782D01*
%TD*%
M02*
