M48
; DRILL file {KiCad (6.0.11)} date Wed Sep  6 20:25:13 2023
; FORMAT={-:-/ absolute / inch / decimal}
; #@! TF.CreationDate,2023-09-06T20:25:13+01:00
; #@! TF.GenerationSoftware,Kicad,Pcbnew,(6.0.11)
; #@! TF.FileFunction,Plated,1,2,PTH
FMAT,2
INCH
; #@! TA.AperFunction,Plated,PTH,ViaDrill
T1C0.0157
; #@! TA.AperFunction,Plated,PTH,ComponentDrill
T2C0.0295
; #@! TA.AperFunction,Plated,PTH,ComponentDrill
T3C0.0315
; #@! TA.AperFunction,Plated,PTH,ComponentDrill
T4C0.0394
; #@! TA.AperFunction,Plated,PTH,ComponentDrill
T5C0.0400
; #@! TA.AperFunction,Plated,PTH,ComponentDrill
T6C0.0472
; #@! TA.AperFunction,Plated,PTH,ComponentDrill
T7C0.1260
%
G90
G05
T1
X2.7086Y-5.856
X2.7387Y-6.36
X2.7387Y-6.7571
X2.7622Y-5.9378
X2.7624Y-5.5313
X2.8004Y-5.9559
X2.8362Y-5.2933
X2.8364Y-5.8895
X2.8368Y-5.5033
X2.8428Y-5.2351
X2.8838Y-5.2067
X2.8956Y-5.5652
X2.9368Y-6.0368
X2.9701Y-5.8085
X3.1342Y-5.641
X3.1653Y-6.9254
X3.1655Y-4.9607
X3.2196Y-6.3833
X3.2675Y-5.8128
X3.2675Y-6.038
X3.2709Y-6.3839
X3.2825Y-5.0319
X3.3196Y-6.9818
X3.3204Y-4.9448
X3.3941Y-6.9853
X3.4209Y-4.9714
X3.4675Y-5.3895
X3.4702Y-7.0825
X3.5196Y-6.3871
X3.5196Y-7.0483
X3.5479Y-6.2657
X3.5639Y-7.0153
X3.6136Y-5.7785
X3.6803Y-5.8153
X3.6815Y-5.614
X3.7234Y-6.9254
X3.741Y-5.7524
X3.7415Y-6.3171
X3.7482Y-4.4965
X3.7878Y-5.8159
X3.822Y-5.1879
X3.8766Y-5.1234
X3.8767Y-5.4386
X4.1104Y-5.6067
X4.1482Y-4.4916
X4.1693Y-6.3853
X4.2658Y-4.8288
X4.2666Y-5.0486
X4.2693Y-6.3153
X4.2934Y-5.8165
X4.3641Y-6.4266
X4.3661Y-4.9661
X4.4627Y-4.8895
X4.465Y-6.4519
X4.4682Y-6.0882
X4.4693Y-6.2543
X4.5219Y-5.7781
X4.565Y-6.3861
X4.5661Y-5.0495
X4.5673Y-5.6629
X4.6021Y-6.9256
X4.6256Y-5.787
X4.6647Y-5.6258
X4.665Y-6.265
X4.665Y-6.9853
X4.6667Y-5.0143
X4.765Y-6.4519
X4.765Y-6.9218
X4.9048Y-5.8048
X5.1253Y-5.1234
X5.2259Y-5.343
X5.2637Y-6.5445
X5.3099Y-6.386
X5.3267Y-5.8053
X5.3291Y-6.2659
X5.4171Y-6.9554
X5.4379Y-6.3521
X5.439Y-5.8463
X5.471Y-6.4082
X5.4776Y-5.6951
X5.5123Y-6.2877
X5.5166Y-6.9211
X5.5171Y-4.8829
X5.528Y-5.6632
X5.554Y-6.3902
X5.5612Y-6.4687
X5.5908Y-5.8072
X5.605Y-4.805
X5.6416Y-5.6803
X5.6467Y-4.8865
X5.6623Y-7.0012
X5.728Y-5.7663
X5.7612Y-6.3637
X5.7803Y-4.6552
X5.8273Y-5.7514
X5.828Y-5.6173
X5.9118Y-7.0149
X5.928Y-6.2646
X5.9688Y-7.0558
X5.9724Y-6.465
X5.9849Y-5.6231
X6.0612Y-7.0919
X6.073Y-4.988
X6.0853Y-5.7809
X6.2148Y-5.5881
X6.2353Y-4.7647
X6.4443Y-5.0788
X6.4586Y-4.9227
X6.4916Y-5.7514
X6.4949Y-5.0499
X6.5351Y-5.5351
X6.536Y-5.2449
X6.5661Y-6.3643
X6.5664Y-5.8095
X6.5795Y-4.3509
X6.5845Y-4.9849
X6.5946Y-5.2102
X6.6289Y-4.7245
X6.6378Y-5.0214
X6.6476Y-5.1805
X6.6865Y-6.1865
X6.691Y-6.3006
X6.752Y-5.6518
X6.8189Y-6.9275
X6.8236Y-6.3445
X6.8373Y-5.6196
X6.856Y-5.1242
X6.8684Y-6.3937
X6.9341Y-6.3651
X6.9386Y-7.1782
X6.9795Y-6.3429
X7.0126Y-4.8423
X7.071Y-6.9456
X7.077Y-4.8416
X7.0815Y-5.709
X7.1268Y-6.269
X7.153Y-6.9814
X7.1806Y-5.7521
X7.2301Y-5.3895
X7.2455Y-6.2515
X7.2801Y-6.3835
X7.2882Y-5.7882
X7.343Y-4.8131
X7.414Y-5.7762
X7.447Y-4.8378
X7.4801Y-6.2488
X7.4804Y-5.7592
X7.6097Y-6.2675
X7.6244Y-6.4357
X7.6246Y-4.8093
X7.6369Y-6.6078
X7.6491Y-4.3509
X7.677Y-4.8093
X7.6808Y-6.2731
X7.726Y-4.7972
X7.7361Y-7.2439
X7.7619Y-4.9082
X7.7626Y-5.1605
X7.7676Y-5.017
X7.7821Y-6.4994
X7.8171Y-6.8473
X7.8699Y-7.3812
X7.8709Y-6.8791
X7.8956Y-4.3509
X7.9124Y-6.8092
X7.9124Y-7.1515
X7.945Y-7.4364
X7.996Y-6.6539
X8.0249Y-6.1353
X8.0545Y-5.8975
X8.0694Y-4.5742
X8.0817Y-5.7841
X8.1253Y-4.5761
X8.137Y-6.9722
X8.1705Y-6.2402
X8.1705Y-6.4357
X8.2084Y-7.6407
X8.2087Y-6.9722
X8.2286Y-6.2085
X8.2416Y-5.8419
X8.2416Y-5.9304
X8.2512Y-7.5215
X8.2574Y-6.8046
X8.266Y-6.5287
X8.2746Y-5.5643
X8.2764Y-6.1735
X8.279Y-6.2437
X8.3096Y-5.7566
X8.3098Y-7.4471
X8.3159Y-6.4565
X8.3351Y-5.8859
X8.3636Y-7.4025
X8.408Y-7.3623
X8.4575Y-7.3124
X8.4758Y-5.4537
X8.5089Y-7.2643
X8.5098Y-5.8056
X8.5364Y-5.7672
X8.5505Y-5.4003
X8.5548Y-7.2186
X8.563Y-5.363
X8.6077Y-5.7992
X8.6086Y-7.1633
X8.6487Y-5.3548
X8.6617Y-7.6475
X8.6661Y-5.2339
X8.7084Y-7.5813
X8.7512Y-7.6116
X8.7859Y-6.4624
X8.8Y-6.9489
X8.8084Y-7.0162
X8.9769Y-5.2515
X8.9789Y-4.8211
X9.0087Y-7.506
X9.1143Y-5.4
X9.1406Y-4.6459
X9.1521Y-5.8341
X9.1671Y-5.5007
X9.1898Y-4.6176
X9.2075Y-5.7521
X9.2083Y-6.9836
X9.2095Y-6.2907
X9.2111Y-5.7089
X9.2578Y-7.0299
X9.2647Y-5.5643
X9.2693Y-4.9323
X9.2693Y-5.8693
X9.2693Y-6.3774
X9.2702Y-4.6448
X9.3084Y-7.0697
X9.3229Y-5.7161
X9.3512Y-7.1143
X9.371Y-4.4371
X9.3921Y-5.6481
X9.3924Y-6.3186
X9.4084Y-6.9411
X9.4509Y-6.3477
X9.4587Y-5.8271
X9.4592Y-6.8995
X9.481Y-6.5359
X9.5096Y-6.8494
X9.5512Y-6.9925
X9.5666Y-5.108
X9.605Y-6.3483
X9.6054Y-6.3946
X9.6295Y-4.4921
X9.6297Y-5.6297
X9.6323Y-5.0681
X9.6512Y-7.5512
X9.673Y-5.7984
X9.7084Y-6.4593
X9.7873Y-5.1699
X9.8095Y-7.4619
X9.8333Y-6.7445
X9.8372Y-5.143
X9.8656Y-6.4344
X9.9084Y-6.4919
X9.9486Y-6.9846
X9.9608Y-7.4145
X9.9891Y-6.8031
X10.0084Y-7.5062
X10.0295Y-6.3037
X10.0666Y-6.794
X10.1017Y-5.6947
X10.1137Y-6.8803
X10.1423Y-6.427
X10.3423Y-6.2193
X10.4042Y-5.5426
X10.405Y-5.1307
X10.461Y-5.1793
X10.5081Y-4.4094
X10.56Y-5.2581
X10.5649Y-7.8199
X10.6631Y-5.2276
X10.6963Y-6.6065
X10.6963Y-7.1228
X10.7146Y-6.4914
X10.7385Y-6.57
X10.7385Y-7.165
X10.7634Y-5.6274
X10.7741Y-7.0188
X10.8135Y-6.5424
X10.8135Y-7.2005
X10.8763Y-6.3037
X10.9563Y-6.9962
X10.9568Y-7.5822
X10.9938Y-6.3378
X10.996Y-7.6115
X11.0263Y-7.6475
X11.0712Y-7.682
X11.1293Y-6.6331
X11.1826Y-6.6557
X11.3141Y-5.9582
X11.3412Y-5.795
X11.3881Y-5.749
X11.429Y-5.7114
X11.4789Y-6.2126
X11.5756Y-4.5855
X11.6724Y-4.5558
X11.6742Y-5.1659
X11.7603Y-4.5217
X11.817Y-4.7687
X12.0742Y-5.401
X12.0905Y-7.2326
X12.1742Y-5.5782
X12.2742Y-5.5446
X12.3742Y-5.7457
X12.4004Y-6.57
X12.464Y-6.9533
X12.4742Y-5.7027
X12.5422Y-6.9037
X12.5643Y-6.4051
X12.7042Y-4.517
X12.7123Y-6.3553
X12.773Y-6.3555
X12.7742Y-5.2258
X12.7748Y-6.211
X12.8264Y-6.2104
X12.8742Y-6.2095
X12.881Y-6.3565
X13.0781Y-6.2446
X13.1233Y-6.7535
X13.2742Y-5.7936
X13.2759Y-6.2462
X13.4401Y-6.3869
X13.5314Y-4.6308
X13.6968Y-6.2968
X13.6987Y-5.3254
T2
X3.8804Y-5.6761
X3.9304Y-5.6761
X3.9804Y-5.6761
T3
X2.9196Y-5.8861
X2.9196Y-6.1861
X2.9237Y-5.7093
X3.0196Y-5.2319
X3.0196Y-5.5319
X3.0196Y-5.8861
X3.0196Y-6.1861
X3.0196Y-6.5437
X3.0196Y-6.8437
X3.0212Y-4.805
X3.0212Y-5.105
X3.0237Y-5.7093
X3.1196Y-5.2319
X3.1196Y-5.5319
X3.1196Y-5.8861
X3.1196Y-6.1861
X3.1196Y-6.5437
X3.1196Y-6.8437
X3.1212Y-4.805
X3.1212Y-5.105
X3.1237Y-5.7093
X3.2196Y-5.2319
X3.2196Y-5.5319
X3.2196Y-5.8861
X3.2196Y-6.1861
X3.2196Y-6.5437
X3.2196Y-6.8437
X3.2212Y-4.805
X3.2212Y-5.105
X3.2237Y-5.7093
X3.3196Y-5.2319
X3.3196Y-5.5319
X3.3196Y-5.8861
X3.3196Y-6.1861
X3.3196Y-6.5437
X3.3196Y-6.8437
X3.3212Y-4.805
X3.3212Y-5.105
X3.3237Y-5.7093
X3.4196Y-5.2319
X3.4196Y-5.5319
X3.4196Y-5.8861
X3.4196Y-6.1861
X3.4196Y-6.5437
X3.4196Y-6.8437
X3.4212Y-4.805
X3.4212Y-5.105
X3.4237Y-5.7093
X3.5196Y-5.2319
X3.5196Y-5.5319
X3.5196Y-5.8861
X3.5196Y-6.1861
X3.5196Y-6.5437
X3.5196Y-6.8437
X3.5212Y-4.805
X3.5212Y-5.105
X3.6196Y-5.2319
X3.6196Y-5.5319
X3.6196Y-5.8861
X3.6196Y-6.1861
X3.6196Y-6.5437
X3.6196Y-6.8437
X3.6212Y-4.805
X3.6212Y-5.105
X3.7443Y-5.2902
X3.7443Y-5.4871
X3.7446Y-5.9416
X3.7446Y-6.1385
X3.7484Y-4.8685
X3.7484Y-5.0653
X3.7548Y-6.6073
X3.7548Y-6.8041
X3.7715Y-6.4209
X3.8808Y-5.8839
X3.8808Y-6.1839
X3.9661Y-5.2319
X3.9661Y-5.5319
X4.0139Y-5.8842
X4.0139Y-6.1842
X4.0661Y-5.2319
X4.0661Y-5.5319
X4.0715Y-6.4209
X4.1661Y-5.2319
X4.1661Y-5.5319
X4.1693Y-5.8858
X4.1693Y-6.1858
X4.265Y-6.5437
X4.265Y-6.8437
X4.2661Y-5.2319
X4.2661Y-5.5319
X4.2693Y-5.8858
X4.2693Y-6.1858
X4.365Y-6.5437
X4.365Y-6.8437
X4.3661Y-5.2319
X4.3661Y-5.5319
X4.3693Y-5.8858
X4.3693Y-6.1858
X4.465Y-6.5437
X4.465Y-6.8437
X4.4661Y-5.2319
X4.4661Y-5.5319
X4.4693Y-5.8858
X4.4693Y-6.1858
X4.565Y-6.5437
X4.565Y-6.8437
X4.5661Y-5.2319
X4.5661Y-5.5319
X4.5693Y-5.8858
X4.5693Y-6.1858
X4.665Y-6.5437
X4.665Y-6.8437
X4.6661Y-5.2319
X4.6661Y-5.5319
X4.6693Y-5.8858
X4.6693Y-6.1858
X4.765Y-6.5437
X4.765Y-6.8437
X4.7661Y-5.2319
X4.7661Y-5.5319
X4.7693Y-5.8858
X4.7693Y-6.1858
X4.865Y-6.5437
X4.865Y-6.8437
X4.8661Y-5.2319
X4.8661Y-5.5319
X4.8693Y-5.8858
X4.8693Y-6.1858
X5.0104Y-6.6022
X5.0104Y-6.799
X5.0197Y-5.2864
X5.0197Y-5.4832
X5.0197Y-5.9372
X5.0197Y-6.134
X5.4169Y-6.5437
X5.4169Y-6.8437
X5.5169Y-6.5437
X5.5169Y-6.8437
X5.528Y-5.2504
X5.528Y-5.5504
X5.528Y-5.8858
X5.528Y-6.1858
X5.6038Y-4.7287
X5.6038Y-5.0287
X5.6169Y-6.5437
X5.6169Y-6.8437
X5.628Y-5.2504
X5.628Y-5.5504
X5.628Y-5.8858
X5.628Y-6.1858
X5.7169Y-6.5437
X5.7169Y-6.8437
X5.728Y-5.2504
X5.728Y-5.5504
X5.728Y-5.8858
X5.728Y-6.1858
X5.7885Y-4.7281
X5.7885Y-5.0281
X5.8169Y-6.5437
X5.8169Y-6.8437
X5.828Y-5.2504
X5.828Y-5.5504
X5.828Y-5.8858
X5.828Y-6.1858
X5.9169Y-6.5437
X5.9169Y-6.8437
X5.928Y-5.2504
X5.928Y-5.5504
X5.928Y-5.8858
X5.928Y-6.1858
X5.9711Y-4.7256
X5.9711Y-5.0256
X6.0169Y-6.5437
X6.0169Y-6.8437
X6.028Y-5.2504
X6.028Y-5.5504
X6.028Y-5.8858
X6.028Y-6.1858
X6.1169Y-6.5437
X6.1169Y-6.8437
X6.128Y-5.2504
X6.128Y-5.5504
X6.128Y-5.8858
X6.128Y-6.1858
X6.2505Y-6.6072
X6.2505Y-6.8041
X6.2623Y-5.9434
X6.2623Y-6.1402
X6.2635Y-5.2927
X6.2635Y-5.4895
X6.7801Y-5.2504
X6.7801Y-5.5504
X6.8801Y-5.2504
X6.8801Y-5.5504
X6.9801Y-5.2504
X6.9801Y-5.5504
X7.0801Y-5.2504
X7.0801Y-5.5504
X7.0801Y-5.8858
X7.0801Y-6.1858
X7.0801Y-6.5437
X7.0801Y-6.8437
X7.1801Y-5.2504
X7.1801Y-5.5504
X7.1801Y-5.8858
X7.1801Y-6.1858
X7.1801Y-6.5437
X7.1801Y-6.8437
X7.2801Y-5.2504
X7.2801Y-5.5504
X7.2801Y-5.8858
X7.2801Y-6.1858
X7.2801Y-6.5437
X7.2801Y-6.8437
X7.3801Y-5.2504
X7.3801Y-5.5504
X7.3801Y-5.8858
X7.3801Y-6.1858
X7.3801Y-6.5437
X7.3801Y-6.8437
X7.4801Y-5.2504
X7.4801Y-5.5504
X7.4801Y-5.8858
X7.4801Y-6.1858
X7.4801Y-6.5437
X7.4801Y-6.8437
X7.5801Y-5.2504
X7.5801Y-5.5504
X7.5801Y-5.8858
X7.5801Y-6.1858
X7.5801Y-6.5437
X7.5801Y-6.8437
X7.6801Y-5.2504
X7.6801Y-5.5504
X7.6801Y-5.8858
X7.6801Y-6.1858
X7.6801Y-6.5437
X7.6801Y-6.8437
X7.8159Y-6.5875
X7.8159Y-6.7843
X7.8262Y-5.9357
X7.8262Y-6.1326
X7.8283Y-5.3134
X7.8283Y-5.5103
X8.3202Y-4.7721
X8.3202Y-4.969
X8.4098Y-5.8858
X8.4098Y-6.1858
X8.4098Y-6.5437
X8.4098Y-6.8437
X8.5098Y-5.8858
X8.5098Y-6.1858
X8.5098Y-6.5437
X8.5098Y-6.8437
X8.5311Y-4.7321
X8.5311Y-5.0321
X8.6098Y-5.8858
X8.6098Y-6.1858
X8.6098Y-6.5437
X8.6098Y-6.8437
X8.709Y-4.7321
X8.709Y-5.0321
X8.7098Y-5.8858
X8.7098Y-6.1858
X8.7098Y-6.5437
X8.7098Y-6.8437
X8.8098Y-5.8858
X8.8098Y-6.1858
X8.8098Y-6.5437
X8.8098Y-6.8437
X8.8806Y-4.7321
X8.8806Y-5.0321
X8.9098Y-5.8858
X8.9098Y-6.1858
X8.9098Y-6.5437
X8.9098Y-6.8437
X9.0098Y-5.8858
X9.0098Y-6.1858
X9.0098Y-6.5437
X9.0098Y-6.8437
X9.0596Y-4.7321
X9.0596Y-5.0321
X9.1425Y-5.9392
X9.1425Y-6.1361
X9.1462Y-6.5926
X9.1462Y-6.7895
X9.3852Y-4.5768
X9.3852Y-4.8768
X9.4616Y-5.7181
X9.4852Y-4.5768
X9.4852Y-4.8768
X9.4852Y-5.2504
X9.4852Y-5.5504
X9.4852Y-5.8858
X9.4852Y-6.1858
X9.5852Y-4.5768
X9.5852Y-4.8768
X9.5852Y-5.2504
X9.5852Y-5.5504
X9.5852Y-5.8858
X9.5852Y-6.1858
X9.6852Y-4.5768
X9.6852Y-4.8768
X9.6852Y-5.2504
X9.6852Y-5.5504
X9.6852Y-5.8858
X9.6852Y-6.1858
X9.7616Y-5.7181
X9.7852Y-4.5768
X9.7852Y-4.8768
X9.7852Y-5.2504
X9.7852Y-5.5504
X9.7852Y-5.8858
X9.7852Y-6.1858
X9.8852Y-4.5768
X9.8852Y-4.8768
X9.8852Y-5.2504
X9.8852Y-5.5504
X9.8852Y-5.8858
X9.8852Y-6.1858
X9.9852Y-4.5768
X9.9852Y-4.8768
X9.9852Y-5.2504
X9.9852Y-5.5504
X9.9852Y-5.8858
X9.9852Y-6.1858
X10.0364Y-5.7147
X10.0852Y-4.5768
X10.0852Y-4.8768
X10.0852Y-5.2504
X10.0852Y-5.5504
X10.0852Y-5.8858
X10.0852Y-6.1858
X10.2225Y-5.9423
X10.2225Y-6.1392
X10.2244Y-5.3007
X10.2244Y-5.4975
X10.2256Y-4.6272
X10.2256Y-4.8241
X10.2332Y-5.7147
X10.8762Y-7.2327
X10.9916Y-6.4998
X10.9916Y-7.0998
X11.073Y-7.2327
X11.0916Y-6.4998
X11.0916Y-7.0998
X11.1916Y-6.4998
X11.1916Y-7.0998
X11.2916Y-6.4998
X11.2916Y-7.0998
X11.3916Y-6.4998
X11.3916Y-7.0998
X11.4916Y-6.4998
X11.4916Y-7.0998
X11.5916Y-6.4998
X11.5916Y-7.0998
X11.6916Y-6.4998
X11.6916Y-7.0998
X11.7916Y-6.4998
X11.7916Y-7.0998
X11.8916Y-6.4998
X11.8916Y-7.0998
X11.9916Y-6.4998
X11.9916Y-7.0998
X12.0916Y-6.4998
X12.0916Y-7.0998
X12.1916Y-6.4998
X12.1916Y-7.0998
X12.2916Y-6.4998
X12.2916Y-7.0998
X13.3442Y-6.5327
X13.3442Y-6.7295
X14.1523Y-6.552
X14.1523Y-6.852
T4
X2.284Y-5.6343
X2.284Y-5.7434
X2.284Y-5.8524
X2.284Y-5.9615
X2.3958Y-5.5798
X2.3958Y-5.6889
X2.3958Y-5.7979
X2.3958Y-5.907
X2.3958Y-6.016
X2.4674Y-5.0662
X2.4749Y-4.8245
X2.5674Y-5.0662
X2.5749Y-4.8245
X2.6674Y-5.0662
X2.6749Y-4.8245
X3.6945Y-4.5735
X3.6945Y-4.6735
X3.7945Y-4.5735
X3.7945Y-4.6735
X3.8945Y-4.5735
X3.8945Y-4.6735
X3.9945Y-4.5735
X3.9945Y-4.6735
X4.0945Y-4.5735
X4.0945Y-4.6735
X4.1945Y-4.5735
X4.1945Y-4.6735
X4.2945Y-4.5735
X4.2945Y-4.6735
X4.3945Y-4.5735
X4.3945Y-4.6735
X4.4945Y-4.5735
X4.4945Y-4.6735
X4.5945Y-4.5735
X4.5945Y-4.6735
X4.6945Y-4.5735
X4.6945Y-4.6735
X4.7245Y-4.8476
X4.7945Y-4.5735
X4.7945Y-4.6735
X4.8245Y-4.8476
X4.8945Y-4.5735
X4.8945Y-4.6735
X4.9245Y-4.8476
X5.0245Y-4.8476
X5.1245Y-4.8476
X5.2245Y-4.8476
X6.8555Y-4.5748
X6.91Y-4.463
X6.9645Y-4.5748
X7.019Y-4.463
X7.0736Y-4.5748
X7.1281Y-4.463
X7.1826Y-4.5748
X7.2372Y-4.463
X7.2917Y-4.5748
X7.3462Y-4.463
X7.4007Y-4.5748
X7.4553Y-4.463
X7.5098Y-4.5748
X7.5643Y-4.463
X7.6188Y-4.5748
X13.7972Y-7.0255
X13.7973Y-7.167
X13.8Y-6.7093
X13.8Y-6.8509
X13.8972Y-7.0255
X13.8973Y-7.167
X13.9Y-6.7093
X13.9Y-6.8509
T5
X8.0084Y-7.7385
X8.0084Y-7.8959
X8.1084Y-7.7385
X8.1084Y-7.8959
X8.2084Y-7.7385
X8.2084Y-7.8959
X8.3084Y-7.7385
X8.3084Y-7.8959
X8.4084Y-7.7385
X8.4084Y-7.8959
X8.5084Y-7.7385
X8.5084Y-7.8959
X8.6084Y-7.7385
X8.6084Y-7.8959
X8.7084Y-7.7385
X8.7084Y-7.8959
X8.8084Y-7.7385
X8.8084Y-7.8959
X8.9084Y-7.7385
X8.9084Y-7.8959
X9.1084Y-7.7385
X9.1084Y-7.8959
X9.2084Y-7.7385
X9.2084Y-7.8959
X9.3084Y-7.7385
X9.3084Y-7.8959
X9.4084Y-7.7385
X9.4084Y-7.8959
X9.5084Y-7.7385
X9.5084Y-7.8959
X9.6084Y-7.7385
X9.6084Y-7.8959
X9.7084Y-7.7385
X9.7084Y-7.8959
X9.8084Y-7.7385
X9.8084Y-7.8959
X9.9084Y-7.7385
X9.9084Y-7.8959
X10.0084Y-7.7385
X10.0084Y-7.8959
X10.1084Y-7.7385
X10.1084Y-7.8959
X10.2084Y-7.7385
X10.2084Y-7.8959
X10.3084Y-7.7385
X10.3084Y-7.8959
X10.4084Y-7.7385
X10.4084Y-7.8959
X11.4742Y-4.8342
X11.4742Y-5.0252
X11.4742Y-5.8716
X11.4742Y-6.0626
X11.5742Y-4.8342
X11.5742Y-5.0252
X11.5742Y-5.8716
X11.5742Y-6.0626
X11.6742Y-4.8342
X11.6742Y-5.0252
X11.6742Y-5.8716
X11.6742Y-6.0626
X11.7742Y-4.8342
X11.7742Y-5.0252
X11.7742Y-5.8716
X11.7742Y-6.0626
X11.8742Y-4.8342
X11.8742Y-5.0252
X11.8742Y-5.8716
X11.8742Y-6.0626
X11.9742Y-4.8342
X11.9742Y-5.0252
X11.9742Y-5.8716
X11.9742Y-6.0626
X12.0742Y-4.8342
X12.0742Y-5.0252
X12.0742Y-5.8716
X12.0742Y-6.0626
X12.1742Y-4.8342
X12.1742Y-5.0252
X12.1742Y-5.8716
X12.1742Y-6.0626
X12.2742Y-4.8342
X12.2742Y-5.0252
X12.2742Y-5.8716
X12.2742Y-6.0626
X12.3742Y-4.8342
X12.3742Y-5.0252
X12.3742Y-5.8716
X12.3742Y-6.0626
X12.4742Y-4.8342
X12.4742Y-5.0252
X12.4742Y-5.8716
X12.4742Y-6.0626
X12.5742Y-4.8342
X12.5742Y-5.0252
X12.5742Y-5.8716
X12.5742Y-6.0626
X12.6742Y-4.8342
X12.6742Y-5.0252
X12.6742Y-5.8716
X12.6742Y-6.0626
X12.7742Y-4.8342
X12.7742Y-5.0252
X12.7742Y-5.8716
X12.7742Y-6.0626
X12.8742Y-4.8342
X12.8742Y-5.0252
X12.8742Y-5.8716
X12.8742Y-6.0626
X12.9742Y-4.8342
X12.9742Y-5.0252
X12.9742Y-5.8716
X12.9742Y-6.0626
X13.0742Y-4.8342
X13.0742Y-5.0252
X13.0742Y-5.8716
X13.0742Y-6.0626
X13.1742Y-4.8342
X13.1742Y-5.0252
X13.1742Y-5.8716
X13.1742Y-6.0626
X13.2742Y-4.8342
X13.2742Y-5.0252
X13.2742Y-5.8716
X13.2742Y-6.0626
X13.3742Y-4.8342
X13.3742Y-5.0252
X13.3742Y-5.8716
X13.3742Y-6.0626
X13.4742Y-4.8342
X13.4742Y-5.0252
X13.4742Y-5.8716
X13.4742Y-6.0626
X13.5742Y-4.8342
X13.5742Y-5.0252
X13.5742Y-5.8716
X13.5742Y-6.0626
T6
X7.4005Y-7.1613
X8.1092Y-7.1613
T7
X2.384Y-5.3058
X2.384Y-6.29
X6.5816Y-4.563
X7.8927Y-4.563
T0
M30
