%TF.GenerationSoftware,KiCad,Pcbnew,(6.0.11)*%
%TF.CreationDate,2023-09-06T20:25:10+01:00*%
%TF.ProjectId,001-Acorn_Electron_Plus1_V1_1_with_Joystick,3030312d-4163-46f7-926e-5f456c656374,rev?*%
%TF.SameCoordinates,Original*%
%TF.FileFunction,Profile,NP*%
%FSLAX46Y46*%
G04 Gerber Fmt 4.6, Leading zero omitted, Abs format (unit mm)*
G04 Created by KiCad (PCBNEW (6.0.11)) date 2023-09-06 20:25:10*
%MOMM*%
%LPD*%
G01*
G04 APERTURE LIST*
%TA.AperFunction,Profile*%
%ADD10C,0.100000*%
%TD*%
G04 APERTURE END LIST*
D10*
X383000000Y-109000000D02*
X53100000Y-109000000D01*
X53100000Y-109000000D02*
X53100000Y-186800000D01*
X379600000Y-181480000D02*
G75*
G03*
X379600000Y-181480000I-1900000J0D01*
G01*
X60300000Y-181400000D02*
G75*
G03*
X60300000Y-181400000I-1900000J0D01*
G01*
X275200000Y-118800000D02*
G75*
G03*
X275200000Y-118800000I-1500000J0D01*
G01*
X357800000Y-125200000D02*
G75*
G03*
X357800000Y-125200000I-1900000J0D01*
G01*
X364300000Y-158900000D02*
G75*
G03*
X364300000Y-158900000I-1500000J0D01*
G01*
X327000000Y-181480000D02*
G75*
G03*
X327000000Y-181480000I-1900000J0D01*
G01*
X131950000Y-116200000D02*
G75*
G03*
X131950000Y-116200000I-1750000J0D01*
G01*
X113000000Y-181500000D02*
G75*
G03*
X113000000Y-181500000I-1900000J0D01*
G01*
X286600000Y-186800000D02*
X383000000Y-186800000D01*
X89650000Y-116200000D02*
G75*
G03*
X89650000Y-116200000I-1750000J0D01*
G01*
X282940000Y-125200000D02*
G75*
G03*
X282940000Y-125200000I-1900000J0D01*
G01*
X181700000Y-186800000D02*
X181700000Y-204000000D01*
X357800000Y-152000000D02*
G75*
G03*
X357800000Y-152000000I-1900000J0D01*
G01*
X383000000Y-186800000D02*
X383000000Y-109000000D01*
X53100000Y-186800000D02*
X181700000Y-186800000D01*
X379600000Y-114300000D02*
G75*
G03*
X379600000Y-114300000I-1900000J0D01*
G01*
X286600000Y-204000000D02*
X286600000Y-186800000D01*
X282940000Y-152000000D02*
G75*
G03*
X282940000Y-152000000I-1900000J0D01*
G01*
X60300000Y-114400000D02*
G75*
G03*
X60300000Y-114400000I-1900000J0D01*
G01*
X209500000Y-131800000D02*
G75*
G03*
X209500000Y-131800000I-2000000J0D01*
G01*
X181700000Y-204000000D02*
X286600000Y-204000000D01*
M02*
