%TF.GenerationSoftware,KiCad,Pcbnew,(6.0.11)*%
%TF.CreationDate,2023-09-06T20:25:10+01:00*%
%TF.ProjectId,001-Acorn_Electron_Plus1_V1_1_with_Joystick,3030312d-4163-46f7-926e-5f456c656374,rev?*%
%TF.SameCoordinates,Original*%
%TF.FileFunction,Soldermask,Top*%
%TF.FilePolarity,Negative*%
%FSLAX46Y46*%
G04 Gerber Fmt 4.6, Leading zero omitted, Abs format (unit mm)*
G04 Created by KiCad (PCBNEW (6.0.11)) date 2023-09-06 20:25:10*
%MOMM*%
%LPD*%
G01*
G04 APERTURE LIST*
G04 Aperture macros list*
%AMRoundRect*
0 Rectangle with rounded corners*
0 $1 Rounding radius*
0 $2 $3 $4 $5 $6 $7 $8 $9 X,Y pos of 4 corners*
0 Add a 4 corners polygon primitive as box body*
4,1,4,$2,$3,$4,$5,$6,$7,$8,$9,$2,$3,0*
0 Add four circle primitives for the rounded corners*
1,1,$1+$1,$2,$3*
1,1,$1+$1,$4,$5*
1,1,$1+$1,$6,$7*
1,1,$1+$1,$8,$9*
0 Add four rect primitives between the rounded corners*
20,1,$1+$1,$2,$3,$4,$5,0*
20,1,$1+$1,$4,$5,$6,$7,0*
20,1,$1+$1,$6,$7,$8,$9,0*
20,1,$1+$1,$8,$9,$2,$3,0*%
G04 Aperture macros list end*
%ADD10C,1.600000*%
%ADD11O,1.600000X1.600000*%
%ADD12R,1.600000X1.600000*%
%ADD13C,1.524000*%
%ADD14R,1.700000X1.700000*%
%ADD15O,1.700000X1.700000*%
%ADD16C,4.000000*%
%ADD17R,1.050000X1.500000*%
%ADD18O,1.050000X1.500000*%
%ADD19RoundRect,0.250000X0.600000X-0.600000X0.600000X0.600000X-0.600000X0.600000X-0.600000X-0.600000X0*%
%ADD20C,1.700000*%
%ADD21R,2.400000X2.400000*%
%ADD22O,2.400000X2.400000*%
G04 APERTURE END LIST*
D10*
%TO.C,R3*%
X147028150Y-127712658D03*
D11*
X147028150Y-120092658D03*
%TD*%
D12*
%TO.C,IC9*%
X228849000Y-149500000D03*
D11*
X226309000Y-149500000D03*
X223769000Y-149500000D03*
X221229000Y-149500000D03*
X218689000Y-149500000D03*
X216149000Y-149500000D03*
X213609000Y-149500000D03*
X213609000Y-157120000D03*
X216149000Y-157120000D03*
X218689000Y-157120000D03*
X221229000Y-157120000D03*
X223769000Y-157120000D03*
X226309000Y-157120000D03*
X228849000Y-157120000D03*
%TD*%
D10*
%TO.C,C7*%
X198524324Y-172322327D03*
X198524324Y-167322327D03*
%TD*%
D12*
%TO.C,C4*%
X338943863Y-170930276D03*
D10*
X338943863Y-165930276D03*
%TD*%
D13*
%TO.C,SK2*%
X344784000Y-149138000D03*
X342244000Y-149138000D03*
X339704000Y-149138000D03*
X337164000Y-149138000D03*
X334624000Y-149138000D03*
X332084000Y-149138000D03*
X329544000Y-149138000D03*
X327004000Y-149138000D03*
X324464000Y-149138000D03*
X321924000Y-149138000D03*
X319384000Y-149138000D03*
X316844000Y-149138000D03*
X314304000Y-149138000D03*
X311764000Y-149138000D03*
X309224000Y-149138000D03*
X306684000Y-149138000D03*
X304144000Y-149138000D03*
X301604000Y-149138000D03*
X299064000Y-149138000D03*
X296524000Y-149138000D03*
X293984000Y-149138000D03*
X291444000Y-149138000D03*
X344784000Y-153989400D03*
X342244000Y-153989400D03*
X339704000Y-153989400D03*
X337164000Y-153989400D03*
X334624000Y-153989400D03*
X332084000Y-153989400D03*
X329544000Y-153989400D03*
X327004000Y-153989400D03*
X324464000Y-153989400D03*
X321924000Y-153989400D03*
X319384000Y-153989400D03*
X316844000Y-153989400D03*
X314304000Y-153989400D03*
X311764000Y-153989400D03*
X309224000Y-153989400D03*
X306684000Y-153989400D03*
X304144000Y-153989400D03*
X301604000Y-153989400D03*
X299064000Y-153989400D03*
X296524000Y-153989400D03*
X293984000Y-153989400D03*
X291444000Y-153989400D03*
%TD*%
D14*
%TO.C,LK3*%
X353060000Y-170416594D03*
D15*
X350520000Y-170416594D03*
%TD*%
D14*
%TO.C,LK5*%
X62671871Y-128681409D03*
D15*
X65211871Y-128681409D03*
X67751871Y-128681409D03*
%TD*%
D10*
%TO.C,C10*%
X259650779Y-155934977D03*
X259650779Y-150934977D03*
%TD*%
%TO.C,R1*%
X101954254Y-157078714D03*
D11*
X101954254Y-149458714D03*
%TD*%
D12*
%TO.C,IC13*%
X123570000Y-166210000D03*
D11*
X121030000Y-166210000D03*
X118490000Y-166210000D03*
X115950000Y-166210000D03*
X113410000Y-166210000D03*
X110870000Y-166210000D03*
X108330000Y-166210000D03*
X108330000Y-173830000D03*
X110870000Y-173830000D03*
X113410000Y-173830000D03*
X115950000Y-173830000D03*
X118490000Y-173830000D03*
X121030000Y-173830000D03*
X123570000Y-173830000D03*
%TD*%
D12*
%TO.C,IC7*%
X91938100Y-166210000D03*
D11*
X89398100Y-166210000D03*
X86858100Y-166210000D03*
X84318100Y-166210000D03*
X81778100Y-166210000D03*
X79238100Y-166210000D03*
X76698100Y-166210000D03*
X76698100Y-173830000D03*
X79238100Y-173830000D03*
X81778100Y-173830000D03*
X84318100Y-173830000D03*
X86858100Y-173830000D03*
X89398100Y-173830000D03*
X91938100Y-173830000D03*
%TD*%
D10*
%TO.C,C23*%
X95208982Y-128658635D03*
X95208982Y-123658635D03*
%TD*%
%TO.C,R6*%
X151666856Y-127649639D03*
D11*
X151666856Y-120029639D03*
%TD*%
D12*
%TO.C,C6*%
X259923292Y-145153587D03*
D10*
X254923292Y-145153587D03*
%TD*%
D14*
%TO.C,LK4*%
X352992147Y-182042354D03*
D15*
X350452147Y-182042354D03*
%TD*%
D12*
%TO.C,IC6*%
X256165000Y-116250000D03*
D11*
X253625000Y-116250000D03*
X251085000Y-116250000D03*
X248545000Y-116250000D03*
X246005000Y-116250000D03*
X243465000Y-116250000D03*
X240925000Y-116250000D03*
X238385000Y-116250000D03*
X238385000Y-123870000D03*
X240925000Y-123870000D03*
X243465000Y-123870000D03*
X246005000Y-123870000D03*
X248545000Y-123870000D03*
X251085000Y-123870000D03*
X253625000Y-123870000D03*
X256165000Y-123870000D03*
%TD*%
D10*
%TO.C,R5*%
X216689981Y-120196242D03*
D11*
X216689981Y-127816242D03*
%TD*%
D12*
%TO.C,IC15*%
X155650000Y-133360000D03*
D11*
X153110000Y-133360000D03*
X150570000Y-133360000D03*
X148030000Y-133360000D03*
X145490000Y-133360000D03*
X142950000Y-133360000D03*
X140410000Y-133360000D03*
X140410000Y-140980000D03*
X142950000Y-140980000D03*
X145490000Y-140980000D03*
X148030000Y-140980000D03*
X150570000Y-140980000D03*
X153110000Y-140980000D03*
X155650000Y-140980000D03*
%TD*%
D12*
%TO.C,IC2*%
X256165000Y-149500000D03*
D11*
X253625000Y-149500000D03*
X251085000Y-149500000D03*
X248545000Y-149500000D03*
X246005000Y-149500000D03*
X243465000Y-149500000D03*
X240925000Y-149500000D03*
X240925000Y-157120000D03*
X243465000Y-157120000D03*
X246005000Y-157120000D03*
X248545000Y-157120000D03*
X251085000Y-157120000D03*
X253625000Y-157120000D03*
X256165000Y-157120000D03*
%TD*%
D14*
%TO.C,LK1*%
X353060000Y-174012369D03*
D15*
X350520000Y-174012369D03*
%TD*%
D12*
%TO.C,IC11*%
X195075537Y-133360000D03*
D11*
X192535537Y-133360000D03*
X189995537Y-133360000D03*
X187455537Y-133360000D03*
X184915537Y-133360000D03*
X182375537Y-133360000D03*
X179835537Y-133360000D03*
X177295537Y-133360000D03*
X174755537Y-133360000D03*
X172215537Y-133360000D03*
X172215537Y-140980000D03*
X174755537Y-140980000D03*
X177295537Y-140980000D03*
X179835537Y-140980000D03*
X182375537Y-140980000D03*
X184915537Y-140980000D03*
X187455537Y-140980000D03*
X189995537Y-140980000D03*
X192535537Y-140980000D03*
X195075537Y-140980000D03*
%TD*%
D10*
%TO.C,C1*%
X95373014Y-172824680D03*
X95373014Y-167824680D03*
%TD*%
D12*
%TO.C,IC19*%
X91938100Y-132890000D03*
D11*
X89398100Y-132890000D03*
X86858100Y-132890000D03*
X84318100Y-132890000D03*
X81778100Y-132890000D03*
X79238100Y-132890000D03*
X76698100Y-132890000D03*
X76698100Y-140510000D03*
X79238100Y-140510000D03*
X81778100Y-140510000D03*
X84318100Y-140510000D03*
X86858100Y-140510000D03*
X89398100Y-140510000D03*
X91938100Y-140510000D03*
%TD*%
D14*
%TO.C,LK2*%
X352989952Y-178448715D03*
D15*
X350449952Y-178448715D03*
%TD*%
D10*
%TO.C,C21*%
X127264699Y-172695233D03*
X127264699Y-167695233D03*
%TD*%
D12*
%TO.C,IC14*%
X312205600Y-165095000D03*
D11*
X309665600Y-165095000D03*
X307125600Y-165095000D03*
X304585600Y-165095000D03*
X302045600Y-165095000D03*
X299505600Y-165095000D03*
X296965600Y-165095000D03*
X294425600Y-165095000D03*
X291885600Y-165095000D03*
X289345600Y-165095000D03*
X286805600Y-165095000D03*
X284265600Y-165095000D03*
X281725600Y-165095000D03*
X279185600Y-165095000D03*
X279185600Y-180335000D03*
X281725600Y-180335000D03*
X284265600Y-180335000D03*
X286805600Y-180335000D03*
X289345600Y-180335000D03*
X291885600Y-180335000D03*
X294425600Y-180335000D03*
X296965600Y-180335000D03*
X299505600Y-180335000D03*
X302045600Y-180335000D03*
X304585600Y-180335000D03*
X307125600Y-180335000D03*
X309665600Y-180335000D03*
X312205600Y-180335000D03*
%TD*%
D12*
%TO.C,IC18*%
X91938100Y-149505745D03*
D11*
X89398100Y-149505745D03*
X86858100Y-149505745D03*
X84318100Y-149505745D03*
X81778100Y-149505745D03*
X79238100Y-149505745D03*
X76698100Y-149505745D03*
X74158100Y-149505745D03*
X74158100Y-157125745D03*
X76698100Y-157125745D03*
X79238100Y-157125745D03*
X81778100Y-157125745D03*
X84318100Y-157125745D03*
X86858100Y-157125745D03*
X89398100Y-157125745D03*
X91938100Y-157125745D03*
%TD*%
D12*
%TO.C,IC10*%
X155650000Y-149500000D03*
D11*
X153110000Y-149500000D03*
X150570000Y-149500000D03*
X148030000Y-149500000D03*
X145490000Y-149500000D03*
X142950000Y-149500000D03*
X140410000Y-149500000D03*
X140410000Y-157120000D03*
X142950000Y-157120000D03*
X145490000Y-157120000D03*
X148030000Y-157120000D03*
X150570000Y-157120000D03*
X153110000Y-157120000D03*
X155650000Y-157120000D03*
%TD*%
D12*
%TO.C,IC3*%
X155368900Y-166210000D03*
D11*
X152828900Y-166210000D03*
X150288900Y-166210000D03*
X147748900Y-166210000D03*
X145208900Y-166210000D03*
X142668900Y-166210000D03*
X140128900Y-166210000D03*
X137588900Y-166210000D03*
X137588900Y-173830000D03*
X140128900Y-173830000D03*
X142668900Y-173830000D03*
X145208900Y-173830000D03*
X147748900Y-173830000D03*
X150288900Y-173830000D03*
X152828900Y-173830000D03*
X155368900Y-173830000D03*
%TD*%
D13*
%TO.C,PL1*%
X264374070Y-200556891D03*
X264374070Y-196556891D03*
X261834070Y-200556891D03*
X261834070Y-196556891D03*
X259294070Y-200556891D03*
X259294070Y-196556891D03*
X256754070Y-200556891D03*
X256754070Y-196556891D03*
X254214070Y-200556891D03*
X254214070Y-196556891D03*
X251674070Y-200556891D03*
X251674070Y-196556891D03*
X249134070Y-200556891D03*
X249134070Y-196556891D03*
X246594070Y-200556891D03*
X246594070Y-196556891D03*
X244054070Y-200556891D03*
X244054070Y-196556891D03*
X241514070Y-200556891D03*
X241514070Y-196556891D03*
X238974070Y-200556891D03*
X238974070Y-196556891D03*
X236434070Y-200556891D03*
X236434070Y-196556891D03*
X233894070Y-200556891D03*
X233894070Y-196556891D03*
X231354070Y-200556891D03*
X231354070Y-196556891D03*
X226274070Y-200556891D03*
X226274070Y-196556891D03*
X223734070Y-200556891D03*
X223734070Y-196556891D03*
X221194070Y-200556891D03*
X221194070Y-196556891D03*
X218654070Y-200556891D03*
X218654070Y-196556891D03*
X216114070Y-200556891D03*
X216114070Y-196556891D03*
X213574070Y-200556891D03*
X213574070Y-196556891D03*
X211034070Y-200556891D03*
X211034070Y-196556891D03*
X208494070Y-200556891D03*
X208494070Y-196556891D03*
X205954070Y-200556891D03*
X205954070Y-196556891D03*
X203414070Y-200556891D03*
X203414070Y-196556891D03*
%TD*%
D10*
%TO.C,C8*%
X232314072Y-172452667D03*
X232314072Y-167452667D03*
%TD*%
%TO.C,C22*%
X95113970Y-155917560D03*
X95113970Y-150917560D03*
%TD*%
D14*
%TO.C,LK7*%
X132702003Y-123129532D03*
D15*
X130162003Y-123129532D03*
X127622003Y-123129532D03*
X125082003Y-123129532D03*
X122542003Y-123129532D03*
X120002003Y-123129532D03*
%TD*%
D10*
%TO.C,C2*%
X259730107Y-122531758D03*
X259730107Y-117531758D03*
%TD*%
%TO.C,C14*%
X281254252Y-183710447D03*
X276254252Y-183710447D03*
%TD*%
%TO.C,C17*%
X232218715Y-155856421D03*
X232218715Y-150856421D03*
%TD*%
D12*
%TO.C,D1*%
X221209600Y-127816242D03*
D11*
X221209600Y-120196242D03*
%TD*%
D12*
%TO.C,D2*%
X225568115Y-120196242D03*
D11*
X225568115Y-127816242D03*
%TD*%
D16*
%TO.C,SK6*%
X60552586Y-159766879D03*
X60552586Y-134766879D03*
D12*
X60852586Y-141726879D03*
D10*
X60852586Y-144496879D03*
X60852586Y-147266879D03*
X60852586Y-150036879D03*
X60852586Y-152806879D03*
X58012586Y-143111879D03*
X58012586Y-145881879D03*
X58012586Y-148651879D03*
X58012586Y-151421879D03*
%TD*%
D13*
%TO.C,SK1*%
X344784000Y-122789300D03*
X342244000Y-122789300D03*
X339704000Y-122789300D03*
X337164000Y-122789300D03*
X334624000Y-122789300D03*
X332084000Y-122789300D03*
X329544000Y-122789300D03*
X327004000Y-122789300D03*
X324464000Y-122789300D03*
X321924000Y-122789300D03*
X319384000Y-122789300D03*
X316844000Y-122789300D03*
X314304000Y-122789300D03*
X311764000Y-122789300D03*
X309224000Y-122789300D03*
X306684000Y-122789300D03*
X304144000Y-122789300D03*
X301604000Y-122789300D03*
X299064000Y-122789300D03*
X296524000Y-122789300D03*
X293984000Y-122789300D03*
X291444000Y-122789300D03*
X344784000Y-127640700D03*
X342244000Y-127640700D03*
X339704000Y-127640700D03*
X337164000Y-127640700D03*
X334624000Y-127640700D03*
X332084000Y-127640700D03*
X329544000Y-127640700D03*
X327004000Y-127640700D03*
X324464000Y-127640700D03*
X321924000Y-127640700D03*
X319384000Y-127640700D03*
X316844000Y-127640700D03*
X314304000Y-127640700D03*
X311764000Y-127640700D03*
X309224000Y-127640700D03*
X306684000Y-127640700D03*
X304144000Y-127640700D03*
X301604000Y-127640700D03*
X299064000Y-127640700D03*
X296524000Y-127640700D03*
X293984000Y-127640700D03*
X291444000Y-127640700D03*
%TD*%
D17*
%TO.C,Q1*%
X101102342Y-144171831D03*
D18*
X99832342Y-144171831D03*
X98562342Y-144171831D03*
%TD*%
D12*
%TO.C,IC5*%
X195075537Y-166210000D03*
D11*
X192535537Y-166210000D03*
X189995537Y-166210000D03*
X187455537Y-166210000D03*
X184915537Y-166210000D03*
X182375537Y-166210000D03*
X179835537Y-166210000D03*
X179835537Y-173830000D03*
X182375537Y-173830000D03*
X184915537Y-173830000D03*
X187455537Y-173830000D03*
X189995537Y-173830000D03*
X192535537Y-173830000D03*
X195075537Y-173830000D03*
%TD*%
D10*
%TO.C,C24*%
X95105358Y-139372066D03*
X95105358Y-134372066D03*
%TD*%
%TO.C,C13*%
X198785989Y-155767660D03*
X198785989Y-150767660D03*
%TD*%
%TO.C,R9*%
X247944599Y-145239187D03*
D11*
X240324599Y-145239187D03*
%TD*%
D12*
%TO.C,IC4*%
X256165000Y-133360000D03*
D11*
X253625000Y-133360000D03*
X251085000Y-133360000D03*
X248545000Y-133360000D03*
X246005000Y-133360000D03*
X243465000Y-133360000D03*
X240925000Y-133360000D03*
X240925000Y-140980000D03*
X243465000Y-140980000D03*
X246005000Y-140980000D03*
X248545000Y-140980000D03*
X251085000Y-140980000D03*
X253625000Y-140980000D03*
X256165000Y-140980000D03*
%TD*%
D10*
%TO.C,C9*%
X259700057Y-139636628D03*
X259700057Y-134636628D03*
%TD*%
%TO.C,R4*%
X359467800Y-174039801D03*
D11*
X359467800Y-166419801D03*
%TD*%
D10*
%TO.C,C11*%
X198839538Y-139960351D03*
X198839538Y-134960351D03*
%TD*%
D12*
%TO.C,D3*%
X230113424Y-127816242D03*
D11*
X230113424Y-120196242D03*
%TD*%
D12*
%TO.C,IC17*%
X91978140Y-122045909D03*
D11*
X89438140Y-122045909D03*
X86898140Y-122045909D03*
X84358140Y-122045909D03*
X81818140Y-122045909D03*
X79278140Y-122045909D03*
X76738140Y-122045909D03*
X76738140Y-129665909D03*
X79278140Y-129665909D03*
X81818140Y-129665909D03*
X84358140Y-129665909D03*
X86898140Y-129665909D03*
X89438140Y-129665909D03*
X91978140Y-129665909D03*
%TD*%
D14*
%TO.C,LK6*%
X62861369Y-122543399D03*
D15*
X65401369Y-122543399D03*
X67941369Y-122543399D03*
%TD*%
D12*
%TO.C,IC1*%
X228849000Y-166210000D03*
D11*
X226309000Y-166210000D03*
X223769000Y-166210000D03*
X221229000Y-166210000D03*
X218689000Y-166210000D03*
X216149000Y-166210000D03*
X213609000Y-166210000D03*
X213609000Y-173830000D03*
X216149000Y-173830000D03*
X218689000Y-173830000D03*
X221229000Y-173830000D03*
X223769000Y-173830000D03*
X226309000Y-173830000D03*
X228849000Y-173830000D03*
%TD*%
D10*
%TO.C,C19*%
X159061467Y-155961376D03*
X159061467Y-150961376D03*
%TD*%
%TO.C,R7*%
X95796182Y-163092013D03*
D11*
X103416182Y-163092013D03*
%TD*%
D10*
%TO.C,C20*%
X159092889Y-139433394D03*
X159092889Y-134433394D03*
%TD*%
D12*
%TO.C,IC16*%
X123600000Y-132890000D03*
D11*
X121060000Y-132890000D03*
X118520000Y-132890000D03*
X115980000Y-132890000D03*
X113440000Y-132890000D03*
X110900000Y-132890000D03*
X108360000Y-132890000D03*
X105820000Y-132890000D03*
X103280000Y-132890000D03*
X100740000Y-132890000D03*
X100740000Y-140510000D03*
X103280000Y-140510000D03*
X105820000Y-140510000D03*
X108360000Y-140510000D03*
X110900000Y-140510000D03*
X113440000Y-140510000D03*
X115980000Y-140510000D03*
X118520000Y-140510000D03*
X121060000Y-140510000D03*
X123600000Y-140510000D03*
%TD*%
D12*
%TO.C,IC12*%
X123680000Y-149500000D03*
D11*
X121140000Y-149500000D03*
X118600000Y-149500000D03*
X116060000Y-149500000D03*
X113520000Y-149500000D03*
X110980000Y-149500000D03*
X108440000Y-149500000D03*
X105900000Y-149500000D03*
X105900000Y-157120000D03*
X108440000Y-157120000D03*
X110980000Y-157120000D03*
X113520000Y-157120000D03*
X116060000Y-157120000D03*
X118600000Y-157120000D03*
X121140000Y-157120000D03*
X123680000Y-157120000D03*
%TD*%
D10*
%TO.C,R2*%
X142336092Y-127729458D03*
D11*
X142336092Y-120109458D03*
%TD*%
D10*
%TO.C,C16*%
X127500000Y-139274238D03*
X127500000Y-134274238D03*
%TD*%
D12*
%TO.C,IC8*%
X195075537Y-149500000D03*
D11*
X192535537Y-149500000D03*
X189995537Y-149500000D03*
X187455537Y-149500000D03*
X184915537Y-149500000D03*
X182375537Y-149500000D03*
X179835537Y-149500000D03*
X179835537Y-157120000D03*
X182375537Y-157120000D03*
X184915537Y-157120000D03*
X187455537Y-157120000D03*
X189995537Y-157120000D03*
X192535537Y-157120000D03*
X195075537Y-157120000D03*
%TD*%
D12*
%TO.C,RN1*%
X74263046Y-145014981D03*
D11*
X76803046Y-145014981D03*
X79343046Y-145014981D03*
X81883046Y-145014981D03*
X84423046Y-145014981D03*
X86963046Y-145014981D03*
%TD*%
D16*
%TO.C,SK4*%
X167173708Y-115900000D03*
X200473708Y-115900000D03*
D12*
X174128708Y-116200000D03*
D10*
X176898708Y-116200000D03*
X179668708Y-116200000D03*
X182438708Y-116200000D03*
X185208708Y-116200000D03*
X187978708Y-116200000D03*
X190748708Y-116200000D03*
X193518708Y-116200000D03*
X175513708Y-113360000D03*
X178283708Y-113360000D03*
X181053708Y-113360000D03*
X183823708Y-113360000D03*
X186593708Y-113360000D03*
X189363708Y-113360000D03*
X192133708Y-113360000D03*
%TD*%
D19*
%TO.C,J1*%
X93840000Y-118705800D03*
D20*
X93840000Y-116165800D03*
X96380000Y-118705800D03*
X96380000Y-116165800D03*
X98920000Y-118705800D03*
X98920000Y-116165800D03*
X101460000Y-118705800D03*
X101460000Y-116165800D03*
X104000000Y-118705800D03*
X104000000Y-116165800D03*
X106540000Y-118705800D03*
X106540000Y-116165800D03*
X109080000Y-118705800D03*
X109080000Y-116165800D03*
X111620000Y-118705800D03*
X111620000Y-116165800D03*
X114160000Y-118705800D03*
X114160000Y-116165800D03*
X116700000Y-118705800D03*
X116700000Y-116165800D03*
X119240000Y-118705800D03*
X119240000Y-116165800D03*
X121780000Y-118705800D03*
X121780000Y-116165800D03*
X124320000Y-118705800D03*
X124320000Y-116165800D03*
%TD*%
D10*
%TO.C,C12*%
X127500000Y-155804806D03*
X127500000Y-150804806D03*
%TD*%
D12*
%TO.C,C5*%
X211332080Y-121211408D03*
D10*
X211332080Y-126211408D03*
%TD*%
D21*
%TO.C,C3*%
X187972786Y-181896677D03*
D22*
X205972786Y-181896677D03*
%TD*%
D10*
%TO.C,R8*%
X98572877Y-157070253D03*
D11*
X98572877Y-149450253D03*
%TD*%
D10*
%TO.C,C18*%
X158762958Y-172823188D03*
X158762958Y-167823188D03*
%TD*%
M02*
